<?xml version="1.0" encoding="UTF-8"?>
<!DOCTYPE svg PUBLIC "-//W3C//DTD SVG 1.1//EN" "http://www.w3.org/Graphics/SVG/1.1/DTD/svg11.dtd">
<svg xmlns="http://www.w3.org/2000/svg" xml:space="preserve" width="348.21" height="113.243"
	 viewBox="0 0 348.21 113.243" xmlns:xlink="http://www.w3.org/1999/xlink">
	<path fill="#E20613" d="M122.889,65.614"/>
	<path fill="#E20613" d="M122.916,65.614"/>
	<path fill="#E20613" d="M0.072,110.388c0,0.481,0.32,0.801,0.8,0.801h12.965c0.48,0,0.8-0.319,0.8-0.801V90.622
		c0-0.32,0.161-0.48,0.48-0.48h13.925c0.48,0,0.8-0.32,0.8-0.801v-9.523c0-0.48-0.32-0.8-0.8-0.8H15.117
		c-0.32,0-0.48-0.16-0.48-0.479v-9.684c0-0.321,0.161-0.48,0.48-0.48h14.966c0.479,0,0.8-0.32,0.8-0.801V57.569
		c0-0.48-0.32-0.8-0.8-0.8H0.872c-0.48,0-0.8,0.319-0.8,0.8V110.388L0.072,110.388z M65.021,110.469c0.24,0.64,0.48,0.72,1.04,0.72
		h14.326c0.56,0,0.72-0.399,0.56-0.801l-9.764-20.406c-0.64-1.281-1.12-2.32-1.12-2.641c0-0.4,0.16-0.641,1.12-1.441
		c3.922-3.521,5.762-8.002,5.762-14.244c0-11.205-6.563-14.886-19.687-14.886H39.012c-0.48,0-0.8,0.319-0.8,0.8v52.818
		c0,0.481,0.32,0.801,0.8,0.801h12.805c0.48,0,0.8-0.319,0.8-0.801V92.302c0-0.561,0.32-0.561,0.96-0.561h2.641
		c0.96,0,1.201,0.16,2.321,2.882L65.021,110.469L65.021,110.469z M55.898,82.538c-2.561,0-3.281-0.08-3.281-0.959V67.573
		c0-0.48,0.24-0.641,1.761-0.641h1.521c5.122,0,6.482,2.002,6.482,7.443C62.381,80.538,60.7,82.538,55.898,82.538L55.898,82.538z"/>
	<path fill="#E20613" d="M121.437,113.243c0,0,0-38.096,0-40.394c0-2.255-1.235-3.872-3.154-3.374
		c-2.222,0.576-10.92,2.783-13.104,3.336c-1.928,0.486-2.736,2.038-2.736,4.152c0,1.498,0,31.176,0,31.176L121.437,113.243
		L121.437,113.243z M115.898,105.653l-11.131-2.498V83.216c0-3.789-0.332-4.313,1.519-4.801c2.888-0.763,5.76-1.483,7.089-1.816
		c2.165-0.541,2.479-0.07,2.479,2.166C115.854,82.169,115.898,105.653,115.898,105.653L115.898,105.653z"/>
	<path fill="#E20613" d="M133.716,86.499c0-22.658-4.281-30.608-24.97-30.608c-20.69,0-24.971,7.95-24.971,30.595v0.027
		c0,13.992,1.64,22.368,7.769,26.73V70.37c0-2.891,2.366-5.258,5.258-5.258h23.888c2.892,0,5.257,2.367,5.257,5.258v42.873
		C132.076,108.879,133.716,100.499,133.716,86.499L133.716,86.499z"/>
	<path fill="#671C15" d="M0,46.169c0,0.409,0.273,0.682,0.682,0.682H11.73c0.41,0,0.682-0.272,0.682-0.682V29.324
		c0-0.272,0.136-0.409,0.409-0.409h11.867c0.409,0,0.682-0.272,0.682-0.682v-8.115c0-0.41-0.273-0.682-0.682-0.682H12.821
		c-0.272,0-0.409-0.137-0.409-0.409v-8.252c0-0.272,0.136-0.409,0.409-0.409h12.753c0.409,0,0.682-0.273,0.682-0.683V1.159
		c0-0.409-0.273-0.682-0.682-0.682H0.682C0.273,0.478,0,0.75,0,1.159V46.169L0,46.169z"/>
	<path fill="#671C15" d="M30.279,46.169c0,0.409,0.272,0.682,0.682,0.682h26.187c0.41,0,0.683-0.272,0.683-0.682v-8.798
		c0-0.409-0.272-0.682-0.683-0.682H43.1c-0.272,0-0.409-0.137-0.409-0.409v-7.979c0-0.273,0.137-0.41,0.409-0.41h11.934
		c0.41,0,0.682-0.272,0.682-0.681v-8.116c0-0.409-0.272-0.682-0.682-0.682H43.1c-0.272,0-0.409-0.137-0.409-0.409v-7.229
		c0-0.272,0.137-0.409,0.409-0.409h13.162c0.41,0,0.682-0.273,0.682-0.683V1.159c0-0.409-0.272-0.682-0.682-0.682h-25.3
		c-0.41,0-0.682,0.272-0.682,0.682V46.169L30.279,46.169z"/>
	<path fill="#671C15" d="M97.383,46.851c0.41,0,0.682-0.272,0.682-0.682V1.159c0-0.409-0.272-0.682-0.682-0.682H87.359
		c-0.41,0-0.682,0.272-0.682,0.682l0.887,27.893c-0.068,0.545-0.137,0.682-0.478,0.682s-0.546-0.068-0.818-1.091L78.356,1.296
		c-0.136-0.409-0.341-0.818-0.75-0.818H62.262c-0.409,0-0.681,0.272-0.681,0.682v45.01c0,0.409,0.272,0.682,0.681,0.682h9.821
		c0.409,0,0.682-0.272,0.682-0.682l-0.818-29.12c0-1.159,0.068-1.295,0.478-1.295s0.613,0.205,0.955,1.228l9.343,29.188
		c0.136,0.477,0.409,0.682,0.818,0.682H97.383L97.383,46.851z"/>
	<path fill="#671C15" d="M127.594,10.502c0.272,0,0.409-0.205,0.409-0.41l0.682-8.115c0-0.205,0-0.478-0.409-0.614
		C126.571,0.682,121.729,0,117.569,0c-9.82,0-15.753,2.183-15.753,12.002c0,5.796,1.023,8.661,6.546,13.162
		c6.41,5.251,7.297,5.933,7.297,8.933c0,2.455-0.887,3.479-4.364,3.479c-2.864,0-6.274-0.341-8.866-0.819
		c-0.409-0.068-0.613,0.137-0.613,0.341l-0.545,8.661c0,0.204,0.204,0.409,0.477,0.477c3.001,0.819,7.707,1.228,11.935,1.228
		c9.411,0,15.276-2.796,15.276-12.548c0-5.524-0.682-7.775-7.707-14.185c-5.729-5.114-6.41-5.729-6.41-7.501
		c0-2.66,1.091-3.546,4.432-3.546C122.343,9.684,125.207,10.025,127.594,10.502L127.594,10.502z"/>
	<path fill="#671C15" d="M139.869,46.169c0,0.409,0.272,0.682,0.682,0.682h10.912c0.409,0,0.682-0.272,0.682-0.682V10.844
		c0-0.273,0.136-0.41,0.409-0.41h7.434c0.409,0,0.682-0.272,0.682-0.682V1.159c0-0.409-0.273-0.682-0.682-0.682h-28.029
		c-0.409,0-0.682,0.272-0.682,0.682v8.593c0,0.409,0.272,0.682,0.682,0.682h7.502c0.272,0,0.409,0.137,0.409,0.41V46.169
		L139.869,46.169z"/>
	<path fill="#671C15" d="M164.258,46.169c0,0.409,0.272,0.682,0.682,0.682h26.187c0.409,0,0.683-0.272,0.683-0.682v-8.798
		c0-0.409-0.273-0.682-0.683-0.682h-14.048c-0.272,0-0.409-0.137-0.409-0.409v-7.979c0-0.273,0.137-0.41,0.409-0.41h11.935
		c0.408,0,0.682-0.272,0.682-0.681v-8.116c0-0.409-0.273-0.682-0.682-0.682h-11.935c-0.272,0-0.409-0.137-0.409-0.409v-7.229
		c0-0.272,0.137-0.409,0.409-0.409h13.162c0.408,0,0.682-0.273,0.682-0.683V1.159c0-0.409-0.273-0.682-0.682-0.682H164.94
		c-0.41,0-0.682,0.272-0.682,0.682V46.169L164.258,46.169z"/>
	<path fill="#671C15" d="M224.313,28.779c-0.545-1.091-0.955-1.978-0.955-2.25c0-0.341,0.137-0.545,0.955-1.228
		c3.342-3,4.91-6.819,4.91-12.139c0-9.548-5.592-12.685-16.775-12.685h-15.55c-0.408,0-0.682,0.273-0.682,0.682v45.01
		c0,0.409,0.273,0.682,0.682,0.682h10.912c0.409,0,0.682-0.272,0.682-0.682V30.756c0-0.478,0.273-0.478,0.818-0.478h2.251
		c0.817,0,1.022,0.137,1.978,2.455l5.523,13.503c0.205,0.545,0.409,0.614,0.887,0.614h12.207c0.478,0,0.614-0.341,0.478-0.682
		L224.313,28.779L224.313,28.779z M216.812,15.48c0,5.251-1.433,6.956-5.524,6.956c-2.182,0-2.796-0.068-2.796-0.818V9.684
		c0-0.409,0.205-0.545,1.501-0.545h1.295C215.651,9.139,216.812,10.844,216.812,15.48L216.812,15.48z"/>
	<path fill="#671C15" d="M267.685,12.139c0-9.07-7.092-11.661-15.821-11.661h-16.571c-0.409,0-0.683,0.273-0.683,0.682v45.01
		c0,0.409,0.273,0.682,0.683,0.682h18.413c6.956,0,14.935-2.932,14.935-12.479c0-7.161-3.137-9.684-5.865-11.116
		c-0.408-0.137-0.613-0.341-0.613-0.614c0-0.34,0.136-0.477,0.818-0.886C265.366,20.596,267.685,18.481,267.685,12.139
		L267.685,12.139z M255.546,13.98c0,4.706-2.182,5.796-6.751,5.796h-1.433c-0.409,0-0.546-0.068-0.546-0.614V9.547
		c0-0.272,0.137-0.478,0.546-0.478h3.001C253.978,9.07,255.546,10.707,255.546,13.98L255.546,13.98z M256.023,32.394
		c0,4.228-1.228,5.592-6.206,5.592h-2.455c-0.409,0-0.546-0.137-0.546-0.546v-9.684c0-0.478,0.137-0.614,0.546-0.614h3.001
		C253.705,27.142,256.023,28.302,256.023,32.394L256.023,32.394z"/>
	<path fill="#671C15" d="M311.125,46.169c-1.363-6.138-8.661-34.849-11.389-45.01c-0.136-0.409-0.341-0.682-0.818-0.682h-17.526
		c-0.409,0-0.682,0.273-0.818,0.682c-2.796,10.025-9.684,36.553-11.661,45.01c-0.137,0.477,0.136,0.682,0.478,0.682h11.184
		c0.409,0,0.682-0.136,0.887-0.682l2.114-9.479c0.068-0.341,0.341-0.478,0.682-0.478h10.57c0.273,0,0.409,0,0.546,0.409l2.113,9.548
		c0.137,0.545,0.41,0.682,0.888,0.682h12.274C311.125,46.851,311.193,46.578,311.125,46.169L311.125,46.169z M294.145,26.733
		c0,0.272-0.137,0.341-0.272,0.341h-8.389c-0.205,0-0.272-0.069-0.272-0.341c0.478-2.796,2.522-12.343,3.546-16.23
		c0.068-0.205,0.273-0.273,1.092-0.273c0.886,0,1.022,0.068,1.091,0.273C291.826,14.39,293.667,23.937,294.145,26.733
		L294.145,26.733z"/>
	<path fill="#671C15" d="M347.473,1.159c0-0.409-0.272-0.682-0.682-0.682h-10.639c-0.409,0-0.682,0.272-0.682,0.682v30.279
		c0,4.978-1.91,5.796-5.456,5.796s-5.592-0.818-5.592-5.729V1.159c0-0.409-0.273-0.682-0.682-0.682h-10.844
		c-0.409,0-0.682,0.272-0.682,0.682v34.917c0,7.979,6.205,11.456,17.458,11.456c9.889,0,17.799-3.478,17.799-11.456V1.159
		L347.473,1.159z"/>
	<path fill="#E20613" d="M183.128,111.188c0.48,0,0.801-0.319,0.801-0.801V57.569c0-0.48-0.32-0.8-0.801-0.8h-11.764
		c-0.48,0-0.8,0.319-0.8,0.8l1.04,32.732c-0.08,0.641-0.16,0.801-0.56,0.801c-0.4,0-0.641-0.08-0.961-1.281L160.8,57.729
		c-0.16-0.48-0.4-0.96-0.88-0.96h-18.007c-0.48,0-0.8,0.319-0.8,0.8v52.818c0,0.481,0.32,0.801,0.8,0.801h11.524
		c0.479,0,0.8-0.319,0.8-0.801l-0.96-34.172c0-1.359,0.08-1.52,0.56-1.52c0.48,0,0.72,0.24,1.121,1.439l10.964,34.252
		c0.16,0.561,0.48,0.801,0.96,0.801H183.128L183.128,111.188z"/>
	<path fill="#E20613" d="M201.453,110.388c0,0.481,0.319,0.801,0.8,0.801h12.805c0.48,0,0.8-0.319,0.8-0.801V68.935
		c0-0.32,0.16-0.48,0.48-0.48h9.73c0.48,0,0.801-0.32,0.801-0.801V57.569c0-0.48-0.32-0.8-0.801-0.8h-34.906
		c-0.48,0-0.801,0.319-0.801,0.8v10.084c0,0.48,0.32,0.801,0.801,0.801h9.811c0.32,0,0.48,0.16,0.48,0.48V110.388L201.453,110.388z"
		/>
	<path fill="#E20613" d="M273.778,110.388c-1.6-7.201-10.163-40.894-13.364-52.818c-0.16-0.48-0.4-0.8-0.96-0.8h-20.567
		c-0.48,0-0.801,0.319-0.961,0.8c-3.281,11.765-11.364,42.896-13.685,52.818c-0.16,0.561,0.159,0.801,0.561,0.801h13.124
		c0.48,0,0.801-0.16,1.04-0.801l2.481-11.123c0.08-0.4,0.4-0.561,0.8-0.561h12.404c0.32,0,0.48,0,0.641,0.48l2.48,11.203
		c0.161,0.641,0.48,0.801,1.041,0.801h14.405C273.778,111.188,273.858,110.869,273.778,110.388L273.778,110.388z M253.852,87.581
		c0,0.319-0.16,0.4-0.32,0.4h-9.844c-0.239,0-0.319-0.081-0.319-0.4c0.56-3.281,2.961-14.486,4.161-19.047
		c0.08-0.24,0.32-0.32,1.28-0.32c1.041,0,1.201,0.08,1.28,0.32C251.131,73.095,253.291,84.3,253.852,87.581L253.852,87.581z"/>
	<path fill="#E20613" d="M280.629,110.388c0,0.481,0.32,0.801,0.801,0.801h27.414c0.479,0,0.8-0.319,0.8-0.801v-10.322
		c0-0.48-0.32-0.801-0.8-0.801h-13.329c-0.32,0-0.479-0.16-0.479-0.48V57.569c0-0.48-0.321-0.8-0.801-0.8H281.43
		c-0.48,0-0.801,0.319-0.801,0.8V110.388L280.629,110.388z"/>
	<path fill="#E20613" d="M315.878,110.388c0,0.481,0.32,0.801,0.801,0.801h30.73c0.48,0,0.801-0.319,0.801-0.801v-10.322
		c0-0.48-0.32-0.801-0.801-0.801h-16.486c-0.319,0-0.479-0.16-0.479-0.48v-9.363c0-0.32,0.16-0.48,0.479-0.48h14.006
		c0.48,0,0.8-0.319,0.8-0.799v-9.524c0-0.48-0.319-0.8-0.8-0.8h-14.006c-0.319,0-0.479-0.16-0.479-0.48v-8.482
		c0-0.321,0.16-0.48,0.479-0.48h15.446c0.48,0,0.8-0.32,0.8-0.801V57.569c0-0.48-0.319-0.8-0.8-0.8h-29.69
		c-0.48,0-0.801,0.319-0.801,0.8V110.388L315.878,110.388z"/>
</svg>
