<?xml version="1.0" standalone="no"?>
<!DOCTYPE svg PUBLIC "-//W3C//DTD SVG 20010904//EN"
 "http://www.w3.org/TR/2001/REC-SVG-20010904/DTD/svg10.dtd">
<svg version="1.0" xmlns="http://www.w3.org/2000/svg"
 width="848.000000pt" height="106.000000pt" viewBox="0 0 848.000000 106.000000"
 preserveAspectRatio="xMidYMid meet">

<g transform="translate(0.000000,106.000000) scale(0.100000,-0.100000)"
fill="#000000" stroke="none">
<path d="M1651 1004 c-142 -38 -264 -150 -322 -295 -26 -67 -36 -202 -20 -280
30 -143 137 -280 268 -342 66 -31 72 -32 198 -32 115 0 136 3 183 24 l52 23 0
75 0 74 -27 -19 c-77 -54 -171 -76 -261 -61 -191 30 -323 221 -291 420 19 119
86 213 191 270 58 31 69 34 153 33 72 0 100 -4 142 -23 29 -13 58 -29 64 -37
6 -8 15 -14 20 -14 14 0 11 136 -3 148 -7 5 -44 19 -82 31 -80 25 -185 27
-265 5z"/>
<path d="M5763 1009 c-139 -27 -244 -137 -260 -271 l-6 -49 59 3 59 3 7 45
c11 62 55 129 102 153 82 43 198 31 263 -26 43 -38 63 -81 63 -139 0 -87 -49
-147 -265 -328 -60 -51 -111 -95 -113 -99 -1 -4 13 -22 32 -40 31 -30 37 -33
53 -20 80 63 324 283 346 313 71 93 89 198 49 288 -57 129 -223 200 -389 167z"/>
<path d="M6568 1004 c-130 -31 -220 -106 -252 -208 -15 -46 -17 -89 -14 -288
l3 -233 29 -53 c64 -116 202 -179 365 -170 145 8 268 90 311 206 20 52 21 72
18 292 -3 233 -3 235 -30 286 -46 88 -140 152 -258 174 -67 13 -101 12 -172
-6z m217 -106 c38 -20 82 -64 103 -103 14 -25 18 -68 20 -250 l3 -220 -28 -55
c-48 -95 -156 -142 -273 -120 -69 13 -128 53 -160 110 -24 43 -25 53 -28 247
-4 241 5 286 66 346 22 21 57 45 78 53 50 18 177 13 219 -8z"/>
<path d="M7816 1009 c-93 -23 -169 -85 -194 -158 -29 -83 2 -183 69 -230 21
-14 38 -29 39 -32 0 -4 -13 -12 -29 -19 -46 -18 -108 -88 -126 -138 -46 -137
18 -283 153 -349 51 -25 67 -28 162 -28 87 0 113 4 152 22 96 44 168 134 183
230 14 91 -49 215 -132 259 l-42 22 40 31 c53 43 79 97 79 163 -1 95 -51 167
-145 209 -50 22 -157 31 -209 18z m150 -98 c155 -70 99 -283 -75 -283 -145 0
-219 153 -120 251 51 51 126 63 195 32z m-5 -382 c52 -16 108 -64 130 -113 61
-134 -41 -269 -202 -270 -106 0 -182 55 -208 152 -40 146 120 278 280 231z"/>
<path d="M795 723 c-137 -152 -317 -351 -399 -442 -82 -91 -160 -178 -174
-194 l-26 -27 80 0 81 0 138 155 139 155 198 0 198 0 0 -155 0 -155 60 0 60 0
0 470 0 470 -52 0 -53 0 -250 -277z m232 -240 c-2 -2 -68 -2 -146 -1 l-142 3
143 159 143 158 3 -157 c1 -87 1 -160 -1 -162z"/>
<path d="M2170 530 l0 -470 60 0 60 0 0 210 0 210 225 0 225 0 0 -210 0 -210
60 0 60 0 0 470 0 470 -60 0 -60 0 0 -200 0 -200 -225 0 -225 0 0 200 0 200
-60 0 -60 0 0 -470z"/>
<path d="M3030 530 l0 -470 285 0 285 0 0 60 0 60 -225 0 -225 0 0 150 0 150
225 0 225 0 0 60 0 60 -225 0 -226 0 3 143 3 142 215 3 c118 1 221 5 228 7 9
3 12 20 10 52 l-3 48 -287 3 -288 2 0 -470z"/>
<path d="M3760 530 l0 -470 60 0 60 0 2 341 3 341 120 -236 120 -236 45 0 45
0 122 238 123 237 0 -342 0 -343 60 0 60 0 0 470 0 471 -61 -3 -60 -3 -63
-120 c-35 -66 -99 -189 -143 -273 l-80 -154 -20 34 c-11 18 -76 142 -144 275
l-124 243 -62 0 -63 0 0 -470z"/>
<path d="M4760 530 l0 -470 60 0 60 0 0 155 0 155 198 -1 197 -1 138 -154 138
-154 75 0 c41 0 74 3 74 6 0 4 -42 52 -92 108 -198 218 -646 713 -693 767 -48
56 -52 57 -102 58 l-53 1 0 -470z m245 135 c55 -60 115 -127 134 -147 l35 -38
-147 0 -147 0 0 162 c0 135 2 160 13 148 7 -8 58 -64 112 -125z"/>
<path d="M7100 955 l0 -45 95 0 95 0 0 -425 0 -425 55 0 55 0 0 470 0 470
-150 0 -150 0 0 -45z"/>
<path d="M5840 110 l42 -50 149 0 149 0 0 50 0 50 -191 0 -191 0 42 -50z"/>
</g>
</svg>
