<?xml version="1.0" standalone="no"?>
<!DOCTYPE svg PUBLIC "-//W3C//DTD SVG 20010904//EN"
 "http://www.w3.org/TR/2001/REC-SVG-20010904/DTD/svg10.dtd">
<svg version="1.0" xmlns="http://www.w3.org/2000/svg"
 width="1772.000000pt" height="521.000000pt" viewBox="0 0 1772.000000 521.000000"
 preserveAspectRatio="xMidYMid meet">

<g transform="translate(0.000000,521.000000) scale(0.100000,-0.100000)"
fill="#000000" stroke="none">
<path d="M1451 2621 c-798 -1424 -1451 -2594 -1451 -2600 0 -8 161 -11 553
-11 l552 1 311 572 311 572 1019 0 1018 0 68 -460 c37 -253 74 -511 84 -572
l17 -113 509 0 c481 0 510 1 506 18 -3 9 -191 1179 -419 2599 l-414 2583 -606
0 -606 0 -1452 -2589z m2033 449 c82 -561 147 -1022 144 -1025 -3 -3 -322 -4
-711 -3 l-705 3 556 1022 c307 563 559 1023 562 1023 3 0 72 -459 154 -1020z"/>
<path d="M12065 5118 c-2 -7 -189 -904 -415 -1993 -226 -1089 -413 -1988 -416
-1998 -5 -16 16 -17 392 -15 l397 3 363 1745 c200 960 388 1863 417 2008 l55
262 -394 0 c-307 0 -396 -3 -399 -12z"/>
<path d="M13326 5103 c-3 -16 -190 -916 -416 -2001 -225 -1086 -410 -1978
-410 -1983 0 -5 166 -9 394 -9 l393 0 11 53 c6 28 191 920 412 1982 221 1062
404 1942 407 1958 l6 27 -396 0 -395 0 -6 -27z"/>
<path d="M17014 5061 c-143 -23 -297 -107 -379 -207 -53 -66 -109 -177 -130
-259 -19 -76 -19 -224 0 -300 54 -212 206 -375 409 -441 67 -22 100 -27 191
-27 94 0 122 4 190 27 197 68 337 208 398 401 18 57 22 93 22 195 -1 110 -4
134 -27 198 -70 194 -199 323 -388 386 -83 27 -207 39 -286 27z m290 -174
c311 -147 382 -535 144 -783 -71 -74 -153 -118 -262 -140 -72 -15 -86 -15
-159 -1 -105 21 -175 57 -251 128 -247 231 -189 636 112 788 86 44 122 51 238
47 93 -2 108 -6 178 -39z"/>
<path d="M16820 4440 l0 -330 75 0 75 0 0 135 0 135 26 0 c69 0 122 -55 195
-202 l33 -68 89 0 89 0 -38 68 c-52 95 -123 200 -140 210 -12 6 -6 13 25 26
94 43 135 148 96 243 -21 50 -42 72 -90 94 -34 16 -67 19 -237 19 l-198 0 0
-330z m330 207 c42 -14 66 -53 56 -90 -10 -42 -45 -58 -145 -64 l-91 -6 0 87
0 86 73 -1 c39 0 88 -5 107 -12z"/>
<path d="M7232 4085 c-210 -38 -396 -127 -599 -286 -37 -29 -63 -44 -63 -36 0
8 11 69 25 137 14 68 25 124 25 126 0 2 -169 4 -375 4 l-375 0 -5 -22 c-3 -13
-188 -907 -410 -1988 -223 -1081 -408 -1977 -411 -1993 l-6 -27 396 0 c218 0
396 2 396 4 0 2 68 335 150 739 83 405 150 739 150 742 0 4 20 -20 44 -52 104
-138 257 -258 404 -318 132 -54 222 -69 412 -69 191 -1 258 8 404 56 193 62
365 177 537 356 139 145 224 266 314 447 130 263 183 467 205 785 22 325 -25
651 -125 867 -100 217 -286 396 -496 478 -155 61 -415 83 -597 50z m43 -570
c296 -77 453 -385 406 -795 -36 -308 -166 -664 -306 -833 -139 -168 -320 -255
-505 -244 -100 6 -167 30 -253 90 -165 116 -253 304 -264 565 -7 157 6 265 53
450 71 280 155 446 298 588 98 97 184 149 296 178 73 19 202 20 275 1z"/>
<path d="M9890 4090 c-484 -67 -844 -298 -1097 -705 -194 -310 -285 -669 -270
-1055 16 -391 132 -682 366 -920 176 -178 376 -286 634 -342 87 -19 133 -22
312 -22 179 0 225 3 312 22 429 93 752 341 973 745 23 43 41 79 39 81 -5 3
-680 116 -695 116 -6 0 -36 -38 -68 -85 -109 -161 -255 -267 -412 -300 -204
-43 -378 7 -520 149 -121 121 -184 283 -184 472 l0 74 979 0 c924 0 980 1 985
18 16 52 37 215 45 348 30 496 -78 857 -333 1109 -148 147 -306 231 -526 280
-87 20 -435 29 -540 15z m282 -571 c182 -38 321 -177 373 -374 20 -77 38 -256
29 -301 l-6 -34 -603 0 -603 0 5 23 c33 148 87 288 147 381 100 157 259 271
431 309 40 9 175 7 227 -4z"/>
<path d="M15131 4084 c-396 -56 -688 -225 -878 -509 -61 -90 -154 -287 -142
-299 7 -7 749 -68 763 -63 8 3 17 19 21 36 11 52 83 148 142 191 94 67 164 85
333 85 126 -1 152 -3 201 -23 73 -29 134 -82 166 -146 34 -66 35 -155 4 -284
l-23 -92 -41 -11 c-131 -35 -355 -68 -647 -94 -476 -43 -717 -111 -917 -258
-125 -93 -236 -264 -285 -442 -19 -70 -22 -106 -22 -275 0 -185 1 -200 27
-285 110 -355 411 -574 788 -575 283 0 560 115 777 324 l72 69 0 -34 c0 -41
14 -126 36 -221 l16 -68 384 0 c211 0 384 3 384 8 0 4 -12 59 -27 122 -25 104
-28 133 -27 295 1 205 13 288 109 731 171 786 200 972 176 1146 -22 167 -89
297 -217 423 -119 117 -261 187 -474 232 -99 21 -147 25 -355 28 -176 3 -268
0 -344 -11z m479 -1621 c0 -24 -64 -280 -86 -348 -70 -212 -168 -326 -354
-414 -137 -65 -329 -80 -432 -34 -65 30 -133 95 -165 162 -24 47 -28 69 -28
136 1 96 30 170 92 231 103 104 336 177 738 234 83 11 166 25 185 29 47 12 50
12 50 4z"/>
<path d="M9579 657 c-106 -30 -171 -88 -222 -194 -80 -171 -52 -353 65 -430
37 -25 52 -28 145 -31 83 -3 117 0 171 17 121 37 124 40 150 177 13 65 26 129
29 142 l5 22 -150 0 -150 0 -7 -37 c-3 -21 -9 -48 -12 -60 -5 -22 -3 -23 77
-23 l83 0 -7 -31 c-3 -17 -6 -37 -6 -44 0 -17 -101 -47 -158 -48 -104 -1 -148
57 -139 182 11 147 88 241 204 248 70 5 114 -18 140 -71 16 -34 16 -34 72 -29
31 3 60 9 65 14 11 10 -8 64 -39 111 -51 76 -203 117 -316 85z"/>
<path d="M10785 661 c-41 -11 -87 -35 -107 -58 -43 -47 -59 -132 -37 -190 18
-47 50 -73 161 -129 115 -58 135 -78 117 -117 -16 -35 -53 -51 -115 -51 -71 1
-102 22 -110 75 l-7 41 -66 -6 c-36 -4 -67 -9 -69 -11 -9 -9 20 -110 40 -137
11 -17 44 -41 72 -54 42 -20 67 -24 147 -24 81 0 103 4 140 23 86 46 132 141
109 227 -16 60 -40 81 -167 145 -110 56 -118 62 -121 92 -4 42 26 63 91 63 40
0 53 -5 78 -29 16 -16 29 -37 29 -45 0 -13 13 -16 70 -16 76 0 77 0 60 62 -14
49 -53 94 -103 119 -44 23 -161 34 -212 20z"/>
<path d="M12998 654 c-125 -38 -175 -189 -96 -289 13 -17 64 -48 123 -76 115
-54 140 -76 131 -113 -9 -36 -48 -58 -104 -59 -77 -1 -111 18 -124 69 -13 48
-21 51 -100 38 -36 -6 -38 -9 -38 -44 0 -61 39 -121 99 -152 48 -25 64 -28
150 -28 72 0 106 5 136 19 133 61 168 235 64 314 -19 14 -72 43 -119 64 -47
22 -93 47 -102 57 -43 42 -5 96 67 96 59 0 100 -22 113 -60 11 -29 13 -30 76
-30 73 0 75 2 56 71 -30 108 -190 167 -332 123z"/>
<path d="M13650 657 c-97 -27 -182 -106 -222 -206 -19 -47 -23 -75 -23 -171 0
-105 2 -120 26 -165 15 -30 42 -62 68 -80 38 -27 52 -30 133 -34 109 -4 161
13 226 73 39 35 92 119 92 144 0 5 -31 13 -69 18 l-68 10 -23 -43 c-40 -76
-131 -109 -192 -69 -66 43 -77 182 -24 291 36 73 82 107 150 113 45 4 56 1 83
-22 17 -14 34 -37 37 -51 7 -27 26 -31 100 -18 38 6 38 6 33 46 -8 56 -53 116
-109 145 -57 29 -153 38 -218 19z"/>
<path d="M6177 383 c-86 -153 -167 -299 -182 -325 l-27 -48 76 0 75 0 38 70
38 70 121 0 122 0 8 -68 9 -67 68 -3 c37 -2 67 0 67 3 0 3 -22 146 -50 317
-27 171 -50 315 -50 319 0 5 -36 9 -79 9 l-79 0 -155 -277z m237 -85 l6 -38
-81 0 c-44 0 -79 4 -77 9 2 5 30 58 63 119 l60 111 12 -82 c6 -45 14 -99 17
-119z"/>
<path d="M6722 353 c-35 -170 -66 -316 -69 -326 -4 -16 2 -18 68 -15 l73 3 18
90 c17 89 18 91 74 142 31 29 61 50 66 47 5 -3 40 -68 78 -145 l70 -139 80 0
c44 0 80 2 80 4 0 2 -45 88 -100 190 -55 102 -100 189 -100 193 1 5 63 62 140
128 76 66 139 123 139 128 1 4 -40 7 -90 7 l-92 0 -94 -87 c-53 -49 -116 -107
-142 -130 l-47 -41 23 106 c34 160 36 152 -45 152 l-67 0 -63 -307z"/>
<path d="M7375 648 c-2 -7 -8 -34 -13 -60 l-10 -48 94 0 c93 0 94 0 89 -22 -3
-13 -26 -122 -51 -243 -25 -121 -47 -230 -51 -243 -5 -23 -4 -23 68 -20 l72 3
34 160 c18 88 42 206 54 263 l22 102 92 0 93 0 7 46 c3 26 9 53 12 60 4 12
-38 14 -251 14 -197 0 -258 -3 -261 -12z"/>
<path d="M7945 648 c-2 -7 -31 -148 -65 -313 -34 -165 -63 -306 -65 -312 -3
-10 15 -13 68 -13 l72 0 63 308 c35 169 66 315 68 325 5 15 -3 17 -66 17 -48
0 -72 -4 -75 -12z"/>
<path d="M8185 638 c-19 -83 -125 -603 -125 -614 0 -12 45 -14 249 -14 138 0
252 3 254 8 3 4 8 28 12 54 l7 48 -181 0 c-99 0 -181 3 -181 7 0 4 8 43 17 85
l16 78 167 0 167 0 10 55 10 55 -164 0 c-124 0 -163 3 -163 13 1 6 7 37 14 67
l12 55 171 3 171 2 11 51 c6 27 11 54 11 59 0 6 -95 10 -240 10 l-240 0 -5
-22z"/>
<path d="M8711 347 c-35 -171 -66 -318 -69 -324 -3 -10 14 -13 64 -13 l69 0
39 192 c21 106 42 196 45 200 3 4 42 -83 85 -192 l78 -200 69 0 c38 0 69 3 69
8 0 4 29 148 65 320 36 172 65 315 65 317 0 3 -29 5 -64 5 -42 0 -65 -4 -68
-12 -3 -7 -22 -97 -44 -200 -21 -104 -41 -188 -44 -188 -3 0 -41 90 -84 200
l-79 200 -66 0 -66 0 -64 -313z"/>
<path d="M10085 648 c-3 -7 -32 -146 -65 -308 -34 -162 -63 -303 -66 -312 -5
-17 11 -18 249 -18 l255 0 11 44 c6 25 11 50 11 55 0 7 -61 11 -184 11 l-183
0 14 63 c7 34 16 72 18 85 5 22 7 22 170 22 182 0 167 -6 181 73 l6 37 -164 0
-165 0 15 70 15 70 173 0 172 0 7 46 c3 26 9 53 12 60 4 12 -36 14 -236 14
-184 0 -243 -3 -246 -12z"/>
<path d="M11250 657 c0 -2 -29 -144 -65 -315 -36 -172 -65 -317 -65 -322 0 -6
93 -10 253 -10 l254 0 10 55 10 55 -185 0 -184 0 5 22 c3 13 11 51 18 86 l13
62 167 0 166 0 7 39 c3 22 9 46 12 55 5 14 -12 16 -161 16 l-167 0 7 33 c4 17
11 49 16 70 l10 37 169 0 168 0 11 50 c6 28 11 55 11 60 0 6 -95 10 -240 10
-132 0 -240 -2 -240 -3z"/>
<path d="M11835 648 c-2 -7 -31 -146 -65 -308 -33 -162 -62 -303 -64 -312 -4
-17 12 -18 229 -18 l233 0 11 50 c6 28 11 53 11 55 0 3 -72 5 -160 5 -88 0
-160 3 -160 6 0 6 94 463 105 512 5 21 3 22 -65 22 -48 0 -72 -4 -75 -12z"/>
<path d="M12370 657 c0 -2 -29 -144 -65 -315 -36 -172 -65 -317 -65 -322 0
-12 456 -14 463 -2 3 4 8 28 12 55 l7 47 -162 0 c-149 0 -161 1 -156 18 7 25
106 501 106 513 0 5 -31 9 -70 9 -38 0 -70 -2 -70 -3z"/>
<path d="M14115 648 c-2 -7 -31 -148 -65 -313 -34 -165 -63 -306 -65 -312 -3
-10 15 -13 68 -13 l73 0 28 140 29 140 117 0 118 0 -29 -138 c-16 -75 -29
-138 -29 -140 0 -2 32 -2 72 0 l71 3 63 300 c35 165 63 310 64 323 0 21 -4 22
-68 22 l-68 0 -25 -122 -25 -123 -117 -3 c-64 -1 -117 -1 -117 2 0 5 38 192
45 224 5 21 3 22 -65 22 -48 0 -72 -4 -75 -12z"/>
<path d="M14917 638 c-27 -42 -347 -618 -347 -623 0 -3 33 -5 73 -5 l73 0 38
70 37 70 119 0 c133 0 123 7 135 -87 l7 -53 69 0 69 0 -6 28 c-3 15 -26 160
-52 322 l-47 295 -77 3 c-71 3 -78 1 -91 -20z m83 -268 l16 -110 -82 0 -82 0
62 114 c33 63 63 112 65 110 2 -2 11 -53 21 -114z"/>
<path d="M15376 636 c-12 -47 -126 -604 -126 -615 0 -7 25 -11 69 -11 l69 0
10 48 c6 26 18 86 28 135 l17 87 153 0 c84 0 155 4 158 8 3 5 8 32 12 60 l7
52 -153 0 -152 0 7 33 c4 17 11 49 16 70 l10 37 154 0 c85 0 156 4 159 8 3 5
8 32 12 60 l7 52 -226 0 -225 0 -6 -24z"/>
<path d="M15865 614 c-3 -26 -9 -53 -12 -60 -4 -10 16 -14 89 -16 l94 -3 -52
-250 c-29 -137 -53 -256 -54 -262 0 -9 20 -13 69 -13 63 0 69 2 75 23 3 12 26
121 51 242 24 121 47 230 50 243 5 21 10 22 95 22 49 0 91 4 94 8 3 5 8 32 12
60 l7 52 -256 0 -255 0 -7 -46z"/>
</g>
</svg>
