<?xml version="1.0" encoding="UTF-8"?>
<!DOCTYPE svg PUBLIC "-//W3C//DTD SVG 1.1//EN" "http://www.w3.org/Graphics/SVG/1.1/DTD/svg11.dtd">
<svg xmlns="http://www.w3.org/2000/svg" xml:space="preserve" width="136px" height="136px" shape-rendering="geometricPrecision" text-rendering="geometricPrecision" image-rendering="optimizeQuality" fill-rule="nonzero" clip-rule="evenodd" viewBox="0 0 136 136" xmlns:xlink="http://www.w3.org/1999/xlink">
    <path id="a" fill="#252525" d="M68 0c37.555 0 68 30.444 68 68 0 37.555-30.445 68-68 68-37.556 0-68-30.445-68-68C0 30.444 30.444 0 68 0zm0 133c35.841 0 65-29.159 65-65 0-35.842-29.159-65-65-65C32.16 3 3 32.158 3 68c0 35.841 29.16 65 65 65zm27.091-92h.002L101 47.003 53.728 95 36 77l5.907-6 11.821 12.003L95.091 41z"/>
</svg>
