<?xml version="1.0" encoding="UTF-8"?>
<!DOCTYPE svg PUBLIC "-//W3C//DTD SVG 1.1//EN" "http://www.w3.org/Graphics/SVG/1.1/DTD/svg11.dtd">
<svg xmlns="http://www.w3.org/2000/svg" xml:space="preserve" width="97.795px" height="20.079px" shape-rendering="geometricPrecision" text-rendering="geometricPrecision" image-rendering="optimizeQuality" fill-rule="nonzero" clip-rule="evenodd" viewBox="0 0 97.795 20.079" xmlns:xlink="http://www.w3.org/1999/xlink">
<path fill="#252525" d="M1.75,12.422V4.765H0v-1.58h1.75V0.973L4.036,0v3.185H6.15v1.58H4.036v7.39
	c0,1.168,0.17,1.701,1.337,1.701c0.122,0,0.413-0.023,0.875-0.072v1.653c-0.34,0.073-0.899,0.098-1.507,0.098
	C2.333,15.534,1.75,14.756,1.75,12.422z"/>
<path fill="#252525" d="M8.022,9.65c0-3.646,0.462-6.709,4.473-6.709c3.792,0,4.181,2.917,4.084,6.661h-6.272
	c0,3.015,0.195,4.546,2.042,4.546c1.289,0,1.945-0.875,1.969-2.602l2.164,0.293c-0.219,2.624-1.386,3.84-4.133,3.84
	C8.508,15.68,8.022,13.249,8.022,9.65z M10.307,8.168h3.987c0.097-1.822-0.17-3.646-1.872-3.646
	C10.599,4.522,10.332,6.102,10.307,8.168z"/>
<path fill="#252525" d="M21.368,8.946l-3.039-5.762h2.625l1.824,4.327l1.896-4.327h2.333l-3.062,5.786l3.403,6.466h-2.577
	l-2.212-4.959l-2.309,4.959h-2.31L21.368,8.946z"/>
<path fill="#252525" d="M29.511,6.004c0-1.336-0.025-2.285-0.098-2.819h2.237l0.049,1.458C32.355,3.5,33.4,2.941,34.762,2.941
	c3.379,0,3.476,3.209,3.476,6.248c0,3.281-0.315,6.49-3.646,6.49c-1.264,0-2.212-0.56-2.795-1.508v5.907h-2.285V6.004z
	 M35.928,9.115c0-1.92,0.049-4.593-2.017-4.593c-2.164,0-2.164,2.819-2.164,4.909c0,2.092,0.097,4.692,2.188,4.692
	C35.953,14.124,35.928,11.012,35.928,9.115z"/>
<path fill="#252525" d="M40.863,5.397c0-0.583-0.024-1.313-0.098-2.213h2.212l0.073,1.677c0.632-1.287,1.653-1.92,3.087-1.92
	h0.194v2.115c-0.122-0.023-0.34-0.049-0.438-0.049c-1.823,0-2.747,1.143-2.747,3.111v7.317h-2.285V5.397z"/>
<path fill="#252525" d="M47.792,9.408c0-3.744,0.583-6.467,4.497-6.467c3.914,0,4.278,2.432,4.278,6.199
	c0,3.841-0.316,6.539-4.375,6.539C48.181,15.68,47.792,13.249,47.792,9.408z M54.258,9.311c0-2.115,0.267-4.788-2.018-4.788
	c-2.334,0-2.139,2.771-2.139,4.861c0,2.966,0.073,4.765,2.09,4.765C54.136,14.148,54.258,12.544,54.258,9.311z"/>
<path fill="#252525" d="M58.949,9.65c0-3.694,0.414-6.709,4.449-6.709c2.796,0,3.865,1.143,3.962,3.792l-2.212,0.341
	c0-1.385-0.292-2.552-1.774-2.552c-2.14,0-2.115,2.673-2.115,4.764c0,2.845,0.122,4.862,2.042,4.862
	c1.24,0,1.872-0.875,1.896-2.698l2.188,0.364c-0.097,2.576-1.24,3.865-4.06,3.865C59.484,15.68,58.949,13.346,58.949,9.65z"/>
<path fill="#252525" d="M69.451,9.65c0-3.646,0.462-6.709,4.473-6.709c3.792,0,4.182,2.917,4.084,6.661h-6.271
	c0,3.015,0.194,4.546,2.042,4.546c1.289,0,1.945-0.875,1.969-2.602l2.164,0.293c-0.219,2.624-1.386,3.84-4.133,3.84
	C69.937,15.68,69.451,13.249,69.451,9.65z M71.736,8.168h3.987c0.097-1.822-0.17-3.646-1.872-3.646
	C72.028,4.522,71.76,6.102,71.736,8.168z"/>
<path fill="#252525" d="M80.146,12.009l2.286-0.34c0,1.58,0.534,2.479,1.702,2.479c1.118,0,1.701-0.584,1.701-1.75
	c0-1.41-0.875-1.775-2.358-2.577c-1.993-1.094-3.087-1.629-3.087-3.599c0-2.236,1.677-3.281,3.865-3.281
	c2.504,0,3.623,0.996,3.744,3.331l-2.261,0.315C85.859,4.96,85.105,4.4,84.158,4.4c-0.997,0-1.507,0.535-1.507,1.556
	c0,1.191,1.045,1.652,2.552,2.479c1.872,1.021,2.893,1.555,2.893,3.623c0,2.405-1.361,3.621-4.06,3.621
	S80.123,14.318,80.146,12.009z"/>
<path fill="#252525" d="M89.846,12.009l2.286-0.34c0,1.58,0.535,2.479,1.702,2.479c1.118,0,1.702-0.584,1.702-1.75
	c0-1.41-0.875-1.775-2.358-2.577c-1.993-1.094-3.087-1.629-3.087-3.599c0-2.236,1.677-3.281,3.865-3.281
	c2.504,0,3.623,0.996,3.744,3.331l-2.261,0.315C95.559,4.96,94.805,4.4,93.857,4.4c-0.997,0-1.507,0.535-1.507,1.556
	c0,1.191,1.045,1.652,2.552,2.479c1.872,1.021,2.893,1.555,2.893,3.623c0,2.405-1.362,3.621-4.06,3.621
	S89.822,14.318,89.846,12.009z"/>
</svg>
