<?xml version="1.0" encoding="utf-8"?>
<!-- Generator: Adobe Illustrator 12.0.1, SVG Export Plug-In . SVG Version: 6.00 Build 51448)  -->
<!DOCTYPE svg PUBLIC "-//W3C//DTD SVG 1.1//EN" "http://www.w3.org/Graphics/SVG/1.1/DTD/svg11.dtd" [
	<!ENTITY ns_svg "http://www.w3.org/2000/svg">
	<!ENTITY ns_xlink "http://www.w3.org/1999/xlink">
]>
<svg  version="1.1" id="Ebene_1" xmlns="&ns_svg;" xmlns:xlink="&ns_xlink;" width="131.245" height="19.212"
	 viewBox="0 0 131.245 19.212" overflow="visible" enable-background="new 0 0 131.245 19.212" xml:space="preserve">
<polygon fill="#1B171B" points="21.404,11.738 23.893,11.738 23.893,12.138 21.864,12.138 21.864,13.034 23.832,13.034 
	23.832,13.434 21.864,13.434 21.864,14.436 23.936,14.436 23.936,14.835 21.404,14.835 "/>
<polygon fill="#1B171B" points="26.069,12.563 26.646,12.563 25.692,13.659 26.715,14.835 26.108,14.835 25.394,13.972 
	24.673,14.835 24.101,14.835 25.111,13.659 24.174,12.563 24.765,12.563 25.411,13.343 "/>
<g>
	<rect x="0" fill="none" width="131.244" height="19.211"/>
	<path fill="#1B171B" d="M26.958,11.712h0.434v1.193H27.4c0.204-0.316,0.564-0.421,0.889-0.421c0.547,0,0.954,0.233,0.954,0.802
		v1.549H28.81v-1.461c0-0.334-0.209-0.525-0.673-0.525c-0.394,0-0.745,0.23-0.745,0.676v1.311h-0.434V11.712z"/>
	<path fill="#1B171B" d="M29.772,11.712h0.434v0.477h-0.434V11.712z M29.772,12.562h0.434v2.272h-0.434V12.562z"/>
	<path fill="#1B171B" d="M30.735,11.712h0.434v1.193h0.008c0.174-0.273,0.525-0.395,0.863-0.395c0.685,0,1.236,0.438,1.236,1.201
		c0,0.763-0.551,1.201-1.236,1.201c-0.334,0-0.693-0.131-0.863-0.369h-0.008v0.291h-0.434V11.712z M31.984,12.874
		c-0.507,0-0.842,0.317-0.842,0.838c0,0.429,0.252,0.836,0.842,0.836c0.585,0,0.833-0.407,0.833-0.836
		C32.817,13.191,32.487,12.874,31.984,12.874"/>
	<path fill="#1B171B" d="M33.705,11.712h0.434v0.477h-0.434V11.712z M33.705,12.562h0.434v2.272h-0.434V12.562z"/>
	<path fill="#1B171B" d="M34.858,11.864h0.434v0.697h0.65V12.9h-0.65v1.401c0,0.182,0.13,0.246,0.351,0.246
		c0.1,0,0.199-0.013,0.299-0.029v0.363c-0.147,0.026-0.308,0.03-0.486,0.03c-0.425,0-0.598-0.208-0.598-0.537V12.9H34.39v-0.339
		h0.468V11.864z"/>
	<path fill="#1B171B" d="M36.271,11.712h0.434v0.477h-0.434V11.712z M36.271,12.562h0.434v2.272h-0.434V12.562z"/>
	<path fill="#1B171B" d="M38.453,12.484c0.885,0,1.318,0.56,1.318,1.214c0,0.655-0.433,1.215-1.318,1.215
		c-0.884,0-1.318-0.56-1.318-1.215C37.135,13.044,37.568,12.484,38.453,12.484 M38.453,12.849c-0.629,0-0.858,0.438-0.858,0.85
		s0.229,0.85,0.858,0.85s0.859-0.438,0.859-0.85S39.082,12.849,38.453,12.849"/>
	<path fill="#1B171B" d="M40.2,12.563h0.434v0.343h0.008c0.204-0.316,0.564-0.421,0.889-0.421c0.546,0,0.954,0.233,0.954,0.802
		v1.549h-0.434v-1.462c0-0.334-0.208-0.524-0.672-0.524c-0.394,0-0.745,0.229-0.745,0.676v1.311H40.2V12.563z"/>
	<path fill="#1B171B" d="M45.403,14.483c-0.234,0.286-0.668,0.43-1.101,0.43c-0.933,0-1.223-0.513-1.223-0.925
		c0-0.385,0.23-0.724,0.806-0.923c-0.273-0.243-0.338-0.455-0.338-0.629c0-0.416,0.291-0.698,0.802-0.698
		c0.486,0,0.785,0.304,0.785,0.673c0,0.242-0.143,0.537-0.598,0.719l0.819,0.76c0.087-0.143,0.126-0.27,0.143-0.482h0.408
		c-0.009,0.239-0.069,0.494-0.256,0.756l0.729,0.672h-0.603L45.403,14.483z M44.132,13.309c-0.481,0.203-0.594,0.42-0.594,0.667
		c0,0.252,0.178,0.572,0.785,0.572c0.304,0,0.612-0.073,0.794-0.316L44.132,13.309z M44.28,12.9
		c0.325-0.135,0.447-0.308,0.447-0.464c0-0.178-0.157-0.334-0.373-0.334c-0.278,0-0.399,0.156-0.399,0.313
		C43.955,12.566,44.063,12.702,44.28,12.9"/>
	<path fill="#1B171B" d="M49.162,12.853c-0.069-0.429-0.408-0.793-1.058-0.793c-0.733,0-1.197,0.42-1.197,1.266
		c0,0.586,0.317,1.188,1.171,1.188c0.542,0,0.954-0.26,1.084-0.862h0.459c-0.073,0.685-0.663,1.262-1.547,1.262
		c-0.781,0-1.626-0.43-1.626-1.635c0-0.902,0.563-1.617,1.621-1.617c0.62,0,1.474,0.264,1.552,1.191H49.162z"/>
	<path fill="#1B171B" d="M51.3,12.484c0.885,0,1.318,0.56,1.318,1.214c0,0.655-0.433,1.215-1.318,1.215
		c-0.884,0-1.318-0.56-1.318-1.215C49.982,13.044,50.416,12.484,51.3,12.484 M51.3,12.849c-0.628,0-0.858,0.438-0.858,0.85
		s0.23,0.85,0.858,0.85c0.629,0,0.859-0.438,0.859-0.85S51.929,12.849,51.3,12.849"/>
	<path fill="#1B171B" d="M53.047,12.563h0.434v0.343h0.008c0.204-0.316,0.564-0.421,0.889-0.421c0.546,0,0.954,0.233,0.954,0.802
		v1.549h-0.434v-1.462c0-0.334-0.208-0.524-0.672-0.524c-0.394,0-0.745,0.229-0.745,0.676v1.311h-0.434V12.563z"/>
	<path fill="#1B171B" d="M55.996,12.224c0-0.42,0.26-0.563,0.698-0.563c0.135,0,0.252,0.022,0.377,0.035v0.338
		c-0.082-0.004-0.164-0.009-0.242-0.009c-0.283,0-0.4,0.035-0.4,0.222v0.315h0.642V12.9h-0.642v1.934h-0.433V12.9h-0.464v-0.339
		h0.464V12.224z"/>
	<path fill="#1B171B" d="M57.666,13.828c0.034,0.47,0.451,0.72,0.837,0.72c0.247,0,0.585-0.082,0.732-0.402h0.46
		c-0.217,0.546-0.724,0.767-1.171,0.767c-0.885,0-1.318-0.56-1.318-1.214c0-0.655,0.433-1.214,1.318-1.214
		c0.599,0,1.231,0.347,1.231,1.288v0.056H57.666z M59.295,13.49c-0.065-0.412-0.386-0.642-0.793-0.642
		c-0.399,0-0.759,0.234-0.824,0.642H59.295z"/>
	<path fill="#1B171B" d="M60.197,12.563h0.434v0.416h0.009c0.203-0.36,0.494-0.494,0.78-0.494c0.108,0,0.165,0.004,0.247,0.026
		v0.468c-0.108-0.026-0.191-0.043-0.308-0.043c-0.429,0-0.728,0.252-0.728,0.745v1.154h-0.434V12.563z"/>
	<path fill="#1B171B" d="M62.322,13.828c0.034,0.47,0.451,0.72,0.836,0.72c0.248,0,0.586-0.082,0.733-0.402h0.46
		c-0.217,0.546-0.724,0.767-1.171,0.767c-0.884,0-1.318-0.56-1.318-1.214c0-0.655,0.434-1.214,1.318-1.214
		c0.599,0,1.232,0.347,1.232,1.288v0.056H62.322z M63.952,13.49c-0.065-0.412-0.386-0.642-0.794-0.642
		c-0.398,0-0.758,0.234-0.824,0.642H63.952z"/>
	<path fill="#1B171B" d="M64.854,12.563h0.434v0.343h0.009c0.203-0.316,0.563-0.421,0.89-0.421c0.545,0,0.953,0.233,0.953,0.802
		v1.549h-0.435v-1.462c0-0.334-0.207-0.524-0.671-0.524c-0.395,0-0.746,0.229-0.746,0.676v1.311h-0.434V12.563z"/>
	<path fill="#1B171B" d="M69.988,14.002c-0.183,0.681-0.595,0.911-1.185,0.911c-0.902,0-1.236-0.612-1.236-1.202
		c0-0.672,0.412-1.228,1.232-1.228c0.607,0,1.088,0.274,1.18,0.838H69.52c-0.053-0.295-0.287-0.474-0.69-0.474
		c-0.556,0-0.802,0.365-0.802,0.851c0,0.486,0.246,0.85,0.802,0.85c0.39,0,0.603-0.169,0.698-0.546H69.988z"/>
	<path fill="#1B171B" d="M70.759,13.828c0.035,0.47,0.451,0.72,0.837,0.72c0.247,0,0.585-0.082,0.732-0.402h0.459
		c-0.217,0.546-0.723,0.767-1.17,0.767c-0.885,0-1.318-0.56-1.318-1.214c0-0.655,0.434-1.214,1.318-1.214
		c0.599,0,1.231,0.347,1.231,1.288v0.056H70.759z M72.389,13.49c-0.064-0.412-0.386-0.642-0.793-0.642
		c-0.398,0-0.759,0.234-0.824,0.642H72.389z"/>
	<line fill="none" stroke="#1B171B" stroke-width="0.353" stroke-miterlimit="10" x1="18.315" y1="19.173" x2="18.315" y2="18.82"/>
	<line fill="none" stroke="#1B171B" stroke-width="0.353" stroke-miterlimit="10" x1="19.226" y1="19.173" x2="19.226" y2="18.82"/>
	<line fill="none" stroke="#1B171B" stroke-width="0.353" stroke-miterlimit="10" x1="20.14" y1="19.173" x2="20.14" y2="18.82"/>
	<path fill="#1B171B" d="M21.712,17.235h-0.27v-0.331h0.27V17.235z M21.442,17.53h0.27v1.643h-0.27V17.53z"/>
	<path fill="#1B171B" d="M22.538,17.53h0.327v0.238h-0.327v1.02c0,0.127,0.035,0.146,0.203,0.146h0.124v0.238h-0.206
		c-0.28,0-0.391-0.058-0.391-0.359v-1.045h-0.279V17.53h0.279v-0.492h0.27V17.53z"/>
	<polygon fill="#1B171B" points="23.423,16.848 23.77,16.848 23.354,17.302 23.15,17.302 	"/>
	<path fill="#1B171B" d="M24.096,18.655c0.01,0.242,0.222,0.317,0.442,0.317c0.168,0,0.397-0.038,0.397-0.245
		c0-0.422-1.074-0.137-1.074-0.768c0-0.331,0.324-0.469,0.613-0.469c0.368,0,0.648,0.115,0.673,0.516h-0.27
		c-0.015-0.209-0.206-0.275-0.381-0.275c-0.162,0-0.349,0.043-0.349,0.209c0,0.19,0.286,0.229,0.537,0.285
		c0.27,0.062,0.537,0.153,0.537,0.467c0,0.395-0.366,0.519-0.699,0.519c-0.369,0-0.68-0.149-0.696-0.556H24.096z"/>
	<path fill="#1B171B" d="M27.916,19.167c-0.047,0.027-0.114,0.043-0.193,0.043c-0.14,0-0.229-0.075-0.229-0.254
		c-0.149,0.179-0.35,0.254-0.578,0.254c-0.299,0-0.543-0.129-0.543-0.459c0-0.373,0.276-0.455,0.556-0.506
		c0.295-0.061,0.552-0.035,0.552-0.242c0-0.237-0.197-0.272-0.365-0.272c-0.229,0-0.397,0.07-0.41,0.312h-0.27
		c0.016-0.406,0.327-0.549,0.696-0.549c0.295,0,0.616,0.065,0.616,0.45v0.845c0,0.127,0,0.185,0.086,0.185
		c0.025,0,0.054-0.006,0.082-0.017V19.167z M27.478,18.325c-0.21,0.155-0.819,0.002-0.819,0.405c0,0.179,0.152,0.242,0.317,0.242
		c0.356,0,0.502-0.22,0.502-0.372V18.325z"/>
	<path fill="#1B171B" d="M29.278,18.655c0.01,0.242,0.222,0.317,0.442,0.317c0.168,0,0.397-0.038,0.397-0.245
		c0-0.422-1.074-0.137-1.074-0.768c0-0.331,0.324-0.469,0.613-0.469c0.368,0,0.648,0.115,0.673,0.516h-0.27
		c-0.015-0.209-0.206-0.275-0.381-0.275c-0.162,0-0.349,0.043-0.349,0.209c0,0.19,0.286,0.229,0.537,0.285
		c0.27,0.062,0.537,0.153,0.537,0.467c0,0.395-0.366,0.519-0.699,0.519c-0.369,0-0.68-0.149-0.696-0.556H29.278z"/>
	<path fill="#1B171B" d="M30.732,17.53h0.254v0.242h0.006c0.124-0.188,0.299-0.28,0.531-0.28c0.203,0,0.384,0.076,0.451,0.28
		c0.111-0.178,0.302-0.28,0.515-0.28c0.327,0,0.546,0.136,0.546,0.476v1.205h-0.27v-1.076c0-0.204-0.054-0.366-0.318-0.366
		c-0.263,0-0.429,0.165-0.429,0.42v1.022h-0.27v-1.076c0-0.213-0.066-0.366-0.308-0.366c-0.318,0-0.438,0.293-0.438,0.42v1.022
		h-0.27V17.53z"/>
	<path fill="#1B171B" d="M34.924,19.167c-0.048,0.027-0.114,0.043-0.194,0.043c-0.14,0-0.228-0.075-0.228-0.254
		c-0.15,0.179-0.35,0.254-0.578,0.254c-0.299,0-0.544-0.129-0.544-0.459c0-0.373,0.277-0.455,0.556-0.506
		c0.296-0.061,0.553-0.035,0.553-0.242c0-0.237-0.197-0.272-0.365-0.272c-0.229,0-0.398,0.07-0.41,0.312h-0.27
		c0.016-0.406,0.327-0.549,0.695-0.549c0.296,0,0.617,0.065,0.617,0.45v0.845c0,0.127,0,0.185,0.085,0.185
		c0.026,0,0.054-0.006,0.083-0.017V19.167z M34.486,18.325c-0.21,0.155-0.82,0.002-0.82,0.405c0,0.179,0.153,0.242,0.318,0.242
		c0.356,0,0.502-0.22,0.502-0.372V18.325z"/>
	<path fill="#1B171B" d="M35.196,17.53h0.254v0.346h0.006c0.13-0.266,0.311-0.393,0.604-0.384v0.286
		c-0.435,0-0.594,0.245-0.594,0.664v0.73h-0.27V17.53z"/>
	<path fill="#1B171B" d="M36.669,17.53h0.327v0.238h-0.327v1.02c0,0.127,0.035,0.146,0.203,0.146h0.124v0.238h-0.206
		c-0.279,0-0.391-0.058-0.391-0.359v-1.045h-0.279V17.53h0.279v-0.492h0.27V17.53z"/>
	<path fill="#1B171B" d="M38.727,18.651c-0.072,0.366-0.33,0.559-0.702,0.559c-0.524,0-0.772-0.365-0.788-0.863
		c0-0.495,0.325-0.854,0.772-0.854c0.582,0,0.76,0.543,0.744,0.94h-1.229c-0.01,0.285,0.152,0.54,0.511,0.54
		c0.226,0,0.378-0.105,0.426-0.321H38.727z M38.467,18.194c-0.016-0.257-0.203-0.464-0.473-0.464c-0.28,0-0.455,0.21-0.47,0.464
		H38.467z"/>
	<path fill="#1B171B" d="M39.054,17.53h0.254v0.346h0.006c0.13-0.266,0.311-0.393,0.604-0.384v0.286
		c-0.435,0-0.594,0.245-0.594,0.664v0.73h-0.27V17.53z"/>
	<polygon fill="#1B171B" points="42.693,19.173 42.407,19.173 42.074,17.866 42.067,17.866 41.737,19.173 41.445,19.173 
		40.917,17.53 41.216,17.53 41.588,18.874 41.594,18.874 41.924,17.53 42.22,17.53 42.563,18.874 42.569,18.874 42.938,17.53 
		43.217,17.53 	"/>
	<path fill="#1B171B" d="M44.213,17.492c0.521,0,0.797,0.378,0.797,0.86c0,0.479-0.276,0.859-0.797,0.859s-0.797-0.38-0.797-0.859
		C43.417,17.87,43.692,17.492,44.213,17.492 M44.213,18.972c0.283,0,0.511-0.222,0.511-0.619c0-0.396-0.228-0.622-0.511-0.622
		c-0.283,0-0.511,0.226-0.511,0.622C43.703,18.75,43.931,18.972,44.213,18.972"/>
	<path fill="#1B171B" d="M45.35,17.53h0.254v0.346h0.006c0.13-0.266,0.311-0.393,0.604-0.384v0.286
		c-0.435,0-0.594,0.245-0.594,0.664v0.73h-0.27V17.53z"/>
	<line fill="none" stroke="#1B171B" stroke-width="0.27" stroke-miterlimit="10" x1="46.6" y1="19.172" x2="46.6" y2="16.904"/>
	<path fill="#1B171B" d="M48.653,19.173h-0.271V18.95h-0.006c-0.089,0.182-0.295,0.262-0.524,0.262
		c-0.505,0-0.756-0.402-0.756-0.865s0.248-0.854,0.75-0.854c0.165,0,0.413,0.063,0.53,0.257h0.006v-0.845h0.271V19.173z
		 M47.89,18.972c0.365,0,0.502-0.313,0.502-0.619c0-0.32-0.146-0.622-0.518-0.622c-0.368,0-0.492,0.315-0.492,0.636
		C47.382,18.675,47.541,18.972,47.89,18.972"/>
	<path fill="#E10627" d="M26.597,5.325c0,0.777-0.354,1.135-1.089,1.135h-2.787v0.332c0,0.227,0.106,0.34,0.318,0.34h3.487v1.441
		h-3.607c-1.054,0-1.585-0.524-1.585-1.581V4.818c0-0.969,0.531-1.449,1.585-1.449h2.589c0.728,0,1.089,0.401,1.089,1.213V5.325z
		 M23.039,4.722c-0.212,0-0.318,0.122-0.318,0.375v0.359h2.221c0.177,0,0.269-0.131,0.269-0.385c0-0.236-0.092-0.349-0.269-0.349
		H23.039z"/>
	<path fill="#E10627" d="M34.815,8.573h-1.387v-3.51c0-0.227-0.105-0.341-0.318-0.341h-1.287v3.851H30.43V4.722h-1.613v3.851h-1.38
		V3.369h5.673c1.139,0,1.705,0.567,1.705,1.711V8.573z"/>
	<path fill="#E10627" d="M41.257,6.861c0,1.144-0.565,1.712-1.704,1.712h-2.186c-1.138,0-1.705-0.568-1.705-1.712V1.412h1.38v1.957
		h2.511c1.139,0,1.704,0.567,1.704,1.711V6.861z M37.042,4.722v2.061c0,0.236,0.106,0.349,0.325,0.349h2.186
		c0.212,0,0.318-0.113,0.318-0.349v-1.72c0-0.228-0.106-0.341-0.318-0.341H37.042z"/>
	<path fill="#E10627" d="M47.368,5.325c0,0.777-0.354,1.135-1.089,1.135h-2.787v0.332c0,0.227,0.106,0.34,0.318,0.34h3.487v1.441
		H43.69c-1.054,0-1.585-0.524-1.585-1.581V4.818c0-0.969,0.531-1.449,1.585-1.449h2.589c0.728,0,1.089,0.401,1.089,1.213V5.325z
		 M43.81,4.722c-0.212,0-0.318,0.122-0.318,0.375v0.359h2.221c0.176,0,0.268-0.131,0.268-0.385c0-0.236-0.092-0.349-0.268-0.349
		H43.81z"/>
	<path fill="#E10627" d="M53.804,6.861c0,1.144-0.566,1.712-1.705,1.712h-2.185c-1.139,0-1.705-0.568-1.705-1.712V5.08
		c0-1.144,0.566-1.711,1.705-1.711h2.511V1.412h1.379V6.861z M49.914,4.722c-0.212,0-0.318,0.113-0.318,0.341v1.72
		c0,0.236,0.106,0.349,0.318,0.349h2.185c0.219,0,0.326-0.113,0.326-0.349V4.722H49.914z"/>
	<path fill="#E10627" d="M60.247,6.861c0,1.144-0.565,1.712-1.704,1.712h-2.186c-1.139,0-1.705-0.568-1.705-1.712V5.08
		c0-1.144,0.566-1.711,1.705-1.711h2.511V1.412h1.379V6.861z M56.356,4.722c-0.212,0-0.318,0.113-0.318,0.341v1.72
		c0,0.236,0.106,0.349,0.318,0.349h2.186c0.219,0,0.325-0.113,0.325-0.349V4.722H56.356z"/>
	<path fill="#E10627" d="M66.358,5.325c0,0.777-0.354,1.135-1.089,1.135h-2.787v0.332c0,0.227,0.106,0.34,0.318,0.34h3.487v1.441
		h-3.608c-1.053,0-1.584-0.524-1.584-1.581V4.818c0-0.969,0.531-1.449,1.584-1.449h2.59c0.728,0,1.089,0.401,1.089,1.213V5.325z
		 M62.8,4.722c-0.212,0-0.318,0.122-0.318,0.375v0.359h2.22c0.177,0,0.269-0.131,0.269-0.385c0-0.236-0.092-0.349-0.269-0.349H62.8z
		"/>
	<path fill="#E10627" d="M72.793,6.861c0,1.144-0.566,1.712-1.705,1.712h-2.186c-1.139,0-1.705-0.568-1.705-1.712V5.08
		c0-1.144,0.566-1.711,1.705-1.711h2.512V1.412h1.379V6.861z M68.903,4.722c-0.212,0-0.318,0.113-0.318,0.341v1.72
		c0,0.236,0.106,0.349,0.318,0.349h2.186c0.22,0,0.326-0.113,0.326-0.349V4.722H68.903z"/>
	<path fill="#1B171B" d="M81.791,7.726c-0.107,0.533-0.439,0.847-0.835,0.847h-1.004c-0.475,0-0.885-0.349-1.02-0.838L78.12,4.722
		h-0.284l-0.813,3.013c-0.134,0.489-0.537,0.838-1.011,0.838h-1.005c-0.396,0-0.729-0.314-0.834-0.847l-0.863-4.358h1.485
		l0.509,3.423c0.036,0.228,0.121,0.341,0.255,0.341h0.149c0.119,0,0.212-0.113,0.275-0.332l0.955-3.432h2.079L79.979,6.8
		c0.063,0.219,0.155,0.332,0.276,0.332h0.147c0.135,0,0.221-0.113,0.256-0.341l0.494-3.423h1.486L81.791,7.726z"/>
	<path fill="#1B171B" d="M88.594,6.879c0,1.126-0.566,1.694-1.705,1.694h-2.187c-1.139,0-1.705-0.568-1.705-1.712V5.08
		c0-1.144,0.566-1.711,1.705-1.711h2.187c1.139,0,1.705,0.567,1.705,1.711V6.879z M84.703,4.722c-0.212,0-0.317,0.113-0.317,0.341
		v1.72c0,0.236,0.105,0.349,0.317,0.349h2.187c0.219,0,0.324-0.113,0.324-0.332V5.063c0-0.228-0.105-0.341-0.324-0.341H84.703z"/>
	<path fill="#1B171B" d="M92.978,4.722h-1.832c-0.214,0-0.318,0.113-0.318,0.341v3.51h-1.386V5.08c0-1.144,0.564-1.711,1.704-1.711
		h1.832V4.722z"/>
	<line fill="none" stroke="#1B171B" stroke-width="1.379" stroke-miterlimit="10" x1="94.297" y1="8.573" x2="94.297" y2="1.412"/>
	<path fill="#1B171B" d="M101.422,6.861c0,1.144-0.565,1.712-1.704,1.712h-2.187c-1.139,0-1.705-0.568-1.705-1.712V5.08
		c0-1.144,0.566-1.711,1.705-1.711h2.512V1.412h1.379V6.861z M97.532,4.722c-0.211,0-0.318,0.113-0.318,0.341v1.72
		c0,0.236,0.107,0.349,0.318,0.349h2.187c0.218,0,0.325-0.113,0.325-0.349V4.722H97.532z"/>
	<path fill="#E4373A" d="M15.662,2.704c0.373,0.11,0.684,0.63,0.69,1.157l0.078,6.071c0.007,0.526-0.292,0.866-0.666,0.757
		l-4.308-1.27c-0.374-0.111-0.685-0.63-0.692-1.157l-0.078-6.072c-0.006-0.526,0.293-0.866,0.667-0.756L15.662,2.704z"/>
	<path fill="#E10627" d="M15.765,10.688l-4.308-1.27c-0.161-0.047-0.309-0.17-0.427-0.335c-0.051-0.072-0.097-0.154-0.136-0.24
		l-5.778,1.785c0.039,0.086,0.084,0.166,0.136,0.238c0.118,0.167,0.266,0.289,0.426,0.335l4.309,1.271
		c0.094,0.028,0.183,0.026,0.263,0.002l5.779-1.784C15.948,10.716,15.858,10.716,15.765,10.688"/>
	<path fill="#D30029" d="M10.793,1.695c0.038-0.071,0.085-0.13,0.138-0.176c0.048-0.04,0.101-0.07,0.158-0.087L5.312,3.215
		c-0.057,0.018-0.11,0.048-0.158,0.088c-0.053,0.046-0.1,0.105-0.138,0.176c-0.07,0.131-0.11,0.3-0.107,0.495l0.078,6.088h0.001
		C4.99,10.153,5,10.245,5.02,10.333c0.022,0.103,0.055,0.203,0.096,0.293l5.778-1.782C10.853,8.75,10.82,8.651,10.798,8.55
		c-0.02-0.094-0.032-0.191-0.033-0.288l0,0l-0.078-6.072C10.685,1.995,10.724,1.826,10.793,1.695"/>
	<polygon fill="#6A85B5" points="10.109,1.016 10.109,1.273 7.621,2.033 7.621,1.777 	"/>
</g>
<g>
	<path fill="none" d="M6.404,1.69C3.575,1.804,1.61,4.105,1.61,7.051l0,0v0.256c0-2.944,1.964-5.246,4.794-5.361l0,0
		c0.072-0.001,0.144-0.004,0.216-0.004l0,0c0.336,0,0.67,0.031,0.999,0.092l0,0V1.777c-0.329-0.06-0.663-0.092-0.999-0.092l0,0
		C6.548,1.685,6.477,1.687,6.404,1.69"/>
	<path fill="#4D73A9" d="M6.621,1.686c-0.072,0-0.144,0.001-0.216,0.005c-1.604,0.064-2.93,0.831-3.777,2.02
		C2.404,4.024,2.213,4.366,2.061,4.732C1.914,5.084,1.801,5.457,1.724,5.85C1.649,6.234,1.61,6.637,1.61,7.051v0.255
		c0-0.414,0.039-0.815,0.113-1.199c0.077-0.393,0.19-0.767,0.337-1.119c0.153-0.366,0.343-0.708,0.567-1.02
		c0.847-1.189,2.173-1.957,3.777-2.021c0.072-0.003,0.144-0.004,0.216-0.004c0.336,0,0.67,0.031,1,0.09V1.777
		C7.291,1.717,6.957,1.686,6.621,1.686"/>
</g>
<g>
	<rect x="0" fill="none" width="131.244" height="19.211"/>
	<path fill="#074593" d="M12.455,12.396l2.225-0.679c-0.816,2.526-2.933,4.298-5.711,4.407c-0.094,0.004-0.187,0.006-0.28,0.006
		c-3.976,0-7.767-3.417-8.546-7.767C-0.657,3.91,2.001,0.169,6.079,0.007C6.172,0.002,6.266,0,6.359,0
		c1.303,0,2.586,0.367,3.75,1.015L7.621,1.776c-0.33-0.06-0.664-0.091-1-0.091c-0.071,0-0.144,0.002-0.215,0.005
		C3.189,1.82,1.093,4.772,1.722,8.283c0.614,3.433,3.606,6.13,6.744,6.13c0.073,0,0.146-0.002,0.218-0.004
		C10.285,14.343,11.607,13.579,12.455,12.396"/>
	<path fill="#4D73A9" d="M0,7.056V6.799C0,7.307,0.046,7.83,0.143,8.363c0.778,4.349,4.569,7.767,8.546,7.767
		c0.093,0,0.186-0.002,0.28-0.005c2.777-0.11,4.895-1.882,5.711-4.408v0.256c-0.816,2.526-2.934,4.297-5.711,4.409
		c-0.094,0.003-0.187,0.005-0.28,0.005c-3.977,0-7.768-3.418-8.546-7.768C0.046,8.086,0,7.563,0,7.056"/>
</g>
<g>
	<path fill="none" d="M0,7.056c0,0.506,0.046,1.029,0.142,1.563l0,0c0.778,4.351,4.57,7.769,8.546,7.769l0,0
		c0.093,0,0.186-0.002,0.28-0.007l0,0c2.778-0.11,4.895-1.882,5.711-4.409l0,0v-0.254c-0.816,2.524-2.933,4.297-5.711,4.407l0,0
		c-0.094,0.003-0.187,0.004-0.28,0.004l0,0c-3.976,0-7.768-3.417-8.546-7.767l0,0C0.046,7.83,0,7.307,0,6.798l0,0V7.056z"/>
	<path fill="#4D73A9" d="M14.474,12.271c-0.195,0.465-0.436,0.899-0.72,1.297c-1.074,1.506-2.753,2.477-4.786,2.558
		c-0.094,0.003-0.187,0.005-0.28,0.005c-3.976,0-7.767-3.418-8.546-7.768C0.046,7.83,0,7.306,0,6.799v0.257
		c0,0.507,0.046,1.03,0.142,1.563c0.779,4.35,4.57,7.769,8.546,7.769c0.093,0,0.186-0.003,0.28-0.006
		c2.033-0.082,3.712-1.053,4.786-2.558c0.284-0.397,0.525-0.831,0.72-1.296c0.075-0.182,0.144-0.366,0.205-0.557v-0.255
		C14.618,11.906,14.549,12.091,14.474,12.271"/>
</g>
<g>
	<rect x="0" fill="none" width="131.244" height="19.211"/>
	<path fill="#1B171B" d="M108.874,8.562H102.5V6.863c0-0.598,0.254-1.312,1.463-1.312h3.604c0.496,0,0.563-0.222,0.563-0.438V4.852
		c0-0.225-0.066-0.456-0.563-0.456h-4.86V3.48h4.86c1.209,0,1.462,0.714,1.462,1.312v0.451c0,0.558-0.253,1.223-1.462,1.223h-3.604
		c-0.49,0-0.556,0.237-0.556,0.468v0.712h5.466V8.562z"/>
	<path fill="#1B171B" d="M114.7,8.562h-3.158c-1.535,0-1.857-0.917-1.857-1.686V5.179c0-1.111,0.643-1.698,1.857-1.698h3.158
		c1.211,0,1.852,0.587,1.852,1.698v1.697C116.551,7.645,116.23,8.562,114.7,8.562 M111.803,4.396c-1.045,0-1.213,0.237-1.213,0.996
		v1.264c0,0.806,0.227,0.991,1.213,0.991h2.63c1.108,0,1.213-0.272,1.213-0.991V5.392c0-0.754-0.229-0.996-0.946-0.996H111.803z"/>
	<path fill="#1B171B" d="M123.567,8.562h-6.373V6.863c0-0.598,0.254-1.312,1.463-1.312h3.603c0.496,0,0.562-0.222,0.562-0.438V4.852
		c0-0.225-0.065-0.456-0.562-0.456h-4.86V3.48h4.86c1.209,0,1.463,0.714,1.463,1.312v0.451c0,0.558-0.254,1.223-1.463,1.223h-3.603
		c-0.49,0-0.557,0.237-0.557,0.468v0.712h5.467V8.562z"/>
	<path fill="#1B171B" d="M129.393,8.562h-3.158c-1.535,0-1.857-0.917-1.857-1.686V5.179c0-1.111,0.643-1.698,1.857-1.698h3.158
		c1.212,0,1.852,0.587,1.852,1.698v1.697C131.245,7.645,130.922,8.562,129.393,8.562 M126.496,4.396
		c-1.045,0-1.212,0.237-1.212,0.996v1.264c0,0.806,0.227,0.991,1.212,0.991h2.63c1.108,0,1.213-0.272,1.213-0.991V5.392
		c0-0.754-0.229-0.996-0.945-0.996H126.496z"/>
</g>
</svg>
