<?xml version="1.0" encoding="UTF-8" standalone="no"?>
<svg
   xmlns:dc="http://purl.org/dc/elements/1.1/"
   xmlns:cc="http://creativecommons.org/ns#"
   xmlns:rdf="http://www.w3.org/1999/02/22-rdf-syntax-ns#"
   xmlns:svg="http://www.w3.org/2000/svg"
   xmlns="http://www.w3.org/2000/svg"
   viewBox="0 0 529.92499 80.012497"
   height="80.012497"
   width="529.92499"
   xml:space="preserve"
   version="1.1"
   id="svg2"><metadata
     id="metadata8"><rdf:RDF><cc:Work
         rdf:about=""><dc:format>image/svg+xml</dc:format><dc:type
           rdf:resource="http://purl.org/dc/dcmitype/StillImage" /></cc:Work></rdf:RDF></metadata><defs
     id="defs6"><clipPath
       id="clipPath134"
       clipPathUnits="userSpaceOnUse"><path
         id="path136"
         d="m 53.6523,396.668 0,8.516 c 0,98.129 65.4217,174.824 159.7577,178.617 2.391,0.094 4.793,0.148 7.18,0.148 11.187,0 22.324,-1.047 33.308,-3.035 l 0,-8.539 c -10.984,1.977 -22.121,3.023 -33.308,3.023 -2.387,0 -4.789,-0.054 -7.18,-0.14 C 119.074,571.469 53.6523,494.762 53.6523,396.668 Z" /></clipPath><clipPath
       id="clipPath148"
       clipPathUnits="userSpaceOnUse"><path
         id="path150"
         d="m 0.00390625,405.016 0,8.566 C 0.00390625,396.668 1.52734,379.227 4.71875,361.48 30.6719,216.539 156.996,102.652 289.484,102.652 c 3.114,0 6.211,0.059 9.332,0.176 92.555,3.684 163.114,62.727 190.309,146.875 l 0,-8.515 C 461.93,157 391.371,97.9844 298.816,94.2656 295.695,94.1563 292.598,94.0898 289.484,94.0898 156.996,94.0898 30.6719,207.996 4.71875,352.938 1.52734,370.699 0.00390625,388.113 0.00390625,405.016 Z" /></clipPath></defs><g
     transform="matrix(1.25,0,0,-1.25,0,80.0125)"
     id="g10"><g
       transform="scale(0.1,0.1)"
       id="g12"><path
         id="path14"
         style="fill:#ffffff;fill-opacity:1;fill-rule:nonzero;stroke:none"
         d="m 713.195,248.98 82.934,0 0,-13.289 -67.617,0 0,-29.902 65.597,0 0,-13.301 -65.597,0 0,-33.379 69.066,0 0,-13.281 -84.383,0 0,103.152" /><path
         id="path16"
         style="fill:#ffffff;fill-opacity:1;fill-rule:nonzero;stroke:none"
         d="m 868.656,221.531 19.215,0 -31.781,-36.554 34.094,-39.149 -20.223,0 -23.844,28.75 -23.984,-28.75 -19.074,0 33.668,39.149 -31.211,36.554 19.648,0 21.535,-26.008 21.957,26.008" /><path
         id="path18"
         style="fill:#ffffff;fill-opacity:1;fill-rule:nonzero;stroke:none"
         d="m 898.27,249.852 14.449,0 0,-39.739 0.289,0 c 6.785,10.547 18.785,14.016 29.617,14.016 18.203,0 31.789,-7.793 31.789,-26.719 l 0,-51.582 -14.449,0 0,48.68 c 0,11.133 -6.938,17.492 -22.399,17.492 -13.148,0 -24.847,-7.656 -24.847,-22.539 l 0,-43.633 -14.449,0 0,104.024" /><path
         id="path20"
         style="fill:#ffffff;fill-opacity:1;fill-rule:nonzero;stroke:none"
         d="m 992.035,221.531 14.445,0 0,-75.703 -14.445,0 0,75.703 z m 0,28.321 14.445,0 0,-15.891 -14.445,0 0,15.891" /><path
         id="path22"
         style="fill:#ffffff;fill-opacity:1;fill-rule:nonzero;stroke:none"
         d="m 1065.72,211.129 c -16.91,0 -28.04,-10.547 -28.04,-27.879 0,-14.309 8.39,-27.891 28.04,-27.891 19.5,0 27.74,13.582 27.74,27.891 0,17.332 -10.99,27.879 -27.74,27.879 z m -41.61,38.723 14.44,0 0,-39.739 0.29,0 c 5.78,9.102 17.49,13.157 28.76,13.157 22.82,0 41.17,-14.602 41.17,-40.02 0,-25.43 -18.35,-40.031 -41.17,-40.031 -11.13,0 -23.12,4.336 -28.76,12.285 l -0.29,0 0,-9.676 -14.44,0 0,104.024" /><path
         id="path24"
         style="fill:#ffffff;fill-opacity:1;fill-rule:nonzero;stroke:none"
         d="m 1123.08,221.531 14.44,0 0,-75.703 -14.44,0 0,75.703 z m 0,28.321 14.44,0 0,-15.891 -14.44,0 0,15.891" /><path
         id="path26"
         style="fill:#ffffff;fill-opacity:1;fill-rule:nonzero;stroke:none"
         d="m 1161.5,244.793 14.45,0 0,-23.262 21.67,0 0,-11.269 -21.67,0 0,-46.672 c 0,-6.063 4.34,-8.231 11.71,-8.231 3.32,0 6.64,0.438 9.96,1.004 l 0,-12.129 c -4.91,-0.867 -10.25,-1.015 -16.18,-1.015 -14.16,0 -19.94,6.933 -19.94,17.922 l 0,49.121 -15.6,0 0,11.269 15.6,0 0,23.262" /><path
         id="path28"
         style="fill:#ffffff;fill-opacity:1;fill-rule:nonzero;stroke:none"
         d="m 1208.6,221.531 14.45,0 0,-75.703 -14.45,0 0,75.703 z m 0,28.321 14.45,0 0,-15.891 -14.45,0 0,15.891" /><path
         id="path30"
         style="fill:#ffffff;fill-opacity:1;fill-rule:nonzero;stroke:none"
         d="m 1281.27,212 c -20.94,0 -28.6,-14.59 -28.6,-28.32 0,-13.723 7.66,-28.321 28.6,-28.321 20.96,0 28.61,14.598 28.61,28.321 0,13.73 -7.65,28.32 -28.61,28.32 z m 0,12.129 c 29.48,0 43.92,-18.633 43.92,-40.449 0,-21.817 -14.44,-40.461 -43.92,-40.461 -29.47,0 -43.92,18.644 -43.92,40.461 0,21.816 14.45,40.449 43.92,40.449" /><path
         id="path32"
         style="fill:#ffffff;fill-opacity:1;fill-rule:nonzero;stroke:none"
         d="m 1339.5,221.531 14.45,0 0,-11.418 0.28,0 c 6.8,10.547 18.79,14.016 29.62,14.016 18.21,0 31.79,-7.793 31.79,-26.719 l 0,-51.582 -14.45,0 0,48.68 c 0,11.133 -6.93,17.492 -22.39,17.492 -13.15,0 -24.85,-7.656 -24.85,-22.539 l 0,-43.633 -14.45,0 0,75.703" /><path
         id="path34"
         style="fill:#ffffff;fill-opacity:1;fill-rule:nonzero;stroke:none"
         d="m 1475.45,210.262 c 10.83,4.48 14.88,10.261 14.88,15.457 0,5.929 -5.2,11.125 -12.43,11.125 -9.24,0 -13.29,-5.196 -13.29,-10.403 0,-5.058 3.62,-9.539 10.84,-16.179 z m -4.91,-13.586 c -16.04,-6.785 -19.79,-14.004 -19.79,-22.246 0,-8.379 5.91,-19.071 26.14,-19.071 10.12,0 20.37,2.461 26.44,10.547 l -32.79,30.77 z m 42.33,-39.149 c -7.8,-9.531 -22.25,-14.308 -36.69,-14.308 -31.07,0 -40.75,17.051 -40.75,30.781 0,12.852 7.65,24.133 26.87,30.773 -9.1,8.086 -11.27,15.165 -11.27,20.946 0,13.867 9.68,23.261 26.73,23.261 16.18,0 26.15,-10.105 26.15,-22.39 0,-8.086 -4.77,-17.922 -19.94,-23.985 l 27.31,-25.285 c 2.89,4.766 4.19,8.957 4.77,16.035 l 13.58,0 c -0.29,-7.937 -2.31,-16.464 -8.52,-25.136 l 24.27,-22.391 -20.09,0 -12.42,11.699" /><path
         id="path36"
         style="fill:#ffffff;fill-opacity:1;fill-rule:nonzero;stroke:none"
         d="m 1638.13,211.852 c -2.31,14.296 -13.58,26.437 -35.25,26.437 -24.42,0 -39.88,-14.004 -39.88,-42.187 0,-19.504 10.55,-39.582 39.02,-39.582 18.05,0 31.78,8.664 36.11,28.742 l 15.32,0 c -2.46,-22.824 -22.11,-42.043 -51.58,-42.043 -26.01,0 -54.18,14.308 -54.18,54.472 0,30.059 18.78,53.887 54.03,53.887 20.66,0 49.12,-8.808 51.73,-39.726 l -15.32,0" /><path
         id="path38"
         style="fill:#ffffff;fill-opacity:1;fill-rule:nonzero;stroke:none"
         d="m 1709.36,212 c -20.95,0 -28.61,-14.59 -28.61,-28.32 0,-13.723 7.66,-28.321 28.61,-28.321 20.95,0 28.6,14.598 28.6,28.321 0,13.73 -7.65,28.32 -28.6,28.32 z m 0,12.129 c 29.47,0 43.92,-18.633 43.92,-40.449 0,-21.817 -14.45,-40.461 -43.92,-40.461 -29.48,0 -43.92,18.644 -43.92,40.461 0,21.816 14.44,40.449 43.92,40.449" /><path
         id="path40"
         style="fill:#ffffff;fill-opacity:1;fill-rule:nonzero;stroke:none"
         d="m 1767.58,221.531 14.45,0 0,-11.418 0.29,0 c 6.79,10.547 18.78,14.016 29.62,14.016 18.2,0 31.78,-7.793 31.78,-26.719 l 0,-51.582 -14.45,0 0,48.68 c 0,11.133 -6.93,17.492 -22.39,17.492 -13.15,0 -24.85,-7.656 -24.85,-22.539 l 0,-43.633 -14.45,0 0,75.703" /><path
         id="path42"
         style="fill:#ffffff;fill-opacity:1;fill-rule:nonzero;stroke:none"
         d="m 1865.82,232.801 c 0,14.012 8.67,18.777 23.27,18.777 4.47,0 8.37,-0.711 12.56,-1.14 l 0,-11.282 c -2.74,0.149 -5.49,0.293 -8.09,0.293 -9.39,0 -13.29,-1.16 -13.29,-7.371 l 0,-10.547 21.38,0 0,-11.269 -21.38,0 0,-64.434 -14.45,0 0,64.434 -15.45,0 0,11.269 15.45,0 0,11.27" /><path
         id="path44"
         style="fill:#ffffff;fill-opacity:1;fill-rule:nonzero;stroke:none"
         d="m 1975.77,190.613 c -2.17,13.731 -12.86,21.387 -26.44,21.387 -13.29,0 -25.29,-7.805 -27.45,-21.387 l 53.89,0 z m -54.33,-11.269 c 1.16,-15.606 15.03,-23.985 27.89,-23.985 8.23,0 19.51,2.743 24.41,13.438 l 15.32,0 c -7.23,-18.203 -24.12,-25.578 -39.01,-25.578 -29.47,0 -43.92,18.644 -43.92,40.461 0,21.816 14.45,40.449 43.92,40.449 19.94,0 41.03,-11.555 41.03,-42.902 l 0,-1.883 -69.64,0" /><path
         id="path46"
         style="fill:#ffffff;fill-opacity:1;fill-rule:nonzero;stroke:none"
         d="m 2005.82,221.531 14.44,0 0,-13.867 0.3,0 c 6.79,11.992 16.47,16.465 26.01,16.465 3.6,0 5.48,-0.137 8.23,-0.859 l 0,-15.606 c -3.61,0.867 -6.36,1.445 -10.26,1.445 -14.31,0 -24.28,-8.39 -24.28,-24.855 l 0,-38.426 -14.44,0 0,75.703" /><path
         id="path48"
         style="fill:#ffffff;fill-opacity:1;fill-rule:nonzero;stroke:none"
         d="m 2130.94,190.613 c -2.18,13.731 -12.86,21.387 -26.45,21.387 -13.29,0 -25.28,-7.805 -27.45,-21.387 l 53.9,0 z m -54.33,-11.269 c 1.16,-15.606 15.02,-23.985 27.88,-23.985 8.24,0 19.51,2.743 24.42,13.438 l 15.31,0 c -7.21,-18.203 -24.12,-25.578 -39.01,-25.578 -29.46,0 -43.92,18.644 -43.92,40.461 0,21.816 14.46,40.449 43.92,40.449 19.95,0 41.04,-11.555 41.04,-42.902 l 0,-1.883 -69.64,0" /><path
         id="path50"
         style="fill:#ffffff;fill-opacity:1;fill-rule:nonzero;stroke:none"
         d="m 2160.99,221.531 14.44,0 0,-11.418 0.29,0 c 6.79,10.547 18.79,14.016 29.62,14.016 18.2,0 31.79,-7.793 31.79,-26.719 l 0,-51.582 -14.45,0 0,48.68 c 0,11.133 -6.93,17.492 -22.39,17.492 -13.15,0 -24.86,-7.656 -24.86,-22.539 l 0,-43.633 -14.44,0 0,75.703" /><path
         id="path52"
         style="fill:#ffffff;fill-opacity:1;fill-rule:nonzero;stroke:none"
         d="m 2332.05,173.563 c -6.06,-22.688 -19.8,-30.344 -39.44,-30.344 -30.06,0 -41.18,20.371 -41.18,40.031 0,22.391 13.73,40.879 41.03,40.879 20.23,0 36.27,-9.094 39.3,-27.883 l -15.32,0 c -1.73,9.824 -9.53,15.754 -22.97,15.754 -18.49,0 -26.73,-12.141 -26.73,-28.32 0,-16.184 8.24,-28.321 26.73,-28.321 13,0 20.09,5.633 23.27,18.204 l 15.31,0" /><path
         id="path54"
         style="fill:#ffffff;fill-opacity:1;fill-rule:nonzero;stroke:none"
         d="m 2412.09,190.613 c -2.17,13.731 -12.85,21.387 -26.44,21.387 -13.29,0 -25.28,-7.805 -27.45,-21.387 l 53.89,0 z m -54.32,-11.269 c 1.15,-15.606 15.02,-23.985 27.88,-23.985 8.24,0 19.51,2.743 24.42,13.438 l 15.31,0 c -7.22,-18.203 -24.13,-25.578 -39.01,-25.578 -29.47,0 -43.92,18.644 -43.92,40.461 0,21.816 14.45,40.449 43.92,40.449 19.94,0 41.04,-11.555 41.04,-42.902 l 0,-1.883 -69.64,0" /><path
         id="path56"
         style="fill:#ffffff;fill-opacity:1;fill-rule:nonzero;stroke:none"
         d="m 604.363,1.26563 11.75,0 0,11.75 -11.75,0 0,-11.75 z" /><path
         id="path58"
         style="fill:#ffffff;fill-opacity:1;fill-rule:nonzero;stroke:none"
         d="m 634.727,1.26563 11.7461,0 0,11.75 -11.7461,0 0,-11.75 z" /><path
         id="path60"
         style="fill:#ffffff;fill-opacity:1;fill-rule:nonzero;stroke:none"
         d="m 665.199,1.26563 11.7461,0 0,11.75 -11.7461,0 0,-11.75 z" /><path
         id="path62"
         style="fill:#ffffff;fill-opacity:1;fill-rule:nonzero;stroke:none"
         d="m 714.461,55.9922 8.996,0 0,-54.72657 -8.996,0 0,54.72657 z m 8.996,9.8359 -8.996,0 0,11.0157 8.996,0 0,-11.0157" /><path
         id="path64"
         style="fill:#ffffff;fill-opacity:1;fill-rule:nonzero;stroke:none"
         d="m 750.965,55.9922 10.902,0 0,-7.9375 -10.902,0 0,-33.9766 c 0,-4.22654 1.164,-4.87107 6.773,-4.87107 l 4.129,0 0,-7.9414 -6.883,0 c -9.312,0 -13.015,1.91406 -13.015,11.96487 l 0,34.8242 -9.313,0 0,7.9375 9.313,0 0,16.3984 8.996,0 0,-16.3984" /><path
         id="path66"
         style="fill:#ffffff;fill-opacity:1;fill-rule:nonzero;stroke:none"
         d="m 780.477,78.7461 11.539,0 -13.864,-15.1367 -6.769,0 9.094,15.1367" /><path
         id="path68"
         style="fill:#ffffff;fill-opacity:1;fill-rule:nonzero;stroke:none"
         d="m 802.902,18.5234 c 0.321,-8.0468 7.411,-10.57809 14.715,-10.57809 5.61,0 13.231,1.26172 13.231,8.14449 0,14.0743 -35.778,4.5508 -35.778,25.6055 0,11.0156 10.797,15.5664 20.434,15.5664 12.273,0 21.586,-3.8086 22.434,-17.1484 l -9,0 c -0.528,6.9844 -6.879,9.2109 -12.7,9.2109 -5.394,0 -11.64,-1.4844 -11.64,-6.9844 0,-6.3554 9.523,-7.625 17.886,-9.5312 9,-2.0117 17.887,-5.0781 17.887,-15.5547 0,-13.12499 -12.176,-17.25780625 -23.285,-17.25780625 -12.277,0 -22.648,4.98046625 -23.176,18.52730625 l 8.992,0" /><path
         id="path70"
         style="fill:#ffffff;fill-opacity:1;fill-rule:nonzero;stroke:none"
         d="m 915.59,29.5273 c -6.985,-5.1835 -27.305,-0.1054 -27.305,-13.5429 0,-5.9297 5.082,-8.03909 10.586,-8.03909 11.852,0 16.719,7.29689 16.719,12.37499 l 0,9.207 z M 930.199,1.48047 c -1.594,-0.957032 -3.808,-1.48437625 -6.461,-1.48437625 -4.652,0 -7.617,2.55078625 -7.617,8.47656625 -4.976,-5.92578 -11.641,-8.47656625 -19.262,-8.47656625 -9.953,0 -18.101,4.34765625 -18.101,15.35160625 0,12.3828 9.211,15.1367 18.527,16.8281 9.844,2.0117 18.41,1.1601 18.41,8.0469 0,7.9375 -6.558,9.1015 -12.172,9.1015 -7.617,0 -13.226,-2.3242 -13.652,-10.3711 l -8.992,0 c 0.527,13.543 10.898,18.3086 23.18,18.3086 9.839,0 20.531,-2.2265 20.531,-15.0273 l 0,-28.1563 c 0,-4.22654 0,-6.13279 2.855,-6.13279 0.852,0 1.801,0.20703 2.754,0.52735 l 0,-6.99219" /><path
         id="path72"
         style="fill:#ffffff;fill-opacity:1;fill-rule:nonzero;stroke:none"
         d="m 975.566,18.5234 c 0.317,-8.0468 7.407,-10.57809 14.711,-10.57809 5.61,0 13.233,1.26172 13.233,8.14449 0,14.0743 -35.776,4.5508 -35.776,25.6055 0,11.0156 10.793,15.5664 20.43,15.5664 12.276,0 21.586,-3.8086 22.436,-17.1484 l -8.99,0 c -0.54,6.9844 -6.887,9.2109 -12.712,9.2109 -5.394,0 -11.636,-1.4844 -11.636,-6.9844 0,-6.3554 9.519,-7.625 17.883,-9.5312 8.995,-2.0117 17.885,-5.0781 17.885,-15.5547 0,-13.12499 -12.17,-17.25780625 -23.284,-17.25780625 -12.277,0 -22.648,4.98046625 -23.18,18.52730625 l 9,0" /><path
         id="path74"
         style="fill:#ffffff;fill-opacity:1;fill-rule:nonzero;stroke:none"
         d="m 1024.02,55.9922 8.47,0 0,-8.0469 0.21,0 c 4.13,6.2422 9.95,9.3164 17.67,9.3164 6.78,0 12.81,-2.5469 15.03,-9.3164 3.71,5.9297 10.06,9.3164 17.15,9.3164 10.9,0 18.2,-4.5508 18.2,-15.8789 l 0,-40.11717 -8.99,0 0,35.87887 c 0,6.7774 -1.8,12.1797 -10.59,12.1797 -8.78,0 -14.29,-5.5078 -14.29,-13.9765 l 0,-34.08207 -8.99,0 0,35.87887 c 0,7.1016 -2.22,12.1797 -10.27,12.1797 -10.58,0 -14.61,-9.7383 -14.61,-13.9765 l 0,-34.08207 -8.99,0 0,54.72657" /><path
         id="path76"
         style="fill:#ffffff;fill-opacity:1;fill-rule:nonzero;stroke:none"
         d="m 1149.09,29.5273 c -6.99,-5.1835 -27.31,-0.1054 -27.31,-13.5429 0,-5.9297 5.08,-8.03909 10.58,-8.03909 11.85,0 16.73,7.29689 16.73,12.37499 l 0,9.207 z m 14.6,-28.04683 c -1.59,-0.957032 -3.81,-1.48437625 -6.45,-1.48437625 -4.66,0 -7.63,2.55078625 -7.63,8.47656625 -4.97,-5.92578 -11.64,-8.47656625 -19.26,-8.47656625 -9.95,0 -18.1,4.34765625 -18.1,15.35160625 0,12.3828 9.21,15.1367 18.53,16.8281 9.83,2.0117 18.41,1.1601 18.41,8.0469 0,7.9375 -6.56,9.1015 -12.17,9.1015 -7.62,0 -13.23,-2.3242 -13.66,-10.3711 l -8.99,0 c 0.53,13.543 10.9,18.3086 23.18,18.3086 9.84,0 20.53,-2.2265 20.53,-15.0273 l 0,-28.1563 c 0,-4.22654 0,-6.13279 2.86,-6.13279 0.85,0 1.8,0.20703 2.75,0.52735 l 0,-6.99219" /><path
         id="path78"
         style="fill:#ffffff;fill-opacity:1;fill-rule:nonzero;stroke:none"
         d="m 1172.77,55.9922 8.46,0 0,-11.543 0.22,0 c 4.34,8.8985 10.37,13.125 20.11,12.8125 l 0,-9.5312 c -14.51,0 -19.8,-8.1446 -19.8,-22.1172 l 0,-24.34767 -8.99,0 0,54.72657" /><path
         id="path80"
         style="fill:#ffffff;fill-opacity:1;fill-rule:nonzero;stroke:none"
         d="m 1221.86,55.9922 10.9,0 0,-7.9375 -10.9,0 0,-33.9766 c 0,-4.22654 1.16,-4.87107 6.77,-4.87107 l 4.13,0 0,-7.9414 -6.88,0 c -9.31,0 -13.02,1.91406 -13.02,11.96487 l 0,34.8242 -9.31,0 0,7.9375 9.31,0 0,16.3984 9,0 0,-16.3984" /><path
         id="path82"
         style="fill:#ffffff;fill-opacity:1;fill-rule:nonzero;stroke:none"
         d="m 1281.75,33.8633 c -0.53,8.5742 -6.78,15.4609 -15.77,15.4609 -9.32,0 -15.14,-6.9844 -15.66,-15.4609 l 31.43,0 z m 8.68,-15.2344 C 1288,6.45313 1279.42,-0.00390625 1267.04,-0.00390625 c -17.47,0 -25.72,12.17970625 -26.25,28.80080625 0,16.5039 10.8,28.4648 25.72,28.4648 19.37,0 25.3,-18.0937 24.76,-31.3281 l -40.95,0 c -0.32,-9.5313 5.07,-17.98829 17.04,-17.98829 7.51,0 12.59,3.48829 14.18,10.68359 l 8.89,0" /><path
         id="path84"
         style="fill:#ffffff;fill-opacity:1;fill-rule:nonzero;stroke:none"
         d="m 1301.31,55.9922 8.46,0 0,-11.543 0.21,0 c 4.35,8.8985 10.38,13.125 20.12,12.8125 l 0,-9.5312 c -14.51,0 -19.8,-8.1446 -19.8,-22.1172 l 0,-24.34767 -8.99,0 0,54.72657" /><path
         id="path86"
         style="fill:#ffffff;fill-opacity:1;fill-rule:nonzero;stroke:none"
         d="m 1422.57,1.26563 -9.52,0 -11.12,43.50777 -0.21,0 -11,-43.50777 -9.74,0 -17.57,54.72657 9.95,0 12.38,-44.7734 0.21,0 11.01,44.7734 9.84,0 11.43,-44.7734 0.22,0 12.27,44.7734 9.31,0 -17.46,-54.72657" /><path
         id="path88"
         style="fill:#ffffff;fill-opacity:1;fill-rule:nonzero;stroke:none"
         d="m 1473.24,7.94531 c 9.42,0 17.04,7.40239 17.04,20.63669 0,13.2305 -7.62,20.7422 -17.04,20.7422 -9.42,0 -17.04,-7.5117 -17.04,-20.7422 0,-13.2343 7.62,-20.63669 17.04,-20.63669 z m 0,49.31639 c 17.35,0 26.56,-12.5976 26.56,-28.6797 0,-15.9882 -9.21,-28.58590625 -26.56,-28.58590625 -17.36,0 -26.57,12.59770625 -26.57,28.58590625 0,16.0821 9.21,28.6797 26.57,28.6797" /><path
         id="path90"
         style="fill:#ffffff;fill-opacity:1;fill-rule:nonzero;stroke:none"
         d="m 1511.1,55.9922 8.46,0 0,-11.543 0.21,0 c 4.35,8.8985 10.38,13.125 20.12,12.8125 l 0,-9.5312 c -14.51,0 -19.8,-8.1446 -19.8,-22.1172 l 0,-24.34767 -8.99,0 0,54.72657" /><path
         id="path92"
         style="fill:#ffffff;fill-opacity:1;fill-rule:nonzero;stroke:none"
         d="m 1548.23,1.26563 9,0 0,75.5781 -9,0 0,-75.5781 z" /><path
         id="path94"
         style="fill:#ffffff;fill-opacity:1;fill-rule:nonzero;stroke:none"
         d="m 1595.74,7.94531 c 12.17,0 16.72,10.46879 16.72,20.63669 0,10.6836 -4.86,20.7422 -17.24,20.7422 -12.28,0 -16.41,-10.4804 -16.41,-21.1719 0,-10.2656 5.29,-20.20699 16.93,-20.20699 z m 25.41,-6.67968 -9,0 0,7.41406 -0.21,0 c -2.97,-6.03516 -9.85,-8.68359625 -17.47,-8.68359625 -16.82,0 -25.18,13.33980625 -25.18,28.80080625 0,15.4492 8.25,28.4648 24.98,28.4648 5.49,0 13.75,-2.1172 17.67,-8.5742 l 0.21,0 0,28.1563 9,0 0,-75.57817" /><path
         id="path96"
         style="fill:#ed192e;fill-opacity:1;fill-rule:nonzero;stroke:none"
         d="m 767.66,482.781 c -7.07,0 -10.605,-4.074 -10.605,-12.511 l 0,-11.934 74.008,0 c 5.894,0 8.957,4.367 8.957,12.805 0,7.859 -3.063,11.64 -8.957,11.64 l -63.403,0 z m 118.555,-20.078 c 0,-25.898 -11.785,-37.832 -36.297,-37.832 l -92.863,0 0,-11.047 c 0,-7.566 3.535,-11.355 10.605,-11.355 l 116.195,0 0,-48.008 -120.199,0 c -35.117,0 -52.797,17.461 -52.797,52.664 l 0,72.453 c 0,32.305 17.68,48.305 52.797,48.305 l 86.262,0 c 24.273,0 36.297,-13.391 36.297,-40.445 l 0,-24.735" /><path
         id="path98"
         style="fill:#ed192e;fill-opacity:1;fill-rule:nonzero;stroke:none"
         d="m 1160.06,354.461 -46.19,0 0,116.973 c 0,7.566 -3.54,11.347 -10.61,11.347 l -42.89,0 0,-128.32 -46.44,0 0,128.32 -53.735,0 0,-128.32 -45.957,0 0,173.422 189.022,0 c 37.94,0 56.8,-18.914 56.8,-57.035 l 0,-116.387" /><path
         id="path100"
         style="fill:#ed192e;fill-opacity:1;fill-rule:nonzero;stroke:none"
         d="m 1234.27,482.781 0,-68.672 c 0,-7.851 3.53,-11.64 10.84,-11.64 l 72.83,0 c 7.07,0 10.6,3.789 10.6,11.64 l 0,57.325 c 0,7.566 -3.53,11.347 -10.6,11.347 l -83.67,0 z m 140.47,-71.289 c 0,-38.117 -18.86,-57.031 -56.8,-57.031 l -72.83,0 c -37.95,0 -56.8,18.914 -56.8,57.031 l 0,181.571 45.96,0 0,-65.18 83.67,0 c 37.94,0 56.8,-18.914 56.8,-57.035 l 0,-59.356" /><path
         id="path102"
         style="fill:#ed192e;fill-opacity:1;fill-rule:nonzero;stroke:none"
         d="m 1459.79,482.781 c -7.07,0 -10.61,-4.074 -10.61,-12.511 l 0,-11.934 74.01,0 c 5.9,0 8.96,4.367 8.96,12.805 0,7.859 -3.06,11.64 -8.96,11.64 l -63.4,0 z m 118.55,-20.078 c 0,-25.898 -11.78,-37.832 -36.29,-37.832 l -92.87,0 0,-11.047 c 0,-7.566 3.54,-11.355 10.61,-11.355 l 116.2,0 0,-48.008 -120.2,0 c -35.12,0 -52.8,17.461 -52.8,52.664 l 0,72.453 c 0,32.305 17.68,48.305 52.8,48.305 l 86.26,0 c 24.27,0 36.29,-13.391 36.29,-40.445 l 0,-24.735" /><path
         id="path104"
         style="fill:#ed192e;fill-opacity:1;fill-rule:nonzero;stroke:none"
         d="m 1663.17,482.781 c -7.07,0 -10.61,-3.781 -10.61,-11.347 l 0,-57.325 c 0,-7.851 3.54,-11.64 10.61,-11.64 l 72.83,0 c 7.3,0 10.83,3.789 10.83,11.64 l 0,68.672 -83.66,0 z m 129.63,-71.289 c 0,-38.117 -18.86,-57.031 -56.8,-57.031 l -72.83,0 c -37.95,0 -56.8,18.914 -56.8,57.031 l 0,59.356 c 0,38.121 18.85,57.035 56.8,57.035 l 83.66,0 0,65.18 45.97,0 0,-181.571" /><path
         id="path106"
         style="fill:#ed192e;fill-opacity:1;fill-rule:nonzero;stroke:none"
         d="m 1877.85,482.781 c -7.07,0 -10.6,-3.781 -10.6,-11.347 l 0,-57.325 c 0,-7.851 3.53,-11.64 10.6,-11.64 l 72.83,0 c 7.31,0 10.84,3.789 10.84,11.64 l 0,68.672 -83.67,0 z m 129.63,-71.289 c 0,-38.117 -18.85,-57.031 -56.8,-57.031 l -72.83,0 c -37.94,0 -56.8,18.914 -56.8,57.031 l 0,59.356 c 0,38.121 18.86,57.035 56.8,57.035 l 83.67,0 0,65.18 45.96,0 0,-181.571" /><path
         id="path108"
         style="fill:#ed192e;fill-opacity:1;fill-rule:nonzero;stroke:none"
         d="m 2092.54,482.781 c -7.08,0 -10.61,-4.074 -10.61,-12.511 l 0,-11.934 74.01,0 c 5.89,0 8.95,4.367 8.95,12.805 0,7.859 -3.06,11.64 -8.95,11.64 l -63.4,0 z m 118.55,-20.078 c 0,-25.898 -11.78,-37.832 -36.3,-37.832 l -92.86,0 0,-11.047 c 0,-7.566 3.53,-11.355 10.61,-11.355 l 116.19,0 0,-48.008 -120.2,0 c -35.12,0 -52.79,17.461 -52.79,52.664 l 0,72.453 c 0,32.305 17.67,48.305 52.79,48.305 l 86.26,0 c 24.28,0 36.3,-13.391 36.3,-40.445 l 0,-24.735" /><path
         id="path110"
         style="fill:#ed192e;fill-opacity:1;fill-rule:nonzero;stroke:none"
         d="m 2295.92,482.781 c -7.08,0 -10.61,-3.781 -10.61,-11.347 l 0,-57.325 c 0,-7.851 3.53,-11.64 10.61,-11.64 l 72.82,0 c 7.31,0 10.84,3.789 10.84,11.64 l 0,68.672 -83.66,0 z m 129.62,-71.289 c 0,-38.117 -18.85,-57.031 -56.8,-57.031 l -72.82,0 c -37.95,0 -56.8,18.914 -56.8,57.031 l 0,59.356 c 0,38.121 18.85,57.035 56.8,57.035 l 83.66,0 0,65.18 45.96,0 0,-181.571" /><path
         id="path112"
         style="fill:#ffffff;fill-opacity:1;fill-rule:nonzero;stroke:none"
         d="m 2725.33,382.684 c -3.54,-17.754 -14.62,-28.223 -27.82,-28.223 l -33.46,0 c -15.79,0 -29.47,11.629 -33.94,27.93 l -27.11,100.39 -9.43,0 -27.1,-100.39 c -4.48,-16.301 -17.92,-27.93 -33.71,-27.93 l -33.46,0 c -13.2,0 -24.28,10.469 -27.82,28.223 l -28.75,145.199 49.5,0 16.97,-114.059 c 1.18,-7.566 4.01,-11.355 8.48,-11.355 l 4.96,0 c 3.99,0 7.06,3.789 9.18,11.062 l 31.82,114.352 69.29,0 32.06,-114.352 c 2.11,-7.273 5.18,-11.062 9.19,-11.062 l 4.95,0 c 4.48,0 7.31,3.789 8.49,11.355 l 16.49,114.059 49.5,0 -28.28,-145.199" /><path
         id="path114"
         style="fill:#ffffff;fill-opacity:1;fill-rule:nonzero;stroke:none"
         d="m 2822.38,482.781 c -7.06,0 -10.6,-3.781 -10.6,-11.347 l 0,-57.325 c 0,-7.851 3.54,-11.64 10.6,-11.64 l 72.83,0 c 7.3,0 10.84,3.789 10.84,11.062 l 0,57.903 c 0,7.566 -3.54,11.347 -10.84,11.347 l -72.83,0 z m 129.64,-71.875 c 0,-37.531 -18.86,-56.445 -56.81,-56.445 l -72.83,0 c -37.94,0 -56.8,18.914 -56.8,57.031 l 0,59.356 c 0,38.121 18.86,57.035 56.8,57.035 l 72.83,0 c 37.95,0 56.81,-18.914 56.81,-57.035 l 0,-59.942" /><path
         id="path116"
         style="fill:#ffffff;fill-opacity:1;fill-rule:nonzero;stroke:none"
         d="m 3098.11,482.781 -61.04,0 c -7.08,0 -10.61,-3.781 -10.61,-11.347 l 0,-116.973 -46.19,0 0,116.387 c 0,38.121 18.86,57.035 56.8,57.035 l 61.04,0 0,-45.102" /><path
         id="path118"
         style="fill:#ffffff;fill-opacity:1;fill-rule:nonzero;stroke:none"
         d="m 3119.07,354.461 45.9609,0 0,238.602 -45.9609,0 0,-238.602 z" /><path
         id="path120"
         style="fill:#ffffff;fill-opacity:1;fill-rule:nonzero;stroke:none"
         d="m 3249.87,482.781 c -7.07,0 -10.61,-3.781 -10.61,-11.347 l 0,-57.325 c 0,-7.851 3.54,-11.64 10.61,-11.64 l 72.83,0 c 7.29,0 10.84,3.789 10.84,11.64 l 0,68.672 -83.67,0 z m 129.63,-71.289 c 0,-38.117 -18.85,-57.031 -56.8,-57.031 l -72.83,0 c -37.95,0 -56.8,18.914 -56.8,57.031 l 0,59.356 c 0,38.121 18.85,57.035 56.8,57.035 l 83.67,0 0,65.18 45.96,0 0,-181.571" /><path
         id="path122"
         style="fill:#ef2b3e;fill-opacity:1;fill-rule:nonzero;stroke:none"
         d="m 521.867,550.043 c 12.434,-3.664 22.785,-20.996 23.016,-38.543 l 2.597,-202.305 c 0.219,-17.539 -9.761,-28.875 -22.199,-25.222 l -143.558,42.324 c -12.461,3.691 -22.828,20.996 -23.047,38.543 l -2.594,202.32 c -0.223,17.539 9.762,28.883 22.219,25.203 l 143.566,-42.32" /><path
         id="path124"
         style="fill:#ed192e;fill-opacity:1;fill-rule:nonzero;stroke:none"
         d="m 525.281,283.973 -143.558,42.324 c -5.336,1.562 -10.274,5.652 -14.207,11.152 -1.727,2.41 -3.254,5.145 -4.536,8.008 L 170.441,286.012 c 1.289,-2.879 2.817,-5.567 4.539,-7.977 3.934,-5.547 8.872,-9.609 14.2,-11.172 l 143.574,-42.336 c 3.113,-0.937 6.082,-0.898 8.769,-0.066 l 192.54,59.441 c -2.692,-0.82 -5.661,-0.847 -8.782,0.071" /><path
         id="path126"
         style="fill:#db1c30;fill-opacity:1;fill-rule:nonzero;stroke:none"
         d="m 359.641,583.656 c 1.261,2.364 2.828,4.328 4.613,5.86 1.59,1.336 3.344,2.328 5.246,2.918 l -192.531,-59.43 c -1.899,-0.586 -3.664,-1.598 -5.242,-2.93 -1.797,-1.523 -3.348,-3.484 -4.618,-5.851 -2.32,-4.368 -3.648,-9.996 -3.566,-16.504 l 2.602,-202.867 0.039,0.019 c 0.074,-3.078 0.429,-6.125 1.07,-9.082 0.742,-3.391 1.828,-6.699 3.187,-9.777 l 192.539,59.445 c -1.371,3.074 -2.453,6.367 -3.195,9.793 -0.68,3.137 -1.07,6.359 -1.109,9.59 l -0.008,0 -2.586,202.32 c -0.082,6.5 1.227,12.145 3.559,16.496" /><path
         id="path128"
         style="fill:#627bb7;fill-opacity:1;fill-rule:nonzero;stroke:none"
         d="m 336.84,606.277 0,-8.554 -82.942,-25.348 0,8.539 82.942,25.363" /><g
         id="g130"><g
           clip-path="url(#clipPath134)"
           id="g132"><path
             id="path138"
             style="fill:#4d6bac;fill-opacity:1;fill-rule:nonzero;stroke:none"
             d="m 220.59,583.949 c -2.387,0 -4.789,-0.054 -7.18,-0.148 C 159.949,581.648 115.766,556.09 87.5273,516.473 80.0898,506.051 73.7617,494.656 68.6602,482.457 63.7383,470.73 59.9688,458.277 57.4297,445.211 54.9453,432.398 53.6523,418.992 53.6523,405.184 l 0,-8.516 c 0,13.797 1.293,27.168 3.7774,39.98 2.5391,13.067 6.3086,25.528 11.2305,37.274 5.1015,12.199 11.4296,23.605 18.8671,34 28.2387,39.621 72.4217,65.187 125.8827,67.336 2.391,0.086 4.793,0.14 7.18,0.14 11.187,0 22.324,-1.046 33.308,-3.023 l 0,8.539 c -10.984,1.988 -22.121,3.035 -33.308,3.035" /></g></g><path
         id="path140"
         style="fill:#254aa5;fill-opacity:1;fill-rule:nonzero;stroke:none"
         d="m 414.984,227.086 74.141,22.617 C 461.93,165.555 391.371,106.512 298.816,102.828 c -3.121,-0.117 -6.218,-0.176 -9.332,-0.176 -132.488,0 -258.8121,113.887 -284.76525,258.828 -26.60545,148.379 61.96875,273 197.81225,278.434 3.121,0.129 6.239,0.188 9.348,0.188 43.422,0 86.176,-12.239 124.961,-33.825 l -82.942,-25.363 c -10.984,1.988 -22.121,3.035 -33.308,3.035 -2.387,0 -4.789,-0.054 -7.18,-0.148 C 106.254,579.5 36.4102,481.109 57.3633,364.148 77.8555,249.734 177.523,159.891 282.09,159.891 c 2.426,0 4.863,0.047 7.289,0.136 53.32,2.176 97.383,27.618 125.605,67.059" /><path
         id="path142"
         style="fill:#4d6bac;fill-opacity:1;fill-rule:nonzero;stroke:none"
         d="m 0.00390625,405.016 0,8.566 C 0.00390625,396.668 1.52734,379.227 4.71875,361.48 30.6719,216.539 156.996,102.652 289.484,102.652 c 3.114,0 6.211,0.059 9.332,0.176 92.555,3.684 163.114,62.727 190.309,146.875 l 0,-8.515 C 461.93,157 391.371,97.9844 298.816,94.2656 295.695,94.1563 292.598,94.0898 289.484,94.0898 156.996,94.0898 30.6719,207.996 4.71875,352.938 1.52734,370.699 0.00390625,388.113 0.00390625,405.016" /><g
         id="g144"><g
           clip-path="url(#clipPath148)"
           id="g146"><path
             id="path152"
             style="fill:#4d6bac;fill-opacity:1;fill-rule:nonzero;stroke:none"
             d="m 482.285,231.238 c -6.488,-15.5 -14.531,-29.972 -23.98,-43.215 -35.797,-50.144 -91.746,-82.507 -159.489,-85.195 -3.121,-0.117 -6.218,-0.176 -9.332,-0.176 -132.488,0 -258.8121,113.887 -284.76525,258.828 -3.19141,17.747 -4.71484375,35.188 -4.71484375,52.102 l 0,-8.566 c 0,-16.903 1.52343375,-34.317 4.71484375,-52.078 C 30.6719,207.996 156.996,94.0898 289.484,94.0898 c 3.114,0 6.211,0.0665 9.332,0.1758 67.743,2.7227 123.692,35.0664 159.489,85.2144 9.449,13.243 17.492,27.704 23.98,43.204 2.508,6.023 4.801,12.187 6.84,18.504 l 0,8.515 c -2.039,-6.289 -4.332,-12.469 -6.84,-18.465" /></g></g><path
         id="path154"
         style="fill:#ffffff;fill-opacity:1;fill-rule:nonzero;stroke:none"
         d="m 3627.78,354.84 -212.34,0 0,56.574 c 0,19.949 8.46,43.731 48.73,43.731 l 120.06,0 c 16.51,0 18.72,7.382 18.72,14.609 l 0,8.699 c 0,7.52 -2.21,15.207 -18.72,15.207 l -161.93,0 0,30.488 161.93,0 c 40.28,0 48.73,-23.777 48.73,-43.722 l 0,-15.02 c 0,-18.593 -8.45,-40.761 -48.73,-40.761 l -120.06,0 c -16.33,0 -18.53,-7.891 -18.53,-15.606 l 0,-23.711 182.14,0 0,-30.488" /><path
         id="path156"
         style="fill:#ffffff;fill-opacity:1;fill-rule:nonzero;stroke:none"
         d="m 3725.39,493.66 c -34.83,0 -40.4,-7.883 -40.4,-33.203 l 0,-42.121 c 0,-26.836 7.55,-33.008 40.4,-33.008 l 87.64,0 c 36.93,0 40.4,9.055 40.4,33.008 l 0,42.121 c 0,25.137 -7.65,33.203 -31.51,33.203 l -96.53,0 z m 96.53,-138.82 -105.24,0 c -51.14,0 -61.88,30.558 -61.88,56.183 l 0,56.551 c 0,37.012 21.41,56.574 61.88,56.574 l 105.24,0 c 40.37,0 61.71,-19.562 61.71,-56.574 l 0,-56.551 c 0,-25.625 -10.72,-56.183 -61.71,-56.183" /><path
         id="path158"
         style="fill:#ffffff;fill-opacity:1;fill-rule:nonzero;stroke:none"
         d="m 3997.71,354.84 -29.27,0 0,138.82 -13.33,0 -24.47,-40.539 -33.51,0 41.09,71.027 59.49,0 0,-169.308" /><path
         id="path160"
         style="fill:#ffffff;fill-opacity:1;fill-rule:nonzero;stroke:none"
         d="m 4088.03,493.66 c -28.37,0 -30.75,-4.777 -30.75,-19.562 l 0,-7.703 c 0,-4.114 1.64,-11.067 7.78,-11.067 l 135.63,0 c 6.14,0 7.78,6.953 7.78,11.067 l 0,7.703 c 0,14.629 -4.95,19.562 -19.64,19.562 l -100.8,0 z m -22.79,-67.043 c -4.88,0 -8.7,-4.16 -8.7,-9.472 l 0,-11.465 c 0,-19.364 8.08,-20.352 31.49,-20.352 l 89.68,0 c 28.4,0 31.49,4.121 31.49,20.352 l 0,11.465 c 0,5.312 -3.82,9.472 -8.7,9.472 l -135.26,0 z m 123.59,-71.777 -111.91,0 c -41.8,0 -50.58,24.316 -50.58,44.707 l 0,18.398 c 0,9.922 4.38,18.789 11.5,24.328 -6.22,6.082 -9.84,15.145 -9.84,25.497 l 0,11.671 c 0,20.395 8.49,44.707 48.92,44.707 l 111.91,0 c 40.43,0 48.92,-24.312 48.92,-44.707 l 0,-11.671 c 0,-10.34 -3.62,-19.415 -9.85,-25.497 7.13,-5.539 11.51,-14.406 11.51,-24.328 l 0,-18.398 c 0,-20.391 -8.78,-44.707 -50.58,-44.707" /></g></g></svg>