<?xml version="1.0" encoding="UTF-8"?>
<!DOCTYPE svg PUBLIC "-//W3C//DTD SVG 1.1//EN" "http://www.w3.org/Graphics/SVG/1.1/DTD/svg11.dtd">
<svg xmlns="http://www.w3.org/2000/svg" xml:space="preserve" width="250px" height="50px" shape-rendering="geometricPrecision" text-rendering="geometricPrecision" image-rendering="optimizeQuality" fill-rule="nonzero" clip-rule="evenodd" viewBox="0 0 250 50" xmlns:xlink="http://www.w3.org/1999/xlink">
<defs>
    <path id="a" d="M0 45.584V2.267h18.652v43.317H0z" />
    <path id="c" d="M9.676 49.28V.949H.992v48.33h8.684z" />
</defs>
<g fill="none" fill-rule="evenodd">
    <g transform="translate(0 3.705)">
	<mask id="b" fill="#fff">
	    <use xlink:href="#a" />
	</mask>
	<path fill="#252525" d="M4.41 36.693V16.841H-.002v-5.347h4.41v-5.89l8.69-3.337v9.227h5.349v5.347h-5.35v18.982c0 2.944.34 4.279 3.413 4.279.465 0 1.07-.064 2.14-.197v5.273c-1.341.337-3.01.406-5.08.406-6.886 0-9.162-2.072-9.162-8.89" mask="url(#b)" />
    </g>
    <path fill="#252525" d="M31.148 28.296h9.227c.135-3.878-.064-8.684-4.347-8.684-4.074 0-4.814 3.536-4.88 8.684m-8.622 4.283c0-10.768 2.408-18.118 13.77-18.118 11.431 0 12.9 7.69 12.768 18.654H31.148c0 8.219.605 11.423 4.747 11.423 3.342 0 4.544-2.735 4.615-6.681l8.286.73c-.472 7.624-4.477 11.035-12.832 11.035-11.365 0-13.438-6.418-13.438-17.043M54.278 32.98c0-10.83 1.806-18.519 13.635-18.519 8.227 0 12.365 2.873 12.566 11.233l-8.288.798c0-3.27-.47-6.681-4.278-6.681-5.015 0-4.944 6.013-4.944 12.5 0 6.952.202 12.03 4.745 12.03 3.408 0 4.543-3.073 4.612-7.152l8.222.87c-.27 7.487-3.875 11.563-12.834 11.563-11.097 0-13.436-6.013-13.436-16.643M86.368.558h8.692V18.74c2.14-2.944 5.081-4.279 8.757-4.279 6.217 0 8.957 3.342 8.957 10.228v24.193h-8.689V26.76c0-4.008-.135-7.02-4.081-7.02-3.676 0-4.944 3.813-4.944 7.755v21.387h-8.692V.558zM121.529 40.398V20.546h-4.411V15.2h4.41V9.31l8.694-3.337V15.2h5.347v5.347h-5.347v18.982c0 2.944.332 4.278 3.411 4.278.46 0 1.066-.063 2.138-.196v5.273c-1.337.337-3.008.406-5.084.406-6.883 0-9.158-2.072-9.158-8.89M148.27 28.296h9.225c.13-3.878-.069-8.684-4.347-8.684-4.079 0-4.814 3.536-4.877 8.684m-8.628 4.283c0-10.768 2.408-18.118 13.773-18.118 11.429 0 12.9 7.69 12.765 18.654h-17.91c0 8.219.597 11.423 4.742 11.423 3.344 0 4.548-2.735 4.612-6.681l8.291.73c-.467 7.624-4.477 11.035-12.837 11.035-11.362 0-13.436-6.418-13.436-17.043M177.946 31.173L169.722 15.2h9.63l4.54 11.563 4.615-11.563h8.426l-8.224 16.04 9.426 17.643h-9.694l-5.482-13.097-5.748 13.097h-8.89zM204.684 40.398V20.546h-4.413V15.2h4.413V9.31l8.69-3.337V15.2h5.349v5.347h-5.35v18.982c0 2.944.334 4.278 3.41 4.278.47 0 1.07-.063 2.139-.196v5.273c-1.337.337-3.008.406-5.08.406-6.885 0-9.158-2.072-9.158-8.89M224.273 15.2c0-.003 4.362-.01 4.362-.01s4.33.007 4.332.01v33.683h-8.694V15.2zm-.064-14.174h8.822v7.148l-4.358-.005-4.464.005V1.026z" />
    <g transform="translate(239.796 -.397)">
	<mask id="d" fill="#fff">
	    <use xlink:href="#c" />
	</mask>
	<path fill="#252525" d="M.992.956C.992.95 5.617.948 5.617.948s4.058.003 4.06.008V49.28H.993V.956z" mask="url(#d)" />
    </g>
</g>
</svg>
