<?xml version="1.0" standalone="no"?>
<!DOCTYPE svg PUBLIC "-//W3C//DTD SVG 20010904//EN"
 "http://www.w3.org/TR/2001/REC-SVG-20010904/DTD/svg10.dtd">
<svg version="1.0" xmlns="http://www.w3.org/2000/svg"
 width="350.000000pt" height="51.000000pt" viewBox="0 0 300.000000 60.000000"
 preserveAspectRatio="xMidYMid meet">

<g transform="translate(0.000000,99.000000) scale(0.100000,-0.100000)"
fill="#000000" stroke="none">
<path d="M252 799 c-86 -43 -129 -129 -119 -239 12 -140 110 -252 244 -280 75
-16 148 6 196 59 33 37 54 77 44 87 -8 8 -58 -16 -97 -47 -129 -103 -330 20
-330 202 0 97 61 166 156 173 63 5 113 16 119 26 8 14 -73 40 -123 40 -28 0
-64 -9 -90 -21z"/>
<path d="M398 741 c-48 -15 -90 -30 -94 -34 -12 -12 -4 -241 9 -253 7 -6 46
-20 87 -33 l75 -22 100 33 100 33 3 121 c2 89 -1 124 -10 131 -19 15 -139 53
-162 52 -12 -1 -60 -13 -108 -28z"/>
<path d="M1320 666 c0 -97 2 -106 22 -120 14 -10 44 -16 79 -16 73 0 89 17 89
92 0 71 -17 88 -88 88 -51 0 -52 1 -52 30 0 25 -4 30 -25 30 l-25 0 0 -104z
m140 -46 l0 -40 -45 0 -45 0 0 40 0 40 45 0 45 0 0 -40z"/>
<path d="M1880 740 c0 -30 -1 -30 -53 -30 -71 0 -87 -17 -87 -93 0 -46 4 -58
22 -71 29 -21 117 -21 146 0 20 14 22 23 22 120 l0 104 -25 0 c-21 0 -25 -5
-25 -30z m0 -120 l0 -40 -45 0 -45 0 0 40 0 40 45 0 45 0 0 -40z"/>
<path d="M2100 740 c0 -29 -1 -30 -51 -30 -80 0 -89 -9 -89 -90 0 -81 9 -90
90 -90 87 0 90 4 90 130 0 103 -1 110 -20 110 -16 0 -20 -7 -20 -30z m-2 -117
c-3 -38 -3 -38 -48 -38 -43 0 -45 1 -46 30 -1 42 2 45 52 45 l45 0 -3 -37z"/>
<path d="M2520 740 c0 -30 -1 -30 -53 -30 -73 0 -89 -14 -95 -82 -6 -77 15
-98 97 -98 86 0 91 8 91 136 0 97 -1 104 -20 104 -16 0 -20 -7 -20 -30z m-2
-117 c-3 -38 -3 -38 -48 -38 -39 0 -45 3 -48 23 -6 42 4 52 53 52 l46 0 -3
-37z"/>
<path d="M3260 650 l0 -120 25 0 25 0 0 120 0 120 -25 0 -25 0 0 -120z"/>
<path d="M3470 740 c0 -30 -1 -30 -53 -30 -71 0 -87 -17 -87 -93 0 -70 19 -87
101 -87 81 0 89 12 89 138 l0 102 -25 0 c-21 0 -25 -5 -25 -30z m0 -120 l0
-40 -45 0 -45 0 0 40 0 40 45 0 45 0 0 -40z"/>
<path d="M857 692 c-12 -13 -17 -37 -17 -75 0 -73 18 -87 112 -87 66 0 68 1
68 25 0 24 -3 25 -59 25 -33 0 -63 5 -66 10 -4 6 14 10 47 10 62 0 78 11 78
55 0 45 -16 55 -85 55 -47 0 -66 -4 -78 -18z m113 -42 c0 -5 -18 -10 -40 -10
-22 0 -40 5 -40 10 0 6 18 10 40 10 22 0 40 -4 40 -10z"/>
<path d="M1050 620 c0 -83 1 -90 20 -90 18 0 20 7 20 65 l0 65 30 0 30 0 0
-65 c0 -58 2 -65 20 -65 18 0 20 7 20 65 l0 65 30 0 30 0 0 -66 c0 -62 1 -65
23 -62 20 3 22 8 22 76 0 97 -6 102 -142 102 l-103 0 0 -90z"/>
<path d="M1558 699 c-14 -8 -18 -24 -18 -79 0 -83 8 -90 104 -90 64 0 66 1 66
25 0 24 -3 25 -59 25 -33 0 -63 5 -66 10 -4 6 15 10 49 10 61 0 86 16 86 55 0
39 -25 55 -88 55 -31 0 -65 -5 -74 -11z m102 -49 c0 -5 -16 -10 -35 -10 -19 0
-35 5 -35 10 0 6 16 10 35 10 19 0 35 -4 35 -10z"/>
<path d="M2187 692 c-12 -13 -17 -36 -17 -74 0 -77 16 -90 106 -86 63 3 69 5
72 26 3 21 0 22 -62 22 -37 0 -66 4 -66 10 0 6 24 10 53 10 61 0 77 11 77 55
0 45 -16 55 -85 55 -47 0 -66 -4 -78 -18z m113 -42 c0 -5 -18 -10 -40 -10 -22
0 -40 5 -40 10 0 6 18 10 40 10 22 0 40 -4 40 -10z"/>
<path d="M2585 669 c22 -131 34 -149 90 -135 19 5 28 19 44 69 l19 62 11 -40
c6 -22 11 -45 11 -51 0 -33 79 -60 96 -32 8 13 33 125 34 151 0 11 -8 17 -24
17 -22 0 -26 -6 -31 -47 -14 -101 -22 -103 -45 -15 -15 55 -16 57 -52 60 l-37
3 -17 -58 c-22 -78 -31 -85 -39 -27 -10 77 -14 84 -42 84 -24 0 -24 -2 -18
-41z"/>
<path d="M2917 692 c-12 -13 -17 -37 -17 -75 0 -71 19 -87 102 -87 75 0 88 14
88 90 0 78 -13 90 -94 90 -48 0 -67 -4 -79 -18z m123 -73 l0 -40 -42 3 c-42 3
-43 4 -46 41 l-3 37 45 0 46 0 0 -41z"/>
<path d="M3136 694 c-12 -11 -16 -36 -16 -90 0 -72 1 -74 25 -74 24 0 25 2 25
65 l0 65 35 0 c31 0 35 3 35 25 0 23 -4 25 -44 25 -27 0 -51 -6 -60 -16z"/>
<path d="M3560 690 c0 -19 7 -20 90 -20 73 0 90 -3 90 -15 0 -12 -15 -15 -73
-15 -92 0 -117 -15 -117 -71 l0 -39 110 0 c105 0 110 1 110 21 0 19 -5 20 -90
17 -80 -3 -90 -1 -90 15 0 15 10 17 79 17 59 0 84 4 95 16 22 21 20 50 -4 74
-17 17 -33 20 -110 20 -83 0 -90 -1 -90 -20z"/>
<path d="M3816 689 c-22 -17 -26 -28 -26 -70 0 -74 20 -89 120 -89 100 0 120
15 120 89 0 70 -28 91 -120 91 -53 0 -73 -4 -94 -21z m172 -71 l3 -48 -80 0
-81 0 0 43 c0 24 3 47 7 51 4 4 39 5 78 4 l70 -3 3 -47z"/>
<path d="M4061 674 c-26 -43 -26 -44 -2 -44 11 0 23 9 26 20 13 41 25 18 25
-50 0 -56 3 -70 15 -70 12 0 15 17 15 90 l0 90 -29 0 c-23 0 -34 -8 -50 -36z"/>
<path d="M4193 700 c-18 -7 -23 -17 -23 -47 0 -21 -3 -48 -6 -60 -4 -14 1 -28
15 -42 17 -17 33 -21 92 -21 102 0 109 6 109 91 0 65 -1 70 -26 79 -31 12
-131 12 -161 0z m155 -47 c3 -10 -16 -13 -72 -13 -70 0 -87 6 -69 24 12 12
136 2 141 -11z m2 -68 c0 -12 -15 -15 -75 -15 -60 0 -75 3 -75 15 0 12 15 15
75 15 60 0 75 -3 75 -15z"/>
<path d="M842 378 l3 -53 43 -3 c25 -2 42 1 42 7 0 6 -16 11 -35 11 -24 0 -35
5 -35 15 0 10 11 15 35 15 19 0 35 5 35 10 0 6 -16 10 -35 10 -19 0 -35 5 -35
10 0 6 16 10 35 10 19 0 35 5 35 10 0 6 -20 10 -46 10 l-45 0 3 -52z"/>
<path d="M1030 375 c0 -59 17 -76 22 -23 2 22 9 34 21 36 14 3 17 -4 17 -32 0
-20 5 -36 10 -36 6 0 10 16 10 35 0 35 -22 57 -47 48 -7 -3 -13 2 -13 11 0 9
-4 16 -10 16 -5 0 -10 -25 -10 -55z"/>
<path d="M1120 420 c0 -5 5 -10 10 -10 6 0 10 5 10 10 0 6 -4 10 -10 10 -5 0
-10 -4 -10 -10z"/>
<path d="M1160 377 c0 -51 1 -53 29 -55 55 -4 74 70 19 76 -16 2 -28 9 -28 18
0 8 -4 14 -10 14 -5 0 -10 -24 -10 -53z m57 2 c15 -15 5 -39 -17 -39 -22 0
-32 24 -17 39 6 6 14 11 17 11 3 0 11 -5 17 -11z"/>
<path d="M1250 420 c0 -5 5 -10 10 -10 6 0 10 5 10 10 0 6 -4 10 -10 10 -5 0
-10 -4 -10 -10z"/>
<path d="M1294 415 c-15 -29 -3 -89 19 -93 9 -2 17 1 17 7 0 6 -4 11 -10 11
-5 0 -10 11 -10 25 0 14 6 25 13 25 8 0 9 3 1 8 -6 4 -13 14 -16 22 -4 12 -7
11 -14 -5z"/>
<path d="M1340 420 c0 -5 5 -10 10 -10 6 0 10 5 10 10 0 6 -4 10 -10 10 -5 0
-10 -4 -10 -10z"/>
<path d="M1594 418 c-5 -7 -9 -17 -9 -23 -1 -5 -5 -18 -9 -28 -13 -28 10 -46
59 -44 33 2 41 5 33 14 -5 7 -7 17 -3 23 4 7 0 10 -11 8 -15 -2 -19 3 -19 27
0 32 -26 47 -41 23z m26 -18 c0 -5 -2 -10 -4 -10 -3 0 -8 5 -11 10 -3 6 -1 10
4 10 6 0 11 -4 11 -10z m0 -45 c10 -13 9 -15 -9 -15 -12 0 -21 6 -21 15 0 8 4
15 9 15 5 0 14 -7 21 -15z"/>
<path d="M1697 412 c-46 -50 13 -114 74 -82 10 6 19 17 19 25 0 19 -16 19 -24
0 -3 -8 -17 -15 -30 -15 -19 0 -27 7 -32 24 -3 14 -3 30 1 35 8 15 48 14 63
-1 17 -17 28 -2 12 17 -17 21 -63 19 -83 -3z"/>
<path d="M2003 415 c-11 -18 -4 -95 8 -95 5 0 9 16 9 35 0 21 5 35 13 35 8 0
7 4 -3 10 -13 9 -13 11 0 20 13 8 13 10 -2 10 -9 0 -21 -7 -25 -15z"/>
<path d="M1393 399 c-43 -16 -24 -79 23 -79 28 0 46 23 42 51 -4 26 -35 40
-65 28z m45 -37 c3 -18 -1 -22 -22 -22 -19 0 -26 5 -26 18 0 39 43 43 48 4z"/>
<path d="M1493 403 c-19 -4 -23 -11 -23 -44 0 -47 17 -52 22 -7 4 45 38 53 38
9 0 -16 5 -33 10 -36 6 -4 10 10 10 33 0 27 -5 42 -16 46 -9 3 -16 5 -17 5 -1
-1 -12 -4 -24 -6z"/>
<path d="M1823 399 c-43 -16 -24 -79 23 -79 28 0 46 23 42 51 -4 26 -35 40
-65 28z m45 -37 c3 -18 -1 -22 -22 -22 -19 0 -26 5 -26 18 0 39 43 43 48 4z"/>
<path d="M1923 402 c-19 -3 -23 -10 -23 -43 0 -47 17 -52 22 -7 2 22 9 34 21
36 14 3 17 -4 17 -32 0 -20 5 -36 10 -36 6 0 10 16 10 35 0 38 -19 54 -57 47z"/>
<path d="M2062 394 c-25 -17 -28 -46 -8 -64 17 -13 58 -10 63 6 2 7 -8 9 -27
6 -16 -2 -30 0 -30 5 0 5 14 10 30 10 34 0 45 7 35 22 -14 24 -42 30 -63 15z
m43 -14 c4 -6 -5 -10 -20 -10 -15 0 -24 4 -20 10 3 6 12 10 20 10 8 0 17 -4
20 -10z"/>
<path d="M2163 402 c-19 -3 -23 -10 -23 -43 0 -21 5 -39 10 -39 6 0 10 13 10
30 0 17 7 33 17 39 22 12 15 18 -14 13z"/>
<path d="M2210 390 c-25 -25 -25 -32 0 -55 13 -12 27 -15 45 -11 36 9 31 27
-5 20 -20 -4 -30 -2 -30 5 0 7 5 9 10 6 15 -10 50 5 50 20 0 13 -29 35 -44 35
-3 0 -15 -9 -26 -20z m50 -10 c0 -5 -9 -10 -21 -10 -11 0 -17 5 -14 10 3 6 13
10 21 10 8 0 14 -4 14 -10z"/>
<path d="M2318 403 c-13 -3 -18 -15 -18 -44 0 -24 4 -38 10 -34 6 3 10 20 10
36 0 44 34 36 38 -9 4 -39 22 -33 22 8 0 19 -7 33 -19 40 -11 5 -21 9 -23 9
-2 -1 -11 -3 -20 -6z"/>
<path d="M2408 399 c-21 -12 -24 -49 -6 -67 16 -16 43 -15 58 3 11 13 8 14
-19 9 -27 -6 -31 -4 -31 14 0 27 17 37 36 21 8 -6 18 -9 22 -5 4 4 -2 14 -12
22 -23 16 -25 17 -48 3z"/>
<path d="M2498 399 c-22 -12 -23 -52 -3 -69 8 -7 25 -10 40 -6 35 9 31 23 -5
18 -16 -2 -30 0 -30 4 0 5 14 9 30 10 42 2 49 12 21 35 -27 22 -30 22 -53 8z
m47 -19 c4 -6 -5 -10 -20 -10 -15 0 -24 4 -20 10 3 6 12 10 20 10 8 0 17 -4
20 -10z"/>
<path d="M953 383 c15 -16 15 -18 0 -35 -9 -10 -13 -21 -9 -26 4 -4 13 1 20
10 12 16 14 16 29 1 22 -23 35 -8 13 16 -15 16 -15 19 -1 31 9 7 13 15 10 18
-2 3 -12 -1 -20 -8 -12 -10 -19 -10 -27 -2 -7 7 -17 12 -22 12 -6 0 -3 -8 7
-17z"/>
<path d="M1120 366 c0 -19 5 -38 10 -41 6 -4 10 10 10 34 0 23 -4 41 -10 41
-5 0 -10 -15 -10 -34z"/>
<path d="M1253 366 c4 -51 17 -57 17 -8 0 23 -4 42 -9 42 -6 0 -9 -15 -8 -34z"/>
<path d="M1340 360 c0 -22 5 -40 10 -40 6 0 10 18 10 40 0 22 -4 40 -10 40 -5
0 -10 -18 -10 -40z"/>
<path d="M840 250 c0 -5 5 -10 10 -10 6 0 10 5 10 10 0 6 -4 10 -10 10 -5 0
-10 -4 -10 -10z"/>
<path d="M905 250 c-3 -5 -1 -10 4 -10 6 0 11 5 11 10 0 6 -2 10 -4 10 -3 0
-8 -4 -11 -10z"/>
<path d="M1680 222 c0 -23 3 -42 8 -42 4 0 7 15 7 34 0 19 -3 38 -7 42 -5 4
-8 -11 -8 -34z"/>
<path d="M1726 237 c-35 -28 -30 -57 9 -57 23 0 25 4 25 40 0 22 -1 40 -2 40
-2 0 -16 -11 -32 -23z m10 -44 c-11 -11 -19 6 -11 24 8 17 8 17 12 0 3 -10 2
-21 -1 -24z"/>
<path d="M870 215 c0 -22 5 -35 13 -35 9 0 12 11 9 35 -2 19 -8 35 -13 35 -5
0 -9 -16 -9 -35z"/>
<path d="M1328 239 c-11 -6 -18 -21 -17 -37 0 -15 3 -20 6 -12 14 43 16 45 22
21 10 -36 26 -36 25 1 -1 35 -10 42 -36 27z"/>
<path d="M934 228 c-4 -6 2 -18 12 -26 18 -13 18 -14 -5 -7 -16 5 -21 4 -17
-4 8 -12 39 -15 50 -4 4 4 -3 15 -16 25 -15 12 -17 16 -5 12 9 -3 17 -1 17 5
0 15 -27 14 -36 -1z"/>
<path d="M1014 229 c-5 -9 -2 -10 9 -6 10 3 17 2 17 -2 0 -5 -7 -11 -15 -15
-25 -9 -17 -26 14 -26 27 0 29 2 22 28 -8 29 -34 41 -47 21z"/>
<path d="M1104 228 c-4 -6 2 -18 12 -26 16 -13 17 -14 2 -9 -10 4 -18 2 -18
-3 0 -11 33 -14 43 -3 4 3 -1 15 -10 26 -10 11 -12 17 -5 13 6 -4 12 -2 12 3
0 15 -27 14 -36 -1z"/>
<path d="M1156 223 c-3 -8 -2 -22 4 -31 8 -15 9 -14 10 6 0 12 5 22 10 22 6 0
11 -10 11 -22 1 -21 2 -21 6 -3 8 33 23 42 23 14 0 -23 4 -26 38 -27 37 -2 38
-1 34 28 -3 21 -10 30 -23 30 -11 0 -19 -4 -19 -10 0 -5 8 -7 18 -4 14 5 14 3
-3 -10 -18 -15 -20 -15 -27 3 -8 24 -73 27 -82 4z"/>
<path d="M1380 225 c-7 -8 -10 -22 -6 -30 8 -21 43 -19 49 3 4 16 5 16 6 0 1
-24 21 -23 21 0 0 10 5 23 12 30 9 9 9 12 -3 12 -8 0 -20 -5 -27 -12 -9 -9
-12 -9 -12 0 0 17 -25 15 -40 -3z m30 -5 c0 -5 -4 -10 -10 -10 -5 0 -10 5 -10
10 0 6 5 10 10 10 6 0 10 -4 10 -10z"/>
<path d="M1500 224 c0 -10 5 -26 10 -34 8 -13 11 -12 24 5 18 24 19 32 6 40
-5 3 -10 -2 -10 -12 -1 -17 -2 -17 -15 1 -15 20 -15 20 -15 0z"/>
<path d="M1553 213 c-14 -29 -8 -47 7 -23 9 13 14 50 8 50 -2 0 -9 -12 -15
-27z"/>
<path d="M1584 225 c-4 -8 -4 -22 0 -30 7 -18 46 -20 46 -2 0 8 3 7 10 -3 11
-18 15 -14 24 23 6 26 5 27 -13 17 -13 -7 -22 -7 -26 0 -9 15 -35 12 -41 -5z
m36 -21 c0 -8 -4 -14 -10 -14 -5 0 -10 9 -10 21 0 11 5 17 10 14 6 -3 10 -13
10 -21z"/>
<path d="M840 205 c0 -14 5 -25 10 -25 6 0 10 11 10 25 0 14 -4 25 -10 25 -5
0 -10 -11 -10 -25z"/>
</g>
</svg>
