<?xml version="1.0" encoding="UTF-8"?>
<!DOCTYPE svg PUBLIC "-//W3C//DTD SVG 1.1//EN" "http://www.w3.org/Graphics/SVG/1.1/DTD/svg11.dtd">
<svg xmlns="http://www.w3.org/2000/svg" xml:space="preserve" width="580px" height="580px" shape-rendering="geometricPrecision" text-rendering="geometricPrecision" image-rendering="optimizeQuality" fill-rule="nonzero" clip-rule="nonzero" viewBox="2478.5 2676.775 520 520" xmlns:xlink="http://www.w3.org/1999/xlink">
<title>i_nav_hand_touch icon</title>
<desc>i_nav_hand_touch icon from the IconExperience.com I-Collection. Copyright by INCORS GmbH (www.incors.com).</desc>
<path id="curve28" d="M2732.5,2719.775c38.7,0,73.7,15.7,99,41s41,60.3,41,99c0,28.9-8.8,55.8-23.8,78.2l-20.9-5.3
	c15.5-20.2,24.7-45.5,24.7-72.9c0-33.1-13.4-63.1-35.101-84.9c-21.8-21.699-51.8-35.1-84.899-35.1c-33.101,0-63.101,13.4-84.9,35.1
	c-21.7,21.801-35.1,51.801-35.1,84.9s13.399,63.1,35.1,84.9c7.5,7.399,15.9,13.8,25,19.1v22.6c-14.6-6.899-27.8-16.3-39.1-27.6
	c-25.3-25.3-41-60.3-41-99s15.7-73.7,41-99S2693.8,2719.775,2732.5,2719.775z M2732.8,2809.775c13.8,0,26.3,5.6,35.3,14.6
	c5.3,5.301,9.4,11.801,11.9,19c-0.9-1.3-1.9-2.5-2.9-3.6c-0.7-0.8-1.399-1.6-2.2-2.4c-10.899-10.899-25.899-17.6-42.399-17.6
	s-31.4,6.7-42.3,17.6l0,0l-0.101,0.101c-1.399,1.399-2.8,2.899-4,4.5c2.5-6.7,6.4-12.601,11.3-17.601
	C2706.5,2815.375,2719,2809.775,2732.8,2809.775z M2732.8,2764.775c26.2,0,50,10.6,67.2,27.8s27.8,41,27.8,67.2
	c0,25.8-10.3,49.1-26.9,66.2l-8.399-2.101v-18.699c9.6-12.601,15.3-28.301,15.3-45.4c0-20.7-8.4-39.5-22-53
	c-13.5-13.6-32.3-22-53-22s-39.5,8.4-53,22c-13.6,13.5-22,32.3-22,53c0,16.8,5.5,32.3,14.8,44.8v28.7c-2.399-2-4.8-4.1-7-6.3
	c-17.2-17.2-27.8-41-27.8-67.2s10.6-50,27.8-67.2S2706.6,2764.775,2732.8,2764.775z"/>
<path id="curve29" d="M2858.4,3110.775c3.7-12.3,18.601-22.7,25.7-33.3c2.9-4.2,5-8.601,6.4-13.2c1.3-4.5,2-9.3,2-14.5v-38.2
	c0-12.899-8.3-23.6-20.8-26.7l-111.101-27.8c-4.6-0.899-8.1-4.899-8.1-9.8v-67.5c0-11-9-20-20-20s-20,9-20,20v149.2
	c0.1,1.5-0.101,3.1-0.7,4.5c-2.1,5.2-7.9,7.6-13.1,5.6l-25.801-10.5c-5-2-11-3.2-17.199-3.2c-6.5,0-12.9,1.2-18.301,4.2
	c-5.1,2.7-9.399,7.101-12.1,13.601c-0.9,2.199-1.6,4.699-2.1,7.399c8.1,1.2,17.6,3.5,26.8,6.9c11.1,4.2,21.899,10.1,29.6,17.7l30,30
	c2.8,2.899,6.9,5.399,10.9,7.899c11.2,7,22,13.8,22,29.2l-0.166,1.167l-19.667-0.167l-0.167-1c0-4.4-6.101-8.2-12.5-12.2
	c-5.101-3.2-10.2-6.399-14.601-10.7l-30-30c-5.5-5.6-13.699-10-22.3-13.199c-11.399-4.301-23.1-6.4-30.6-6.4c-5.5,0-10-4.5-10-10
	c0-9.3,1.6-17.3,4.3-24.1c4.5-11.101,12.1-18.801,21-23.601c8.7-4.7,18.4-6.7,27.9-6.7c8.8,0,17.5,1.7,24.699,4.601l12.101,5v-135.2
	c0-22,18-40,40-40s40,18,40,40v59.7l104,26c21.3,5.3,36,24.1,36,46.1v38.2c0,7.2-0.9,13.9-2.9,20.3c-1.9,6.4-4.9,12.5-8.899,18.5
	c-5.5,8.4-18.033,12.5-21.033,22.2"/>
<path id="curve30" d="M2738.5,2676.775c143.6,0,260,116.4,260,260s-116.4,260-260,260c-143.601,0-260-116.4-260-260
	S2594.9,2676.775,2738.5,2676.775z M2738.5,2696.775c-132.601,0-240,107.4-240,240s107.399,240,240,240c132.6,0,240-107.4,240-240
	S2871.1,2696.775,2738.5,2696.775z"/>
</svg>
