<?xml version="1.0" encoding="UTF-8"?>
<!DOCTYPE svg PUBLIC "-//W3C//DTD SVG 1.1//EN" "http://www.w3.org/Graphics/SVG/1.1/DTD/svg11.dtd">
<svg xmlns="http://www.w3.org/2000/svg" xml:space="preserve" width="260px" height="260px" shape-rendering="geometricPrecision" text-rendering="geometricPrecision" image-rendering="optimizeQuality" fill-rule="nonzero" clip-rule="evenodd" viewBox="0 0 260 260" xmlns:xlink="http://www.w3.org/1999/xlink">
    <path id="a" fill="#252525" d="M129.963 192.679c-1.876 0-3.603-.298-5.107-.883-1.477-.585-2.758-1.402-3.798-2.432a10.695 10.695 0 0 1-2.442-3.64c-.576-1.375-.882-2.925-.882-4.615 0-1.69.297-3.26.882-4.662a10.668 10.668 0 0 1 2.442-3.677c1.04-1.012 2.321-1.839 3.807-2.433 1.504-.576 3.222-.873 5.098-.873 1.866 0 3.593.297 5.135.882 1.504.595 2.813 1.412 3.853 2.433 1.04 1.031 1.839 2.238 2.433 3.677.576 1.449.882 3.009.882 4.662s-.297 3.203-.882 4.615c-.585 1.42-1.383 2.61-2.433 3.63-1.049 1.04-2.34 1.858-3.853 2.433-1.532.585-3.26.883-5.135.883zM130 0c71.797 0 130 58.203 130 130s-58.203 130-130 130S0 201.797 0 130 58.203 0 130 0zm0 9.286C63.44 9.286 9.286 63.44 9.286 130S63.44 250.714 130 250.714 250.714 196.56 250.714 130 196.56 9.286 130 9.286zm-9.286 148.571L117.93 65h24.142l-2.785 92.857h-18.572z"/>
</svg>
