<?xml version="1.0" encoding="UTF-8"?>
<!DOCTYPE svg PUBLIC "-//W3C//DTD SVG 1.1//EN" "http://www.w3.org/Graphics/SVG/1.1/DTD/svg11.dtd">
<svg xmlns="http://www.w3.org/2000/svg" xml:space="preserve" width="1024px" height="1024px" shape-rendering="geometricPrecision" text-rendering="geometricPrecision" image-rendering="optimizeQuality" fill-rule="nonzero" clip-rule="evenodd" viewBox="-240 -240 1384 1384" xmlns:xlink="http://www.w3.org/1999/xlink">
<title>id_card_camera icon</title>
<desc>id_card icon from the IconExperience.com I-Collection. Copyright by INCORS GmbH (www.incors.com).</desc>
<path id="curve28" fill="#252525" d="M730,100v520H330V100H730z M-109.599,420H130v40h-239.6V420z M-150-60h880c44,0,80,36,80,80v600
	c0,44-36,80-80,80h-880c-44,0-80-36-80-80V20C-230-24-194-60-150-60z M730-20h-880c-22,0-40,18-40,40v600c0,22,18,40,40,40h880
	c22,0,40-18,40-40V20C770-2,752-20,730-20z M-110,180h359.6v40H-110V180z M-109.599,299.4H250v40h-359.6V299.4z M424.6,275.8
	c-1-53.6,52-83.399,101-75.399c12.4,2.199,18.4,5.399,28.6,12c38.4-19,84.801,24.6,81.199,63L632,329.6
	c4.799,16.801-0.801,37.801-17.4,46c-5,18.6-17.801,48.6-32,62.4c0.6,16.6,1.6,43.6,17.6,52.801
	c16.4,10.199,26.801,10.799,45,17.398c10.6,3.801,24.4,8.602,32.6,16.602c4.6,4.398,8.801,9.6,12.201,15V140H370v399.801
	c3.4-5.4,7.6-10.602,12.199-15c8.201-8,22-12.801,32.6-16.602c18.201-6.6,28.602-7.199,45-17.398
	c15.4-8.801,17.602-36.602,17.602-52.801c-13.801-13.4-26.801-43.6-32-62.4c-16.4-8.199-22.201-29.4-17.4-46L424.6,275.8z"/>
<path id="curve2" fill="#252525" d="M892,660.801c53,0,96,43,96,96s-43,96-96,96s-96-43-96-96S839,660.801,892,660.801z
	 M892,676.801c-44.2,0-80,35.8-80,80c0,1.85,0.05,3.7,0.2,5.5c0.35,5.1,2.8,9.35,7.05,12.2c4.25,2.85,9.1,3.5,13.95,1.899l0,0
	c7-2.35,11.4-8.899,10.9-16.3c-0.05-1.05-0.1-2.2-0.1-3.3c0-26.5,21.5-48,48-48c1.1,0,2.25,0.05,3.3,0.1
	c7.4,0.5,13.95-3.899,16.3-10.899l0,0c1.6-4.851,0.95-9.7-1.9-13.95s-7.1-6.7-12.2-7.05C895.7,676.851,893.85,676.801,892,676.801z"
	/>
<path id="curve1" fill="#252525" d="M1083.85,597.301h-63.7v-0.5c0.1-8.8,7.2-16,16-16h31.7c8.8,0,15.9,7.2,16,16V597.301z"/>
<path id="curve0" fill="#252525" d="M1116,628.801c0,86.399,0,172.8,0,259.2c0,15.85-14.4,28.8-32,28.8H700
	c-17.601,0-32-12.95-32-28.8c0-86.4,0-172.801,0-259.2c0-17.65,14.35-32,32-32h64c17.649,0,32-14.351,32-32v-0.4
	c0-17.65,14.35-32,32-32h128c17.65,0,32,14.35,32,32v0.4c0,17.649,14.35,32,32,32l0,0h64C1101.65,596.801,1116,611.15,1116,628.801z
	 M828,564.4v32h128v-32H828z M1052,628.801c-17.65,0-32,14.35-32,32c0,17.649,14.35,32,32,32c17.65,0,32-14.351,32-32
	C1084,643.15,1069.65,628.801,1052,628.801z M892,628.801c-70.7,0-128,57.3-128,128s57.3,128,128,128c70.7,0,128-57.3,128-128
	S962.7,628.801,892,628.801z"/>
</svg>
