<?xml version="1.0" standalone="no"?>
<!DOCTYPE svg PUBLIC "-//W3C//DTD SVG 20010904//EN"
 "http://www.w3.org/TR/2001/REC-SVG-20010904/DTD/svg10.dtd">
<svg version="1.0" xmlns="http://www.w3.org/2000/svg"
 width="150.000000pt" height="700.000000pt" viewBox="0 0 150.000000 700.000000"
 preserveAspectRatio="xMidYMid meet">

<g transform="translate(0.000000,700.000000) scale(0.100000,-0.100000)"
fill="#000000" stroke="none">
<path d="M2875 6794 c-242 -43 -457 -156 -636 -334 -139 -138 -201 -235 -297
-465 -96 -233 -476 -1152 -532 -1290 -32 -77 -87 -210 -123 -295 -386 -917
-597 -1431 -597 -1452 0 -10 11 -30 25 -44 l24 -24 1518 2 1518 3 46 21 c25
12 59 39 75 60 26 33 29 45 29 110 0 66 -3 76 -35 121 -19 28 -170 175 -335
329 -911 849 -869 807 -951 951 -80 139 -134 356 -134 535 0 100 32 285 66
378 132 369 399 599 804 696 71 17 233 19 3075 24 2052 3 3006 8 3018 15 17
11 257 582 257 614 0 9 -7 27 -16 39 l-15 22 -3352 -1 c-2858 -1 -3364 -3
-3432 -15z"/>
<path d="M7815 5225 c-94 -24 -80 3 -435 -865 -101 -245 -263 -638 -362 -875
-99 -236 -254 -608 -343 -825 -90 -217 -177 -428 -194 -469 -39 -92 -40 -134
-6 -157 22 -14 59 -16 327 -11 328 5 371 11 536 68 222 78 423 226 567 417 73
98 127 203 220 432 37 91 190 460 340 820 150 360 322 777 383 925 221 540
204 489 175 523 -18 20 -30 20 -590 24 -414 3 -585 1 -618 -7z"/>
<path d="M3483 5209 c-75 -37 -123 -112 -123 -191 0 -77 29 -115 223 -294 100
-93 209 -194 242 -225 33 -31 195 -181 360 -334 343 -318 366 -341 440 -451
236 -349 257 -742 61 -1131 -104 -207 -305 -415 -489 -504 -30 -15 -47 -29
-47 -41 0 -17 30 -18 632 -18 620 0 632 0 675 21 23 11 52 33 62 48 11 15 70
148 131 296 61 149 149 360 195 470 46 110 145 351 220 535 75 184 226 549
335 810 316 756 390 941 390 970 0 15 -8 34 -18 43 -17 16 -145 17 -1633 17
l-1614 0 -42 -21z"/>
<path d="M640 1240 l0 -70 50 0 50 0 0 70 0 70 -50 0 -50 0 0 -70z"/>
<path d="M1219 1286 c-93 -25 -149 -96 -149 -189 l0 -47 -55 0 -55 0 0 -45 0
-45 55 0 55 0 0 -250 0 -250 -55 0 -55 0 0 -45 0 -45 155 0 155 0 0 45 0 45
-55 0 -55 0 0 250 0 250 55 0 55 0 0 45 0 45 -55 0 -55 0 0 38 c0 65 30 99
113 126 12 4 17 16 17 46 0 44 -2 45 -71 26z"/>
<path d="M140 1245 l0 -45 50 0 50 0 0 -370 0 -370 -55 0 -55 0 0 -45 0 -45
155 0 155 0 0 45 0 45 -50 0 -50 0 -2 413 -3 412 -97 3 -98 3 0 -46z"/>
<path d="M7940 1170 l0 -120 -70 0 -70 0 0 -45 0 -45 70 0 70 0 0 -295 0 -295
55 0 55 0 0 295 0 295 80 0 80 0 0 45 0 45 -80 0 -80 0 0 120 0 120 -55 0 -55
0 0 -120z"/>
<path d="M9680 1124 l0 -166 -39 31 c-73 58 -126 76 -226 76 -82 0 -97 -3
-157 -33 -74 -36 -133 -96 -170 -170 -18 -36 -24 -68 -26 -141 -4 -90 -3 -95
32 -167 23 -45 52 -86 77 -108 137 -117 339 -125 461 -17 20 17 38 31 42 31 3
0 6 -20 6 -45 l0 -45 50 0 50 0 0 460 0 460 -50 0 -50 0 0 -166z m-143 -180
c117 -57 172 -196 128 -325 -35 -102 -134 -171 -243 -171 -149 0 -262 110
-262 256 0 80 17 129 61 180 83 94 201 117 316 60z"/>
<path d="M2977 1060 c-98 -25 -190 -102 -235 -198 -23 -49 -27 -70 -27 -152 0
-114 19 -163 92 -241 55 -59 114 -92 196 -109 103 -21 223 10 295 77 l32 31 0
-49 0 -49 50 0 50 0 0 340 0 340 -50 0 -50 0 0 -46 0 -46 -37 32 c-20 18 -57
42 -81 52 -51 23 -177 32 -235 18z m169 -95 c110 -32 184 -135 184 -255 0
-154 -106 -259 -261 -260 -159 0 -270 122 -257 284 9 112 78 199 181 229 67
20 93 20 153 2z"/>
<path d="M4575 1057 c-106 -36 -188 -106 -231 -200 -24 -53 -28 -75 -28 -147
0 -111 32 -188 111 -260 128 -117 330 -128 453 -22 l43 36 -6 -57 c-8 -78 -45
-139 -105 -174 -41 -24 -57 -28 -128 -28 -72 0 -86 3 -130 30 -30 19 -62 51
-84 83 -33 51 -35 52 -82 52 -55 0 -57 -5 -29 -67 28 -61 95 -129 160 -160 51
-25 66 -28 166 -28 106 0 112 1 174 34 39 22 76 52 97 79 60 79 64 107 64 484
l0 338 -50 0 -50 0 0 -46 0 -46 -37 32 c-20 18 -57 42 -82 53 -57 25 -171 32
-226 14z m164 -93 c65 -19 131 -77 162 -142 61 -128 -6 -303 -137 -358 -44
-18 -142 -18 -188 1 -128 54 -194 213 -143 345 24 63 93 128 159 151 66 23 81
23 147 3z"/>
<path d="M5359 1057 c-20 -8 -50 -24 -68 -36 l-31 -22 0 25 c0 24 -3 26 -50
26 l-50 0 0 -340 0 -340 49 0 49 0 4 238 c3 224 4 239 26 280 70 131 271 110
311 -33 6 -24 11 -132 11 -262 l0 -223 49 0 50 0 3 238 c3 217 5 240 24 277
68 131 260 118 308 -22 13 -37 16 -92 16 -270 l0 -223 50 0 50 0 0 233 c0 127
-5 249 -10 269 -53 189 -301 260 -446 126 l-44 -40 -28 29 c-62 67 -193 100
-273 70z"/>
<path d="M6544 1061 c-59 -15 -124 -53 -169 -97 -126 -126 -141 -327 -35 -471
67 -92 206 -152 319 -138 114 13 228 91 277 187 13 26 24 50 24 53 0 3 -24 5
-52 4 -52 0 -54 -1 -83 -47 -96 -149 -347 -131 -423 31 -11 23 -23 52 -27 65
l-6 22 307 0 307 0 -5 64 c-15 179 -162 324 -338 332 -36 2 -79 0 -96 -5z
m197 -116 c51 -26 95 -72 116 -122 27 -66 38 -63 -232 -63 -240 0 -245 0 -245
20 0 30 34 91 67 121 49 44 63 52 111 65 59 17 123 9 183 -21z"/>
<path d="M7329 1061 c-41 -13 -72 -32 -101 -59 l-28 -26 0 37 0 37 -50 0 -50
0 0 -340 0 -340 49 0 49 0 4 228 c3 246 6 261 66 325 32 34 113 59 162 51 52
-10 106 -40 128 -71 37 -54 42 -90 42 -314 l0 -219 51 0 50 0 -3 248 c-3 245
-3 247 -30 297 -51 96 -128 144 -242 151 -39 2 -83 0 -97 -5z"/>
<path d="M8509 1054 c-102 -31 -202 -129 -235 -229 -10 -27 -17 -79 -17 -115
0 -121 57 -228 156 -297 64 -43 115 -57 209 -57 66 1 86 5 142 33 71 35 137
100 167 166 l18 40 -51 3 c-41 3 -53 0 -61 -15 -23 -42 -104 -111 -142 -122
-97 -27 -206 0 -267 65 -27 29 -67 108 -68 132 0 9 68 12 306 12 l307 0 -7 58
c-9 83 -31 140 -74 197 -90 120 -245 172 -383 129z m168 -89 c73 -22 126 -64
157 -126 14 -29 26 -59 26 -66 0 -10 -51 -13 -250 -13 -165 0 -250 4 -250 10
0 18 29 80 49 106 32 40 71 67 125 86 63 21 79 22 143 3z"/>
<path d="M560 1005 l0 -45 55 0 55 0 0 -250 0 -250 -55 0 -55 0 0 -45 0 -45
150 0 150 0 0 45 0 45 -50 0 -50 0 0 295 0 295 -100 0 -100 0 0 -45z"/>
<path d="M1633 1031 c-150 -51 -237 -176 -237 -336 1 -235 245 -398 468 -314
65 24 149 96 177 150 l19 39 -46 0 c-43 0 -50 -4 -82 -40 -53 -63 -103 -85
-192 -85 -58 0 -84 5 -116 22 -69 36 -134 126 -134 183 0 20 5 20 295 20 l295
0 0 50 c0 99 -58 206 -143 264 -95 64 -206 81 -304 47z m245 -110 c36 -23 63
-50 83 -85 52 -91 64 -86 -221 -86 -165 0 -250 4 -250 10 0 26 34 88 68 124
57 59 103 77 192 74 66 -3 82 -7 128 -37z"/>
<path d="M3612 803 c5 -272 8 -288 70 -358 17 -20 54 -48 82 -63 43 -22 64
-26 136 -26 92 0 130 13 183 62 l27 26 0 -37 0 -37 50 0 50 0 0 340 0 340 -50
0 -50 0 0 -206 c0 -116 -5 -224 -11 -249 -49 -195 -336 -201 -378 -7 -6 30
-11 143 -11 257 l0 205 -51 0 -51 0 4 -247z"/>
<path d="M2344 576 c-44 -20 -64 -53 -64 -107 0 -149 211 -155 227 -6 5 40 2
48 -28 81 -39 43 -87 54 -135 32z"/>
</g>
</svg>
