<?xml version="1.0" encoding="UTF-8"?>
<!DOCTYPE svg PUBLIC "-//W3C//DTD SVG 1.1//EN" "http://www.w3.org/Graphics/SVG/1.1/DTD/svg11.dtd">
<svg xmlns="http://www.w3.org/2000/svg" xml:space="preserve" width="359.112" height="111.873"
	 viewBox="0 0 359.112 111.873" xmlns:xlink="http://www.w3.org/1999/xlink">
<path fill="#E20613" d="M348.231,32.795l-15.246,47.643
	H71.689l8.978-20.277c-1.779,1.523-12.344,22.041-34.44,22.041L81.309,0.018L359.112,0L348.231,32.795"/>
<polygon fill="#FFFFFF" points="211.783,49.565 
	226.269,49.565 226.269,60.236 195.396,60.236 195.396,19.583 211.783,19.583"/>
<polygon fill="#FFFFFF" points="265.777,19.583 
	265.777,29.62 246.34,29.62 246.34,35.209 264.128,35.209 264.128,44.229 246.212,44.229 246.212,49.946 265.906,49.946 
	265.906,60.236 230.715,60.236 230.715,19.583"/>
<path fill="#E20613" d="M76.863,0.018L56.917,46.39
	c-4.447,10.543-15.099,35.395-39.13,34.809L52.343,0.017L76.863,0.018"/>
<path fill="#E20613" d="M48.277,0.018l-14.356,33.54
	C22.5,60.807,0,59.729,0,59.729L25.663,0.018H48.277"/>
<path fill="#FFFFFF" d="M142.418,60.236h-17.786
	l-3.049-7.545l-20.582,0.051l-3.685,7.495H80.674c1.27-2.921,20.455-45.228,20.455-45.228h22.105L142.418,60.236"/>
<path fill="#FFFFFF" d="M172.78,19.583
	c6.227-0.254,12.324,3.685,14.611,9.147c3.557,7.623,2.923,18.422-1.777,25.283c-3.939,5.462-10.037,6.224-16.391,6.224H145.34
	V19.583H172.78"/>
<path fill="#FFFFFF" d="M315.199,42.832
	c-1.905,1.397-4.193,2.16-6.479,2.541l12.703,14.864h-19.057l-11.434-14.102v14.102h-16.516V19.583l32.607,0.078
	C323.381,19.661,319.729,40.115,315.199,42.832"/>
<polygon fill="#E20613" points="117.517,42.557 
	105.322,42.578 111.673,26.951"/>
<path fill="#E20613" d="M171.894,33.43
	c1.945,4.325,1.582,11.891-1.779,14.61c-2.656,2.021-5.845,1.525-9.02,1.525V29.619C165.159,29.365,169.986,29.365,171.894,33.43"
	/>
<path fill="#E20613" d="M302.835,31.273
	c0.522,1.17,0.763,4.192-0.762,5.463c-1.892,2.295-7.138,1.397-11.309,1.397v-9.039c3.989,0,8.962-0.454,10.925,1.036
	C302.5,30.58,302.835,31.273,302.835,31.273"/>
<rect x="17.653" y="95.432" fill="#1D1D1B" width="3.116" height="16.178"/>
<path fill="#1D1D1B" d="M27.573,101.807l0.023,0.025c0.719-1.414,2.109-2.398,4.05-2.398
	c2.685,0,3.546,1.727,3.546,3.811v8.365h-3.043v-7.621c0-1.246-0.335-1.988-1.462-1.988c-1.558,0-2.778,1.773-2.778,3.857v5.752
	h-3.044v-9.563c-0.575-0.096-1.391-0.191-2.085-0.24v-1.916c1.51-0.193,3.354-0.264,4.96-0.215
	C27.74,100.25,27.692,101.184,27.573,101.807"/>
<path fill="#1D1D1B" d="M51.915,111.633c0-0.551,0.023-1.461,0.144-2.133l-0.048-0.023
	c-0.695,1.414-2.085,2.396-4.027,2.396c-2.708,0-3.569-1.727-3.569-3.811v-6.016c-0.575-0.096-1.366-0.191-2.062-0.24v-1.916
	c1.582-0.193,3.475-0.264,5.128-0.215v7.643c0,1.246,0.336,1.99,1.462,1.99c1.559,0,2.78-1.773,2.78-3.859v-5.752h3.044v9.563
	c0.575,0.096,1.389,0.193,2.084,0.24v1.916C55.342,111.609,53.496,111.682,51.915,111.633"/>
<path fill="#1D1D1B" d="M62.215,101.807l0.023,0.025c0.72-1.414,2.109-2.398,4.05-2.398
	c2.685,0,3.548,1.727,3.548,3.811v8.365h-3.044v-7.621c0-1.246-0.336-1.988-1.463-1.988c-1.558,0-2.778,1.773-2.778,3.857v5.752
	h-3.044v-9.563c-0.575-0.096-1.391-0.191-2.085-0.24v-1.916c1.51-0.193,3.354-0.264,4.961-0.215
	C62.383,100.25,62.335,101.184,62.215,101.807"/>
<path fill="#1D1D1B" d="M75.198,111.848c-0.862,0-1.725-0.096-2.491-0.215l0.071-2.518
	c0.743,0.193,1.653,0.361,2.564,0.361c1.174,0,1.941-0.48,1.941-1.271c0-2.107-4.817-0.91-4.817-4.961
	c0-2.084,1.701-3.811,5.057-3.811c0.695,0,1.462,0.098,2.182,0.217l-0.097,2.42c-0.671-0.191-1.462-0.311-2.205-0.311
	c-1.197,0-1.773,0.479-1.773,1.223c0,1.939,4.89,1.078,4.89,4.936C80.52,110.268,78.458,111.848,75.198,111.848"/>
<path fill="#1D1D1B" d="M92.763,106.145h-7.382c-0.023,2.229,1.078,3.309,3.283,3.309
	c1.174,0,2.444-0.264,3.476-0.744l0.286,2.373c-1.27,0.502-2.778,0.766-4.266,0.766c-3.786,0-5.896-1.893-5.896-6.086
	c0-3.643,2.015-6.328,5.584-6.328c3.476,0,5.01,2.373,5.01,5.32C92.858,105.162,92.834,105.643,92.763,106.145 M87.753,101.688
	c-1.27,0-2.156,0.934-2.324,2.373h4.386C89.862,102.574,89.047,101.688,87.753,101.688"/>
<path fill="#1D1D1B" d="M98.845,102.094h0.049c0.574-1.51,1.726-2.826,3.785-2.66l-0.143,3.021
	c-2.205-0.455-3.307,0.982-3.307,4.287v4.867h-3.044v-9.563c-0.575-0.096-1.391-0.191-2.085-0.24v-1.916
	c1.51-0.191,3.354-0.264,4.961-0.217C99.062,100.297,98.989,101.256,98.845,102.094"/>
<path fill="#1D1D1B" d="M114.177,106.145h-7.381c-0.024,2.229,1.078,3.309,3.283,3.309
	c1.174,0,2.444-0.264,3.475-0.744l0.287,2.373c-1.271,0.502-2.779,0.766-4.266,0.766c-3.786,0-5.895-1.893-5.895-6.086
	c0-3.643,2.013-6.328,5.583-6.328c3.476,0,5.008,2.373,5.008,5.32C114.271,105.162,114.249,105.643,114.177,106.145
	 M109.168,101.688c-1.271,0-2.156,0.934-2.324,2.373h4.385C111.277,102.574,110.463,101.688,109.168,101.688"/>
<path fill="#1D1D1B" d="M120.308,101.807l0.024,0.025c0.719-1.414,2.107-2.398,4.049-2.398
	c2.685,0,3.547,1.727,3.547,3.811v8.365h-3.043v-7.621c0-1.246-0.335-1.988-1.462-1.988c-1.559,0-2.78,1.773-2.78,3.857v5.752
	h-3.044v-9.563c-0.574-0.096-1.389-0.191-2.085-0.24v-1.916c1.511-0.193,3.356-0.264,4.961-0.215
	C120.475,100.25,120.427,101.184,120.308,101.807"/>
<path fill="#1D1D1B" d="M146.302,111.609l-1.126-3.307h-6.11l-1.126,3.307h-3.141l5.656-16.178h3.522
	l5.776,16.178H146.302z M142.853,101.592c-0.313-0.887-0.553-1.678-0.743-2.59h-0.024c-0.191,0.84-0.455,1.775-0.767,2.709
	l-1.462,4.123h4.506L142.853,101.592z"/>
<path fill="#1D1D1B" d="M158.592,111.633c0-0.6,0.049-1.365,0.145-2.014h-0.048
	c-0.623,1.318-1.941,2.254-3.764,2.254c-2.898,0-4.337-2.182-4.337-5.584c0-4.025,2.349-6.807,6.303-6.807
	c0.505,0,0.982,0.023,1.51,0.096v-3.115c-0.574-0.096-1.39-0.191-2.085-0.238v-1.918c1.511-0.191,3.38-0.264,5.129-0.217v15.17
	c0.574,0.098,1.39,0.193,2.086,0.24v1.916C162.019,111.609,160.174,111.682,158.592,111.633 M158.4,102.094
	c-0.551-0.117-1.078-0.189-1.605-0.189c-1.75,0-2.996,1.102-2.996,4.051c0,2.227,0.647,3.377,2.037,3.377
	c1.606,0,2.564-1.869,2.564-3.906V102.094z"/>
<path fill="#1D1D1B" d="M175.075,106.145h-7.381c-0.023,2.229,1.078,3.309,3.283,3.309
	c1.175,0,2.445-0.264,3.475-0.744l0.287,2.373c-1.27,0.502-2.778,0.766-4.266,0.766c-3.785,0-5.895-1.893-5.895-6.086
	c0-3.643,2.014-6.328,5.584-6.328c3.475,0,5.01,2.373,5.01,5.32C175.173,105.162,175.147,105.643,175.075,106.145
	 M170.066,101.688c-1.27,0-2.155,0.934-2.323,2.373h4.386C172.177,102.574,171.361,101.688,170.066,101.688"/>
<path fill="#1D1D1B" d="M181.158,102.094h0.049c0.575-1.51,1.725-2.826,3.786-2.66l-0.144,3.021
	c-2.204-0.455-3.307,0.982-3.307,4.287v4.867h-3.044v-9.563c-0.575-0.096-1.39-0.191-2.086-0.24v-1.916
	c1.511-0.191,3.355-0.264,4.961-0.217C181.374,100.297,181.302,101.256,181.158,102.094"/>
<path fill="#1D1D1B" d="M190.741,101.807l0.023,0.025c0.719-1.414,2.108-2.398,4.049-2.398
	c2.686,0,3.549,1.727,3.549,3.811v8.365h-3.044v-7.621c0-1.246-0.337-1.988-1.462-1.988c-1.559,0-2.78,1.773-2.78,3.857v5.752
	h-3.044v-9.563c-0.574-0.096-1.39-0.191-2.085-0.24v-1.916c1.511-0.193,3.354-0.264,4.961-0.215
	C190.908,100.25,190.86,101.184,190.741,101.807"/>
<path fill="#1D1D1B" d="M213.956,96.631c-0.479-0.166-1.03-0.217-1.484-0.217
	c-1.343,0-1.941,0.695-1.941,2.277v1.008h2.779v2.371h-2.779v9.539h-3.044v-9.539H205.4v-2.371h2.086V98.74
	c0-3.234,1.485-4.816,4.745-4.816c0.646,0,1.318,0.047,1.94,0.191L213.956,96.631z"/>
<path fill="#1D1D1B" d="M218.507,111.609h-3.067V96.463c-0.575-0.096-1.391-0.191-2.085-0.24v-1.916
	c1.533-0.193,3.379-0.264,5.152-0.215V111.609z"/>
<path fill="#1D1D1B" d="M225.621,111.609h-3.042v-9.563c-0.576-0.096-1.391-0.191-2.086-0.24v-1.918
	c1.51-0.189,3.355-0.262,5.128-0.215V111.609z M224.089,98.164c-1.031,0-1.895-0.838-1.895-1.869c0-1.006,0.863-1.844,1.895-1.844
	c1.053,0,1.917,0.814,1.917,1.844C226.006,97.326,225.142,98.164,224.089,98.164"/>
<path fill="#1D1D1B" d="M238.561,106.145h-7.382c-0.023,2.229,1.078,3.309,3.282,3.309
	c1.175,0,2.446-0.264,3.477-0.744l0.287,2.373c-1.271,0.502-2.779,0.766-4.267,0.766c-3.786,0-5.894-1.893-5.894-6.086
	c0-3.643,2.012-6.328,5.582-6.328c3.476,0,5.01,2.373,5.01,5.32C238.656,105.162,238.632,105.643,238.561,106.145
	 M233.552,101.688c-1.271,0-2.157,0.934-2.324,2.373h4.385C235.661,102.574,234.847,101.688,233.552,101.688"/>
<path fill="#1D1D1B" d="M248.382,111.873c-1.03,0-1.941-0.121-2.54-0.336l0.119-2.516
	c0.646,0.287,1.487,0.479,2.229,0.479c1.438,0,1.989-0.646,1.989-1.342c0-2.084-4.266-1.797-4.266-5.512
	c0-2.805,2.756-2.947,2.756-4.961c0-0.936-0.72-1.414-1.821-1.414c-1.582,0-2.589,1.078-2.589,3.355v11.982h-3.067V99.771
	c0-4.242,2.66-5.873,5.775-5.873c2.948,0,4.889,1.342,4.889,3.57c0,3.094-2.828,2.9-2.828,4.818c0,2.037,4.313,1.918,4.313,5.561
	C253.342,110.266,251.33,111.873,248.382,111.873"/>
<path fill="#1D1D1B" d="M259.714,111.848c-2.637,0-3.451-0.957-3.451-3.736v-6.041H254.2v-2.371h2.037
	v-3.668l3.068-0.814v4.482h2.898v2.371h-2.898v5.225c0,1.533,0.359,1.965,1.415,1.965c0.502,0,1.053-0.07,1.483-0.191v2.469
	C261.438,111.729,260.552,111.848,259.714,111.848"/>
<polygon fill="#1D1D1B" points="273.172,98.068 273.172,102.238 278.396,102.238 278.396,104.803 
	273.172,104.803 273.172,111.609 270.057,111.609 270.057,95.434 278.709,95.434 278.709,98.068"/>
<path fill="#1D1D1B" d="M286.968,111.633c0-0.695,0.024-1.414,0.12-2.037l-0.022-0.023
	c-0.576,1.342-2.037,2.275-3.812,2.275c-2.157,0-3.401-1.221-3.401-3.139c0-2.852,2.826-4.359,6.876-4.359v-0.648
	c0-1.246-0.599-1.895-2.324-1.895c-1.078,0-2.517,0.361-3.523,0.936l-0.263-2.564c1.198-0.432,2.732-0.744,4.266-0.744
	c3.833,0,4.912,1.535,4.912,4.146v5.68c0.575,0.098,1.391,0.193,2.085,0.24v1.916
	C290.371,111.609,288.527,111.682,286.968,111.633 M286.729,106.336c-3.234,0-3.953,0.936-3.953,1.895
	c0,0.766,0.526,1.27,1.413,1.27c1.509,0,2.54-1.438,2.54-2.877V106.336z"/>
<path fill="#1D1D1B" d="M297.245,102.094h0.048c0.576-1.51,1.727-2.826,3.787-2.66l-0.143,3.021
	c-2.205-0.455-3.309,0.982-3.309,4.287v4.867h-3.043v-9.563c-0.576-0.096-1.39-0.191-2.086-0.24v-1.916
	c1.51-0.191,3.355-0.264,4.961-0.217C297.461,100.297,297.39,101.256,297.245,102.094"/>
<path fill="#1D1D1B" d="M306.229,99.244c0,0.719-0.071,1.701-0.192,2.324h0.024
	c0.599-1.295,1.917-2.109,3.595-2.109c2.853,0,4.386,2.061,4.386,5.584c0,4.025-2.35,6.805-6.447,6.805
	c-1.726,0-3.067-0.189-4.433-0.576V96.463c-0.575-0.096-1.39-0.191-2.086-0.24v-1.916c1.534-0.191,3.38-0.264,5.153-0.217V99.244z
	 M308.769,102c-1.581,0-2.54,1.844-2.54,3.832v3.355c0.431,0.145,0.935,0.217,1.581,0.217c1.75,0,2.996-1.102,2.996-4.051
	C310.806,103.125,310.159,102,308.769,102"/>
<path fill="#1D1D1B" d="M326.162,106.145h-7.382c-0.022,2.229,1.078,3.309,3.283,3.309
	c1.176,0,2.446-0.264,3.477-0.744l0.287,2.373c-1.271,0.502-2.779,0.766-4.267,0.766c-3.786,0-5.895-1.893-5.895-6.086
	c0-3.643,2.013-6.328,5.583-6.328c3.476,0,5.009,2.373,5.009,5.32C326.258,105.162,326.235,105.643,326.162,106.145
	 M321.153,101.688c-1.27,0-2.156,0.934-2.323,2.373h4.385C323.264,102.574,322.448,101.688,321.153,101.688"/>
<path fill="#1D1D1B" d="M332.63,110.053c0,1.029-0.815,1.82-1.87,1.82
	c-1.054,0-1.869-0.791-1.869-1.82c0-1.008,0.815-1.824,1.869-1.824C331.814,108.229,332.63,109.045,332.63,110.053"/>
</svg>
