<?xml version="1.0" encoding="UTF-8" standalone="no"?>
<svg
   xmlns:dc="http://purl.org/dc/elements/1.1/"
   xmlns:cc="http://creativecommons.org/ns#"
   xmlns:rdf="http://www.w3.org/1999/02/22-rdf-syntax-ns#"
   xmlns:svg="http://www.w3.org/2000/svg"
   xmlns="http://www.w3.org/2000/svg"
   viewBox="0 0 565.22668 85.346664"
   height="85.346664"
   width="565.22668"
   xml:space="preserve"
   id="svg2"
   version="1.1"><metadata
     id="metadata8"><rdf:RDF><cc:Work
         rdf:about=""><dc:format>image/svg+xml</dc:format><dc:type
           rdf:resource="http://purl.org/dc/dcmitype/StillImage" /></cc:Work></rdf:RDF></metadata><defs
     id="defs6"><clipPath
       id="clipPath136"
       clipPathUnits="userSpaceOnUse"><path
         id="path134"
         d="M 213.41,583.809 C 119.074,580.012 53.6406,503.332 53.6406,405.191 v -8.519 c 0,98.094 65.4334,174.801 159.7694,178.59 2.383,0.086 4.793,0.148 7.176,0.148 11.184,0 22.328,-1.047 33.309,-3.031 v 8.539 c -10.981,1.992 -22.125,3.043 -33.309,3.043 -2.383,0 -4.793,-0.063 -7.176,-0.152" /></clipPath><clipPath
       id="clipPath150"
       clipPathUnits="userSpaceOnUse"><path
         id="path148"
         d="m 0.00390625,405.031 c 0,-16.898 1.51953375,-34.32 4.72265375,-52.09 C 30.6641,207.992 156.996,94.0977 289.48,94.0977 c 3.11,0 6.211,0.0703 9.333,0.1836 92.562,3.7031 163.109,62.7267 190.312,146.9137 v 8.52 C 461.922,165.563 391.375,106.52 298.813,102.828 295.691,102.723 292.59,102.66 289.48,102.66 156.996,102.66 30.6641,216.551 4.72656,361.488 1.52344,379.23 0.00390625,396.672 0.00390625,413.59 Z" /></clipPath></defs><g
     transform="matrix(1.3333333,0,0,-1.3333333,0,85.346667)"
     id="g10"><g
       transform="scale(0.1)"
       id="g12"><path
         id="path14"
         style="fill:#231f20;fill-opacity:1;fill-rule:nonzero;stroke:none"
         d="m 713.191,248.988 h 82.934 v -13.289 h -67.621 v -29.902 h 65.601 v -13.301 h -65.601 v -33.379 h 69.066 v -13.281 h -84.379 v 103.152" /><path
         id="path16"
         style="fill:#231f20;fill-opacity:1;fill-rule:nonzero;stroke:none"
         d="m 868.652,221.539 h 19.211 l -31.781,-36.555 34.102,-39.148 h -20.231 l -23.84,28.75 -23.98,-28.75 h -19.078 l 33.668,39.148 -31.211,36.555 h 19.652 l 21.527,-26.016 21.961,26.016" /><path
         id="path18"
         style="fill:#231f20;fill-opacity:1;fill-rule:nonzero;stroke:none"
         d="m 898.266,249.859 h 14.453 v -39.746 h 0.289 c 6.781,10.559 18.777,14.024 29.617,14.024 18.203,0 31.781,-7.801 31.781,-26.719 v -51.582 h -14.445 v 48.684 c 0,11.128 -6.934,17.488 -22.395,17.488 -13.148,0 -24.847,-7.656 -24.847,-22.539 v -43.633 h -14.453 v 104.023" /><path
         id="path20"
         style="fill:#231f20;fill-opacity:1;fill-rule:nonzero;stroke:none"
         d="m 992.035,221.539 h 14.445 v -75.703 h -14.445 z m 0,28.32 h 14.445 v -15.886 h -14.445 v 15.886" /><path
         id="path22"
         style="fill:#231f20;fill-opacity:1;fill-rule:nonzero;stroke:none"
         d="m 1065.72,211.141 c -16.91,0 -28.04,-10.547 -28.04,-27.883 0,-14.309 8.38,-27.891 28.04,-27.891 19.49,0 27.74,13.582 27.74,27.891 0,17.336 -10.99,27.883 -27.74,27.883 m -41.62,38.718 h 14.45 v -39.746 h 0.29 c 5.78,9.114 17.48,13.164 28.76,13.164 22.82,0 41.17,-14.597 41.17,-40.019 0,-25.43 -18.35,-40.028 -41.17,-40.028 -11.14,0 -23.12,4.333 -28.76,12.286 h -0.29 v -9.68 h -14.45 v 104.023" /><path
         id="path24"
         style="fill:#231f20;fill-opacity:1;fill-rule:nonzero;stroke:none"
         d="m 1123.07,221.539 h 14.45 v -75.703 h -14.45 z m 0,28.32 h 14.45 v -15.886 h -14.45 v 15.886" /><path
         id="path26"
         style="fill:#231f20;fill-opacity:1;fill-rule:nonzero;stroke:none"
         d="m 1161.5,244.801 h 14.45 v -23.262 h 21.67 V 210.27 h -21.67 v -46.668 c 0,-6.079 4.33,-8.235 11.7,-8.235 3.33,0 6.65,0.442 9.97,1.004 v -12.137 c -4.91,-0.871 -10.26,-1.004 -16.18,-1.004 -14.16,0 -19.94,6.93 -19.94,17.918 v 49.122 h -15.6 v 11.269 h 15.6 v 23.262" /><path
         id="path28"
         style="fill:#231f20;fill-opacity:1;fill-rule:nonzero;stroke:none"
         d="m 1208.6,221.539 h 14.46 v -75.703 h -14.46 z m 0,28.32 h 14.46 v -15.886 h -14.46 v 15.886" /><path
         id="path30"
         style="fill:#231f20;fill-opacity:1;fill-rule:nonzero;stroke:none"
         d="m 1281.27,212.008 c -20.95,0 -28.6,-14.59 -28.6,-28.32 0,-13.719 7.65,-28.321 28.6,-28.321 20.95,0 28.61,14.602 28.61,28.321 0,13.73 -7.66,28.32 -28.61,28.32 m 0,12.129 c 29.48,0 43.92,-18.633 43.92,-40.449 0,-21.829 -14.44,-40.458 -43.92,-40.458 -29.47,0 -43.92,18.629 -43.92,40.458 0,21.816 14.45,40.449 43.92,40.449" /><path
         id="path32"
         style="fill:#231f20;fill-opacity:1;fill-rule:nonzero;stroke:none"
         d="m 1339.5,221.539 h 14.45 v -11.426 h 0.28 c 6.8,10.559 18.79,14.024 29.62,14.024 18.21,0 31.79,-7.801 31.79,-26.719 v -51.582 h -14.45 v 48.684 c 0,11.128 -6.93,17.488 -22.39,17.488 -13.15,0 -24.85,-7.656 -24.85,-22.539 v -43.633 h -14.45 v 75.703" /><path
         id="path34"
         style="fill:#231f20;fill-opacity:1;fill-rule:nonzero;stroke:none"
         d="m 1475.45,210.27 c 10.83,4.484 14.88,10.253 14.88,15.46 0,5.926 -5.2,11.122 -12.43,11.122 -9.25,0 -13.29,-5.196 -13.29,-10.403 0,-5.054 3.61,-9.539 10.84,-16.179 m -4.92,-13.582 c -16.03,-6.79 -19.79,-14.004 -19.79,-22.25 0,-8.375 5.92,-19.071 26.15,-19.071 10.12,0 20.37,2.461 26.44,10.535 z m 42.34,-39.153 c -7.8,-9.543 -22.25,-14.305 -36.7,-14.305 -31.07,0 -40.74,17.047 -40.74,30.782 0,12.847 7.65,24.129 26.87,30.769 -9.11,8.086 -11.27,15.164 -11.27,20.949 0,13.868 9.68,23.258 26.73,23.258 16.18,0 26.15,-10.105 26.15,-22.39 0,-8.086 -4.77,-17.918 -19.94,-23.993 l 27.31,-25.277 c 2.89,4.77 4.19,8.957 4.77,16.035 h 13.57 c -0.28,-7.937 -2.3,-16.465 -8.52,-25.133 l 24.28,-22.394 h -20.09 l -12.42,11.699" /><path
         id="path36"
         style="fill:#231f20;fill-opacity:1;fill-rule:nonzero;stroke:none"
         d="m 1638.13,211.859 c -2.31,14.297 -13.58,26.438 -35.25,26.438 -24.42,0 -39.88,-14.004 -39.88,-42.188 0,-19.504 10.55,-39.582 39.01,-39.582 18.06,0 31.78,8.664 36.12,28.743 h 15.31 c -2.45,-22.825 -22.1,-42.04 -51.57,-42.04 -26.01,0 -54.18,14.293 -54.18,54.469 0,30.063 18.77,53.891 54.03,53.891 20.66,0 49.12,-8.813 51.72,-39.731 h -15.31" /><path
         id="path38"
         style="fill:#231f20;fill-opacity:1;fill-rule:nonzero;stroke:none"
         d="m 1709.35,212.008 c -20.94,0 -28.6,-14.59 -28.6,-28.32 0,-13.719 7.66,-28.321 28.6,-28.321 20.96,0 28.61,14.602 28.61,28.321 0,13.73 -7.65,28.32 -28.61,28.32 m 0,12.129 c 29.48,0 43.92,-18.633 43.92,-40.449 0,-21.829 -14.44,-40.458 -43.92,-40.458 -29.47,0 -43.91,18.629 -43.91,40.458 0,21.816 14.44,40.449 43.91,40.449" /><path
         id="path40"
         style="fill:#231f20;fill-opacity:1;fill-rule:nonzero;stroke:none"
         d="m 1767.58,221.539 h 14.45 v -11.426 h 0.29 c 6.78,10.559 18.78,14.024 29.62,14.024 18.2,0 31.78,-7.801 31.78,-26.719 v -51.582 h -14.45 v 48.684 c 0,11.128 -6.93,17.488 -22.39,17.488 -13.15,0 -24.85,-7.656 -24.85,-22.539 v -43.633 h -14.45 v 75.703" /><path
         id="path42"
         style="fill:#231f20;fill-opacity:1;fill-rule:nonzero;stroke:none"
         d="m 1865.82,232.809 c 0,14.004 8.67,18.781 23.26,18.781 4.48,0 8.38,-0.715 12.57,-1.145 v -11.277 c -2.74,0.137 -5.49,0.293 -8.09,0.293 -9.4,0 -13.3,-1.164 -13.3,-7.375 v -10.547 h 21.39 V 210.27 h -21.39 v -64.434 h -14.44 v 64.434 h -15.46 v 11.269 h 15.46 v 11.27" /><path
         id="path44"
         style="fill:#231f20;fill-opacity:1;fill-rule:nonzero;stroke:none"
         d="m 1975.77,190.621 c -2.17,13.731 -12.86,21.387 -26.44,21.387 -13.29,0 -25.29,-7.813 -27.45,-21.387 z m -54.33,-11.269 c 1.16,-15.618 15.03,-23.985 27.89,-23.985 8.23,0 19.51,2.742 24.41,13.438 h 15.32 c -7.23,-18.203 -24.13,-25.575 -39.01,-25.575 -29.49,0 -43.92,18.641 -43.92,40.458 0,21.816 14.43,40.449 43.92,40.449 19.94,0 41.03,-11.551 41.03,-42.903 v -1.882 h -69.64" /><path
         id="path46"
         style="fill:#231f20;fill-opacity:1;fill-rule:nonzero;stroke:none"
         d="m 2005.81,221.539 h 14.45 v -13.867 h 0.3 c 6.79,11.992 16.46,16.465 26.01,16.465 3.6,0 5.48,-0.137 8.23,-0.86 v -15.605 c -3.62,0.871 -6.36,1.445 -10.27,1.445 -14.3,0 -24.27,-8.387 -24.27,-24.863 v -38.418 h -14.45 v 75.703" /><path
         id="path48"
         style="fill:#231f20;fill-opacity:1;fill-rule:nonzero;stroke:none"
         d="m 2130.93,190.621 c -2.17,13.731 -12.86,21.387 -26.45,21.387 -13.28,0 -25.27,-7.813 -27.45,-21.387 z m -54.33,-11.269 c 1.16,-15.618 15.03,-23.985 27.88,-23.985 8.25,0 19.52,2.742 24.43,13.438 h 15.31 c -7.21,-18.203 -24.12,-25.575 -39.01,-25.575 -29.46,0 -43.92,18.641 -43.92,40.458 0,21.816 14.46,40.449 43.92,40.449 19.94,0 41.04,-11.551 41.04,-42.903 v -1.882 h -69.65" /><path
         id="path50"
         style="fill:#231f20;fill-opacity:1;fill-rule:nonzero;stroke:none"
         d="m 2160.98,221.539 h 14.45 v -11.426 h 0.3 c 6.78,10.559 18.78,14.024 29.62,14.024 18.19,0 31.78,-7.801 31.78,-26.719 v -51.582 h -14.46 v 48.684 c 0,11.128 -6.92,17.488 -22.38,17.488 -13.16,0 -24.86,-7.656 -24.86,-22.539 v -43.633 h -14.45 v 75.703" /><path
         id="path52"
         style="fill:#231f20;fill-opacity:1;fill-rule:nonzero;stroke:none"
         d="m 2332.05,173.57 c -6.07,-22.695 -19.8,-30.34 -39.45,-30.34 -30.05,0 -41.18,20.372 -41.18,40.028 0,22.39 13.73,40.879 41.04,40.879 20.22,0 36.26,-9.102 39.3,-27.879 h -15.32 c -1.73,9.82 -9.54,15.75 -22.97,15.75 -18.5,0 -26.73,-12.141 -26.73,-28.32 0,-16.18 8.23,-28.321 26.73,-28.321 13,0 20.08,5.637 23.26,18.203 h 15.32" /><path
         id="path54"
         style="fill:#231f20;fill-opacity:1;fill-rule:nonzero;stroke:none"
         d="m 2412.08,190.621 c -2.16,13.731 -12.85,21.387 -26.43,21.387 -13.29,0 -25.29,-7.813 -27.45,-21.387 z m -54.31,-11.269 c 1.15,-15.618 15.02,-23.985 27.88,-23.985 8.24,0 19.51,2.742 24.41,13.438 h 15.32 c -7.22,-18.203 -24.13,-25.575 -39.01,-25.575 -29.47,0 -43.93,18.641 -43.93,40.458 0,21.816 14.46,40.449 43.93,40.449 19.93,0 41.04,-11.551 41.04,-42.903 v -1.882 h -69.64" /><path
         id="path56"
         style="fill:#231f20;fill-opacity:1;fill-rule:nonzero;stroke:none"
         d="m 604.363,13.0234 h 11.75 V 1.26563 h -11.75 V 13.0234" /><path
         id="path58"
         style="fill:#231f20;fill-opacity:1;fill-rule:nonzero;stroke:none"
         d="m 634.727,13.0234 h 11.746 V 1.26563 H 634.727 V 13.0234" /><path
         id="path60"
         style="fill:#231f20;fill-opacity:1;fill-rule:nonzero;stroke:none"
         d="m 665.195,13.0234 h 11.746 V 1.26563 H 665.195 V 13.0234" /><path
         id="path62"
         style="fill:#231f20;fill-opacity:1;fill-rule:nonzero;stroke:none"
         d="m 714.461,56.0039 h 8.996 V 1.26563 h -8.996 z m 8.996,9.832 h -8.996 v 11.0235 h 8.996 V 65.8359" /><path
         id="path64"
         style="fill:#231f20;fill-opacity:1;fill-rule:nonzero;stroke:none"
         d="m 750.965,56.0039 h 10.898 V 48.0625 H 750.965 V 14.0898 c 0,-4.23042 1.156,-4.87496 6.769,-4.87496 h 4.129 V 1.26563 h -6.879 c -9.312,0 -13.023,1.92187 -13.023,11.97267 v 34.8242 h -9.305 v 7.9414 h 9.305 v 16.3945 h 9.004 V 56.0039" /><path
         id="path66"
         style="fill:#231f20;fill-opacity:1;fill-rule:nonzero;stroke:none"
         d="m 780.477,78.7578 h 11.539 l -13.86,-15.1484 h -6.781 l 9.102,15.1484" /><path
         id="path68"
         style="fill:#231f20;fill-opacity:1;fill-rule:nonzero;stroke:none"
         d="m 802.898,18.5313 c 0.325,-8.0469 7.415,-10.58599 14.711,-10.58599 5.614,0 13.235,1.26953 13.235,8.15629 0,14.0703 -35.774,4.5468 -35.774,25.5937 0,11.0274 10.793,15.5781 20.43,15.5781 12.273,0 21.582,-3.8086 22.434,-17.1523 h -8.996 c -0.528,6.9766 -6.879,9.2109 -12.708,9.2109 -5.386,0 -11.636,-1.4843 -11.636,-6.9804 0,-6.3594 9.527,-7.6289 17.886,-9.5352 9.004,-2.0078 17.891,-5.0781 17.891,-15.5547 0,-13.12498 -12.18,-17.26560625 -23.289,-17.26560625 -12.277,0 -22.648,4.98828625 -23.172,18.53520625 h 8.988" /><path
         id="path70"
         style="fill:#231f20;fill-opacity:1;fill-rule:nonzero;stroke:none"
         d="m 915.59,29.5352 c -6.985,-5.1914 -27.301,-0.1055 -27.301,-13.543 0,-5.9297 5.078,-8.03907 10.578,-8.03907 11.848,0 16.723,7.29687 16.723,12.37497 z M 930.199,1.48828 c -1.594,-0.95703 -3.812,-1.4804675 -6.461,-1.4804675 -4.652,0 -7.621,2.5468775 -7.621,8.4726575 -4.972,-5.92578 -11.64,-8.4726575 -19.258,-8.4726575 -9.953,0 -18.101,4.3359375 -18.101,15.3476875 0,12.3828 9.211,15.1367 18.519,16.8281 9.852,2.0117 18.418,1.1641 18.418,8.0469 0,7.9414 -6.566,9.0898 -12.175,9.0898 -7.614,0 -13.223,-2.3125 -13.653,-10.3711 h -8.988 c 0.531,13.5586 10.898,18.3125 23.176,18.3125 9.84,0 20.535,-2.2148 20.535,-15.0195 V 14.0898 c 0,-4.23042 0,-6.13667 2.855,-6.13667 0.856,0 1.801,0.20703 2.754,0.52734 V 1.48828" /><path
         id="path72"
         style="fill:#231f20;fill-opacity:1;fill-rule:nonzero;stroke:none"
         d="m 975.559,18.5313 c 0.324,-8.0469 7.414,-10.58599 14.714,-10.58599 5.61,0 13.227,1.26953 13.227,8.15629 0,14.0703 -35.766,4.5468 -35.766,25.5937 0,11.0274 10.789,15.5781 20.43,15.5781 12.266,0 21.576,-3.8086 22.426,-17.1523 h -8.99 c -0.53,6.9766 -6.881,9.2109 -12.709,9.2109 -5.387,0 -11.637,-1.4843 -11.637,-6.9804 0,-6.3594 9.527,-7.6289 17.887,-9.5352 8.999,-2.0078 17.889,-5.0781 17.889,-15.5547 0,-13.12498 -12.18,-17.26560625 -23.284,-17.26560625 -12.281,0 -22.652,4.98828625 -23.183,18.53520625 h 8.996" /><path
         id="path74"
         style="fill:#231f20;fill-opacity:1;fill-rule:nonzero;stroke:none"
         d="m 1024.02,56.0039 h 8.46 v -8.0586 h 0.21 c 4.13,6.2422 9.95,9.3281 17.68,9.3281 6.78,0 12.81,-2.5507 15.02,-9.3281 3.71,5.9375 10.07,9.3281 17.16,9.3281 10.9,0 18.2,-4.5507 18.2,-15.8789 V 1.26563 h -8.99 V 37.1523 c 0,6.7813 -1.81,12.1797 -10.59,12.1797 -8.78,0 -14.29,-5.5078 -14.29,-13.9765 V 1.26563 h -9 V 37.1523 c 0,7.1016 -2.21,12.1797 -10.26,12.1797 -10.59,0 -14.61,-9.7461 -14.61,-13.9765 V 1.26563 h -8.99 V 56.0039" /><path
         id="path76"
         style="fill:#231f20;fill-opacity:1;fill-rule:nonzero;stroke:none"
         d="m 1149.09,29.5352 c -7,-5.1914 -27.32,-0.1055 -27.32,-13.543 0,-5.9297 5.08,-8.03907 10.59,-8.03907 11.85,0 16.73,7.29687 16.73,12.37497 z m 14.59,-28.04692 c -1.58,-0.95703 -3.8,-1.4804675 -6.45,-1.4804675 -4.66,0 -7.62,2.5468775 -7.62,8.4726575 -4.98,-5.92578 -11.64,-8.4726575 -19.26,-8.4726575 -9.96,0 -18.11,4.3359375 -18.11,15.3476875 0,12.3828 9.21,15.1367 18.53,16.8281 9.84,2.0117 18.41,1.1641 18.41,8.0469 0,7.9414 -6.55,9.0898 -12.16,9.0898 -7.63,0 -13.24,-2.3125 -13.66,-10.3711 h -9 c 0.53,13.5586 10.9,18.3125 23.18,18.3125 9.84,0 20.53,-2.2148 20.53,-15.0195 V 14.0898 c 0,-4.23042 0,-6.13667 2.86,-6.13667 0.85,0 1.8,0.20703 2.75,0.52734 V 1.48828" /><path
         id="path78"
         style="fill:#231f20;fill-opacity:1;fill-rule:nonzero;stroke:none"
         d="m 1172.77,56.0039 h 8.46 v -11.543 h 0.21 c 4.34,8.8868 10.37,13.125 20.12,12.8125 v -9.5351 c -14.51,0 -19.8,-8.1524 -19.8,-22.1172 V 1.26563 h -8.99 V 56.0039" /><path
         id="path80"
         style="fill:#231f20;fill-opacity:1;fill-rule:nonzero;stroke:none"
         d="m 1221.85,56.0039 h 10.91 v -7.9414 h -10.91 V 14.0898 c 0,-4.23042 1.17,-4.87496 6.78,-4.87496 h 4.13 V 1.26563 h -6.88 c -9.31,0 -13.03,1.92187 -13.03,11.97267 v 34.8242 h -9.3 v 7.9414 h 9.3 v 16.3945 h 9 V 56.0039" /><path
         id="path82"
         style="fill:#231f20;fill-opacity:1;fill-rule:nonzero;stroke:none"
         d="m 1281.75,33.8711 c -0.54,8.5664 -6.78,15.4609 -15.77,15.4609 -9.32,0 -15.14,-6.9804 -15.66,-15.4609 z m 8.67,-15.2305 c -2.42,-12.17966 -11,-18.6327875 -23.39,-18.6327875 -17.46,0 -25.72,12.1757875 -26.25,28.7968875 0,16.5039 10.81,28.4687 25.72,28.4687 19.37,0 25.31,-18.0976 24.77,-31.332 h -40.95 c -0.33,-9.5312 5.07,-17.98827 17.03,-17.98827 7.53,0 12.59,3.48827 14.19,10.68747 h 8.88" /><path
         id="path84"
         style="fill:#231f20;fill-opacity:1;fill-rule:nonzero;stroke:none"
         d="m 1301.31,56.0039 h 8.46 v -11.543 h 0.21 c 4.34,8.8868 10.37,13.125 20.12,12.8125 v -9.5351 c -14.51,0 -19.8,-8.1524 -19.8,-22.1172 V 1.26563 h -8.99 V 56.0039" /><path
         id="path86"
         style="fill:#231f20;fill-opacity:1;fill-rule:nonzero;stroke:none"
         d="m 1422.57,1.27344 h -9.53 l -11.11,43.50786 h -0.21 L 1390.71,1.27344 h -9.74 L 1363.4,56.0039 h 9.96 l 12.38,-44.7773 h 0.21 l 11,44.7773 h 9.85 l 11.43,-44.7773 h 0.21 l 12.28,44.7773 h 9.31 L 1422.57,1.27344" /><path
         id="path88"
         style="fill:#231f20;fill-opacity:1;fill-rule:nonzero;stroke:none"
         d="m 1473.23,7.95313 c 9.42,0 17.04,7.40237 17.04,20.62497 0,13.2422 -7.62,20.7539 -17.04,20.7539 -9.42,0 -17.04,-7.5117 -17.04,-20.7539 0,-13.2226 7.62,-20.62497 17.04,-20.62497 m 0,49.32027 c 17.36,0 26.56,-12.5976 26.56,-28.6953 0,-15.9726 -9.2,-28.5702875 -26.56,-28.5702875 -17.36,0 -26.57,12.5976875 -26.57,28.5702875 0,16.0977 9.21,28.6953 26.57,28.6953" /><path
         id="path90"
         style="fill:#231f20;fill-opacity:1;fill-rule:nonzero;stroke:none"
         d="m 1511.1,56.0039 h 8.46 v -11.543 h 0.21 c 4.34,8.8868 10.37,13.125 20.12,12.8125 v -9.5351 c -14.51,0 -19.8,-8.1524 -19.8,-22.1172 V 1.26563 h -8.99 V 56.0039" /><path
         id="path92"
         style="fill:#231f20;fill-opacity:1;fill-rule:nonzero;stroke:none"
         d="m 1548.23,76.8516 h 9 V 1.26563 h -9 V 76.8516" /><path
         id="path94"
         style="fill:#231f20;fill-opacity:1;fill-rule:nonzero;stroke:none"
         d="m 1595.74,7.95313 c 12.17,0 16.72,10.47267 16.72,20.62497 0,10.6953 -4.86,20.7539 -17.24,20.7539 -12.28,0 -16.41,-10.4765 -16.41,-21.1718 0,-10.2618 5.29,-20.20707 16.93,-20.20707 m 25.41,-6.67969 h -9 V 8.6875 h -0.21 c -2.97,-6.03516 -9.85,-8.6796875 -17.47,-8.6796875 -16.83,0 -25.19,13.3398875 -25.19,28.7968875 0,15.4492 8.26,28.4687 24.99,28.4687 5.49,0 13.75,-2.1211 17.67,-8.5781 h 0.21 v 28.1563 h 9 V 1.27344" /><path
         id="path96"
         style="fill:#ed192e;fill-opacity:1;fill-rule:nonzero;stroke:none"
         d="m 767.66,482.789 c -7.07,0 -10.609,-4.07 -10.609,-12.512 v -11.929 h 74.008 c 5.898,0 8.961,4.359 8.961,12.8 0,7.864 -3.063,11.641 -8.961,11.641 z m 118.551,-20.082 c 0,-25.898 -11.785,-37.828 -36.297,-37.828 h -92.863 v -11.051 c 0,-7.562 3.539,-11.351 10.609,-11.351 H 883.855 V 354.469 H 763.656 c -35.117,0 -52.797,17.461 -52.797,52.672 v 72.445 c 0,32.301 17.68,48.301 52.797,48.301 h 86.258 c 24.274,0 36.297,-13.391 36.297,-40.442 v -24.738" /><path
         id="path98"
         style="fill:#ed192e;fill-opacity:1;fill-rule:nonzero;stroke:none"
         d="m 1160.06,354.469 h -46.2 v 116.969 c 0,7.566 -3.53,11.351 -10.6,11.351 h -42.9 v -128.32 h -46.43 v 128.32 h -53.742 v -128.32 h -45.961 v 173.418 h 189.033 c 37.94,0 56.8,-18.91 56.8,-57.032 V 354.469" /><path
         id="path100"
         style="fill:#ed192e;fill-opacity:1;fill-rule:nonzero;stroke:none"
         d="m 1234.27,482.789 v -68.672 c 0,-7.851 3.54,-11.64 10.84,-11.64 h 72.82 c 7.07,0 10.61,3.789 10.61,11.64 v 57.321 c 0,7.574 -3.54,11.351 -10.61,11.351 z M 1374.73,411.5 c 0,-38.109 -18.85,-57.031 -56.8,-57.031 h -72.82 c -37.94,0 -56.81,18.922 -56.81,57.031 v 181.566 h 45.97 v -65.179 h 83.66 c 37.95,0 56.8,-18.91 56.8,-57.028 V 411.5" /><path
         id="path102"
         style="fill:#ed192e;fill-opacity:1;fill-rule:nonzero;stroke:none"
         d="m 1459.79,482.789 c -7.08,0 -10.61,-4.07 -10.61,-12.512 v -11.929 h 74.01 c 5.89,0 8.95,4.359 8.95,12.8 0,7.864 -3.06,11.641 -8.95,11.641 z m 118.55,-20.082 c 0,-25.898 -11.78,-37.828 -36.29,-37.828 h -92.87 v -11.051 c 0,-7.562 3.53,-11.351 10.61,-11.351 h 116.19 v -48.008 h -120.2 c -35.12,0 -52.79,17.461 -52.79,52.672 v 72.445 c 0,32.301 17.67,48.301 52.79,48.301 h 86.27 c 24.27,0 36.29,-13.391 36.29,-40.442 v -24.738" /><path
         id="path104"
         style="fill:#ed192e;fill-opacity:1;fill-rule:nonzero;stroke:none"
         d="m 1663.17,482.789 c -7.07,0 -10.61,-3.777 -10.61,-11.351 v -57.321 c 0,-7.851 3.54,-11.64 10.61,-11.64 h 72.82 c 7.3,0 10.84,3.789 10.84,11.64 v 68.672 z M 1792.8,411.5 c 0,-38.109 -18.87,-57.031 -56.81,-57.031 h -72.82 c -37.96,0 -56.8,18.922 -56.8,57.031 v 59.359 c 0,38.118 18.84,57.028 56.8,57.028 h 83.66 v 65.179 h 45.97 V 411.5" /><path
         id="path106"
         style="fill:#ed192e;fill-opacity:1;fill-rule:nonzero;stroke:none"
         d="m 1877.85,482.789 c -7.07,0 -10.61,-3.777 -10.61,-11.351 v -57.321 c 0,-7.851 3.54,-11.64 10.61,-11.64 h 72.83 c 7.31,0 10.84,3.789 10.84,11.64 v 68.672 z M 2007.48,411.5 c 0,-38.109 -18.85,-57.031 -56.8,-57.031 h -72.83 c -37.94,0 -56.8,18.922 -56.8,57.031 v 59.359 c 0,38.118 18.86,57.028 56.8,57.028 h 83.67 v 65.179 h 45.96 V 411.5" /><path
         id="path108"
         style="fill:#ed192e;fill-opacity:1;fill-rule:nonzero;stroke:none"
         d="m 2092.54,482.789 c -7.08,0 -10.61,-4.07 -10.61,-12.512 v -11.929 h 74 c 5.9,0 8.96,4.359 8.96,12.8 0,7.864 -3.06,11.641 -8.96,11.641 z m 118.55,-20.082 c 0,-25.898 -11.79,-37.828 -36.29,-37.828 h -92.87 v -11.051 c 0,-7.562 3.53,-11.351 10.61,-11.351 h 116.19 v -48.008 h -120.21 c -35.11,0 -52.78,17.461 -52.78,52.672 v 72.445 c 0,32.301 17.67,48.301 52.78,48.301 h 86.28 c 24.27,0 36.29,-13.391 36.29,-40.442 v -24.738" /><path
         id="path110"
         style="fill:#ed192e;fill-opacity:1;fill-rule:nonzero;stroke:none"
         d="m 2295.91,482.789 c -7.08,0 -10.6,-3.777 -10.6,-11.351 v -57.321 c 0,-7.851 3.52,-11.64 10.6,-11.64 h 72.83 c 7.32,0 10.84,3.789 10.84,11.64 v 68.672 z M 2425.53,411.5 c 0,-38.109 -18.85,-57.031 -56.79,-57.031 h -72.83 c -37.95,0 -56.8,18.922 -56.8,57.031 v 59.359 c 0,38.118 18.85,57.028 56.8,57.028 h 83.67 v 65.179 h 45.95 V 411.5" /><path
         id="path112"
         style="fill:#231f20;fill-opacity:1;fill-rule:nonzero;stroke:none"
         d="m 2725.33,382.691 c -3.55,-17.75 -14.62,-28.222 -27.82,-28.222 h -33.46 c -15.79,0 -29.47,11.633 -33.94,27.929 L 2603,482.789 h -9.44 l -27.1,-100.391 c -4.46,-16.296 -17.9,-27.929 -33.69,-27.929 h -33.48 c -13.19,0 -24.28,10.472 -27.8,28.222 l -28.77,145.2 h 49.5 l 16.97,-114.063 c 1.18,-7.566 4.02,-11.348 8.48,-11.348 h 4.96 c 4,0 7.06,3.782 9.18,11.063 l 31.83,114.348 h 69.29 l 32.06,-114.348 c 2.11,-7.281 5.17,-11.063 9.19,-11.063 h 4.95 c 4.48,0 7.3,3.782 8.48,11.348 l 16.49,114.063 h 49.51 l -28.28,-145.2" /><path
         id="path114"
         style="fill:#231f20;fill-opacity:1;fill-rule:nonzero;stroke:none"
         d="m 2822.38,482.789 c -7.06,0 -10.61,-3.777 -10.61,-11.351 v -57.321 c 0,-7.851 3.55,-11.64 10.61,-11.64 h 72.83 c 7.3,0 10.84,3.789 10.84,11.058 v 57.903 c 0,7.574 -3.54,11.351 -10.84,11.351 z m 129.64,-71.871 c 0,-37.527 -18.86,-56.449 -56.81,-56.449 h -72.83 c -37.94,0 -56.81,18.922 -56.81,57.031 v 59.359 c 0,38.118 18.87,57.028 56.81,57.028 h 72.83 c 37.95,0 56.81,-18.91 56.81,-57.028 v -59.941" /><path
         id="path116"
         style="fill:#231f20;fill-opacity:1;fill-rule:nonzero;stroke:none"
         d="m 3098.11,482.789 h -61.05 c -7.08,0 -10.6,-3.777 -10.6,-11.351 V 354.469 h -46.19 v 116.39 c 0,38.118 18.85,57.028 56.79,57.028 h 61.05 v -45.098" /><path
         id="path118"
         style="fill:#231f20;fill-opacity:1;fill-rule:nonzero;stroke:none"
         d="m 3165.03,354.469 h -45.96 v 238.597 h 45.96 V 354.469" /><path
         id="path120"
         style="fill:#231f20;fill-opacity:1;fill-rule:nonzero;stroke:none"
         d="m 3249.87,482.789 c -7.07,0 -10.62,-3.777 -10.62,-11.351 v -57.321 c 0,-7.851 3.55,-11.64 10.62,-11.64 h 72.83 c 7.29,0 10.84,3.789 10.84,11.64 v 68.672 z M 3379.5,411.5 c 0,-38.109 -18.85,-57.031 -56.8,-57.031 h -72.83 c -37.95,0 -56.81,18.922 -56.81,57.031 v 59.359 c 0,38.118 18.86,57.028 56.81,57.028 h 83.67 v 65.179 h 45.96 V 411.5" /><path
         id="path122"
         style="fill:#ef2b3e;fill-opacity:1;fill-rule:nonzero;stroke:none"
         d="m 521.867,550.051 c 12.43,-3.664 22.781,-21 23.008,-38.539 l 2.598,-202.301 c 0.222,-17.543 -9.754,-28.883 -22.196,-25.231 l -143.558,42.321 c -12.461,3.695 -22.824,20.996 -23.043,38.551 l -2.598,202.316 c -0.219,17.539 9.762,28.879 22.215,25.203 l 143.574,-42.32" /><path
         id="path124"
         style="fill:#ed192e;fill-opacity:1;fill-rule:nonzero;stroke:none"
         d="m 525.277,283.98 -143.558,42.321 c -5.34,1.566 -10.27,5.66 -14.211,11.156 -1.719,2.41 -3.246,5.141 -4.531,8.004 L 170.438,286.023 c 1.289,-2.882 2.812,-5.578 4.542,-7.98 3.93,-5.547 8.872,-9.609 14.2,-11.172 l 143.566,-42.336 c 3.121,-0.933 6.086,-0.894 8.77,-0.066 l 192.547,59.441 c -2.692,-0.816 -5.665,-0.847 -8.786,0.07" /><path
         id="path126"
         style="fill:#db1c30;fill-opacity:1;fill-rule:nonzero;stroke:none"
         d="m 359.641,583.664 c 1.261,2.359 2.828,4.332 4.609,5.859 1.59,1.336 3.34,2.329 5.25,2.918 L 176.961,533.016 c -1.891,-0.594 -3.66,-1.606 -5.238,-2.93 -1.793,-1.523 -3.34,-3.492 -4.614,-5.852 -2.32,-4.371 -3.648,-10 -3.57,-16.511 l 2.602,-202.864 0.039,0.02 c 0.078,-3.074 0.429,-6.121 1.07,-9.094 0.742,-3.379 1.832,-6.695 3.188,-9.762 l 192.542,59.438 c -1.371,3.082 -2.46,6.371 -3.203,9.801 -0.675,3.129 -1.066,6.351 -1.105,9.59 h -0.012 l -2.578,202.324 c -0.082,6.488 1.227,12.137 3.559,16.488" /><path
         id="path128"
         style="fill:#627ab7;fill-opacity:1;fill-rule:nonzero;stroke:none"
         d="m 336.84,606.285 v -8.551 l -82.945,-25.351 v 8.543 l 82.945,25.359" /><g
         id="g130"><g
           clip-path="url(#clipPath136)"
           id="g132"><path
             id="path138"
             style="fill:#4d6bac;fill-opacity:1;fill-rule:nonzero;stroke:none"
             d="m 220.59,583.957 c -2.395,0 -4.789,-0.051 -7.184,-0.152 -53.461,-2.149 -97.64,-27.711 -125.8787,-67.328 -7.4414,-10.422 -13.7695,-21.813 -18.871,-34.008 -4.918,-11.735 -8.6875,-24.184 -11.2305,-37.254 -2.4805,-12.813 -3.7813,-26.219 -3.7813,-40.02 v -8.519 c 0,13.801 1.3008,27.168 3.7813,39.98 2.543,13.067 6.3125,25.528 11.2305,37.282 5.1015,12.187 11.4296,23.597 18.871,33.988 28.2387,39.621 72.4177,65.191 125.8787,67.34 2.395,0.093 4.789,0.14 7.184,0.14 11.187,0 22.32,-1.039 33.305,-3.023 v 8.543 c -10.985,1.992 -22.118,3.031 -33.305,3.031" /></g></g><path
         id="path140"
         style="fill:#254aa5;fill-opacity:1;fill-rule:nonzero;stroke:none"
         d="m 414.98,227.098 74.141,22.617 C 461.922,165.563 391.371,106.512 298.813,102.84 c -3.122,-0.129 -6.223,-0.18 -9.333,-0.18 -132.488,0 -258.8081,113.891 -284.76125,258.824 -26.60935,148.379 61.96485,273 197.81225,278.438 3.121,0.125 6.231,0.183 9.34,0.183 43.43,0 86.18,-12.234 124.969,-33.82 l -82.942,-25.359 c -10.984,1.992 -22.128,3.031 -33.308,3.031 -2.387,0 -4.789,-0.055 -7.18,-0.152 C 106.254,579.504 36.4102,481.113 57.3633,364.156 77.8516,249.742 177.523,159.898 282.082,159.898 c 2.43,0 4.871,0.047 7.289,0.137 53.317,2.18 97.391,27.617 125.609,67.063" /><path
         id="path142"
         style="fill:#4d6bac;fill-opacity:1;fill-rule:nonzero;stroke:none"
         d="m 0.00390625,405.023 v 8.563 c 0,-16.91 1.51953375,-34.352 4.71484375,-52.102 C 30.6719,216.551 156.992,102.66 289.48,102.66 c 3.11,0 6.211,0.063 9.333,0.18 92.558,3.672 163.109,62.723 190.308,146.875 v -8.52 C 461.922,157.008 391.371,97.9922 298.813,94.2734 295.691,94.168 292.59,94.0977 289.48,94.0977 156.992,94.0977 30.6719,208.004 4.71875,352.945 1.52344,370.703 0.00390625,388.125 0.00390625,405.023" /><g
         id="g144"><g
           clip-path="url(#clipPath150)"
           id="g146"><path
             id="path152"
             style="fill:#4d6bac;fill-opacity:1;fill-rule:nonzero;stroke:none"
             d="m 482.277,231.246 c -6.488,-15.5 -14.523,-29.973 -23.976,-43.215 -35.797,-50.144 -91.75,-82.508 -159.488,-85.191 -3.122,-0.129 -6.223,-0.18 -9.333,-0.18 -132.488,0 -258.8081,113.891 -284.76125,258.824 -3.19531,17.75 -4.71484375,35.192 -4.71484375,52.102 v -8.563 c 0,-16.898 1.51953375,-34.32 4.71484375,-52.078 C 30.6719,208.004 156.992,94.0977 289.48,94.0977 c 3.11,0 6.211,0.0703 9.333,0.1757 67.738,2.7227 123.691,35.0706 159.488,85.2146 9.453,13.235 17.488,27.703 23.976,43.203 2.516,6.028 4.805,12.188 6.844,18.504 v 8.52 c -2.039,-6.289 -4.328,-12.473 -6.844,-18.469" /></g></g><path
         id="path154"
         style="fill:#231f20;fill-opacity:1;fill-rule:nonzero;stroke:none"
         d="m 3627.78,354.852 h -212.34 v 56.566 c 0,19.949 8.45,43.73 48.73,43.73 h 120.06 c 16.51,0 18.72,7.391 18.72,14.61 v 8.699 c 0,7.52 -2.21,15.211 -18.72,15.211 H 3422.3 v 30.488 h 161.93 c 40.28,0 48.73,-23.777 48.73,-43.718 v -15.02 c 0,-18.602 -8.45,-40.77 -48.73,-40.77 h -120.06 c -16.33,0 -18.53,-7.89 -18.53,-15.597 V 385.34 h 182.14 v -30.488" /><path
         id="path156"
         style="fill:#231f20;fill-opacity:1;fill-rule:nonzero;stroke:none"
         d="m 3725.39,493.668 c -34.83,0 -40.4,-7.883 -40.4,-33.203 v -42.117 c 0,-26.844 7.55,-33.008 40.4,-33.008 h 87.64 c 36.92,0 40.4,9.047 40.4,33.008 v 42.117 c 0,25.133 -7.66,33.203 -31.52,33.203 z m 96.52,-138.824 h -105.23 c -51.14,0 -61.89,30.562 -61.89,56.183 v 56.559 c 0,37.012 21.41,56.57 61.89,56.57 h 105.23 c 40.37,0 61.71,-19.558 61.71,-56.57 v -56.559 c 0,-25.621 -10.71,-56.183 -61.71,-56.183" /><path
         id="path158"
         style="fill:#231f20;fill-opacity:1;fill-rule:nonzero;stroke:none"
         d="m 3997.71,354.852 h -29.27 v 138.816 h -13.33 l -24.47,-40.543 h -33.52 l 41.1,71.031 h 59.49 V 354.852" /><path
         id="path160"
         style="fill:#231f20;fill-opacity:1;fill-rule:nonzero;stroke:none"
         d="m 4065.64,493.18 c -7.02,0 -13.53,-1.953 -13.53,-16.106 v -4.933 c 0,-15.371 6.51,-17.5 13.53,-17.5 h 143.63 v 21.836 c 0,8.261 -2.78,16.703 -23.44,16.703 z m 121.59,-138.203 h -153.9 v 31.152 h 146.59 c 29.35,0 29.35,12.148 29.35,16.711 v 20.648 h -146.78 c -18.39,0 -40.32,7.957 -40.32,45.899 v 10.242 c 0,36.961 21.93,44.719 40.32,44.719 h 124.74 c 42.98,0 51.98,-24.43 51.98,-44.918 v -79.532 c 0,-20.5 -9,-44.921 -51.98,-44.921" /></g></g></svg>