<?xml version="1.0" standalone="no"?>
<!DOCTYPE svg PUBLIC "-//W3C//DTD SVG 20010904//EN"
 "http://www.w3.org/TR/2001/REC-SVG-20010904/DTD/svg10.dtd">
<svg version="1.0" xmlns="http://www.w3.org/2000/svg"
 width="320.000000pt" height="81.000000pt" viewBox="0 0 320.000000 81.000000"
 preserveAspectRatio="xMidYMid meet">

<g transform="translate(0.000000,81.000000) scale(0.100000,-0.100000)"
fill="#000000" stroke="none">
<path d="M1450 620 c0 -49 -3 -90 -7 -90 -5 0 -17 7 -27 15 -44 34 -124 8
-147 -47 -21 -50 -18 -224 4 -266 29 -54 103 -69 151 -31 21 17 26 18 26 5 0
-12 10 -16 36 -16 l37 0 -7 46 c-3 26 -6 143 -6 260 l0 214 -30 0 -30 0 0 -90z
m-23 -136 c25 -38 25 -189 0 -227 -23 -36 -61 -36 -84 0 -25 38 -25 188 0 226
23 36 61 36 84 1z"/>
<path d="M413 628 c-17 -8 -23 -20 -23 -45 0 -29 -3 -33 -26 -33 -21 0 -25 -4
-22 -22 2 -15 10 -23 23 -23 19 0 20 -8 25 -142 6 -173 9 -177 103 -174 32 1
37 4 37 25 0 21 -6 25 -32 28 l-33 3 -3 132 -3 133 31 -6 c27 -6 30 -4 30 20
0 22 -4 26 -30 26 -29 0 -30 2 -30 45 0 48 -7 52 -47 33z"/>
<path d="M651 548 c-43 -23 -64 -73 -69 -162 -7 -141 19 -191 106 -203 79 -11
142 33 142 97 0 15 -6 20 -27 20 -22 0 -31 -8 -43 -33 -12 -25 -22 -33 -47
-35 -40 -4 -63 27 -63 85 l0 43 95 0 95 0 0 33 c-1 56 -18 109 -43 135 -30 30
-108 40 -146 20z m99 -53 c7 -9 13 -32 14 -53 l1 -37 -55 0 c-53 0 -55 1 -58
28 -7 60 63 104 98 62z"/>
<path d="M1011 534 c-30 -25 -31 -25 -31 -5 0 17 -6 21 -32 21 l-33 0 0 -180
0 -180 38 0 37 0 0 138 c0 154 9 182 59 182 47 0 51 -12 51 -172 l0 -148 35 0
35 0 0 156 0 156 -29 29 c-39 38 -87 39 -130 3z"/>
<path d="M1663 544 c-52 -26 -65 -68 -61 -195 3 -102 5 -110 30 -135 21 -21
39 -28 80 -31 66 -5 97 11 121 59 22 44 16 58 -24 58 -22 0 -29 -5 -29 -19 0
-28 -27 -51 -60 -51 -35 0 -45 17 -54 83 l-7 47 96 0 95 0 0 50 c0 28 -6 66
-14 85 -25 59 -105 82 -173 49z m99 -51 c11 -10 18 -30 18 -55 l0 -38 -53 0
c-30 0 -56 2 -59 5 -9 10 9 87 23 96 22 14 51 10 71 -8z"/>
<path d="M2050 553 c-8 -3 -23 -12 -32 -21 -16 -14 -18 -13 -18 1 0 13 -9 17
-35 17 l-35 0 0 -180 0 -180 35 0 35 0 0 134 c0 120 2 136 21 160 25 32 62 34
83 4 13 -18 16 -52 16 -160 l0 -138 35 0 35 0 0 133 c0 147 -10 199 -43 222
-21 15 -68 19 -97 8z"/>
<path d="M2333 544 c-45 -22 -63 -74 -63 -182 0 -131 33 -181 121 -182 58 0
96 18 113 55 23 49 20 62 -15 67 -22 4 -32 0 -36 -11 -16 -52 -23 -61 -52 -61
-48 0 -61 29 -61 140 0 114 13 143 63 138 26 -2 34 -9 42 -35 7 -27 14 -33 36
-33 36 0 43 13 29 55 -20 61 -106 84 -177 49z"/>
<path d="M2644 541 c-42 -26 -58 -76 -59 -181 0 -102 15 -143 60 -164 85 -41
176 -5 187 74 3 22 -1 25 -29 28 -27 3 -33 0 -33 -16 0 -42 -73 -70 -99 -38
-6 8 -14 37 -18 65 l-6 51 98 0 98 0 -5 63 c-6 70 -25 108 -64 125 -38 18 -95
14 -130 -7z m111 -55 c9 -14 15 -37 13 -53 -3 -27 -5 -28 -58 -28 -63 0 -70
11 -46 69 13 30 20 36 45 36 21 0 35 -7 46 -24z"/>
</g>
</svg>
